<svg width="40" height="40" viewBox="0 0 40 40" fill="none" xmlns="http://www.w3.org/2000/svg">
<g clip-path="url(#clip0)">
<path d="M0 39.9244V0.611755L39.3134 39.9244H0ZM10.6569 37.8825L10.757 38.0793L10.8538 38.1892L11.0694 38.2973H34.4657L34.7301 38.0972L34.7862 37.9467L34.7228 37.6352L2.29408 5.20643L1.99227 5.14053L1.82957 5.19341L1.62701 5.45861V28.8566L1.73602 29.0633L1.83608 29.1698L2.04271 29.2683H10.6569V37.8825ZM2.01749 30.9571H1.90685L1.62701 31.228V37.8825L1.73114 38.0842L1.8312 38.194L2.04271 38.2973H8.69717L8.98108 38.0167L8.96807 37.9166L8.94854 37.8825V31.228L8.89079 31.0319V31.0441L8.69473 30.9758H2.04271L2.01749 30.9571Z" fill="white"/>
<path d="M35.6631 30.552L36.3806 29.8247L36.4449 29.6221V29.5082L36.3823 29.3065L10.6829 3.62416L10.4917 3.56071H10.3778L10.1752 3.62497L9.44797 4.35062L8.26025 3.16128L11.4215 0L12.6296 1.19422L11.8974 1.92068L11.7957 2.11918V2.23307L11.8999 2.434L37.5553 28.1066L37.7668 28.2099H37.8807L38.0808 28.1082L38.8073 27.3834L39.9999 28.576L36.8443 31.7381L35.6631 30.552Z" fill="white"/>
</g>
<defs>
<clipPath id="clip0">
<rect width="40" height="39.9243" fill="white"/>
</clipPath>
</defs>
</svg>
