<svg width="40" height="40" viewBox="0 0 40 40" fill="none" xmlns="http://www.w3.org/2000/svg">
<path d="M19.9997 39.0439H19.9998L27.9961 31.8081L28.1198 31.8258C28.1199 31.8253 28.12 31.8247 28.1201 31.8242C28.1324 31.7367 28.1271 31.6476 28.1047 31.5622C28.082 31.4762 28.0424 31.3956 27.9881 31.3252C27.9339 31.2548 27.866 31.1959 27.7887 31.1522C27.7113 31.1084 27.6259 31.0806 27.5376 31.0704C27.4492 31.0601 27.3598 31.0677 27.2744 31.0926C27.1891 31.1175 27.1096 31.1593 27.0407 31.2155C26.9717 31.2716 26.9148 31.341 26.8731 31.4196C26.8317 31.4975 26.8063 31.5828 26.7982 31.6707C26.5889 33.401 25.7276 34.9864 24.3899 36.1038C23.0517 37.2216 21.3376 37.7868 19.597 37.6843C17.8564 37.5817 16.2204 36.819 15.0228 35.5518C13.8252 34.2846 13.1561 32.6083 13.1519 30.8647V6.94662H26.8478V22.6054C26.8478 22.7819 26.918 22.9512 27.0428 23.076C27.1676 23.2008 27.3369 23.2709 27.5134 23.2709C27.6899 23.2709 27.8592 23.2008 27.984 23.076C28.1088 22.9512 28.1789 22.7819 28.1789 22.6054V6.28108C28.1789 6.10457 28.1088 5.93528 27.984 5.81047C27.8592 5.68566 27.6899 5.61554 27.5134 5.61554H12.4863C12.3098 5.61554 12.1405 5.68566 12.0157 5.81047C11.8909 5.93529 11.8208 6.10457 11.8208 6.28108L11.8208 30.8649L11.8208 30.865C11.8233 33.0334 12.6858 35.1123 14.2191 36.6456C15.7524 38.179 17.8313 39.0414 19.9997 39.0439Z" fill="white" stroke="white" stroke-width="0.25"/>
<path d="M27.5137 28.5027C27.3703 28.5027 27.2328 28.4457 27.1315 28.3444C27.0301 28.243 26.9731 28.1055 26.9731 27.9621V26.3892C26.9731 26.2458 27.0301 26.1083 27.1315 26.007C27.2328 25.9056 27.3703 25.8486 27.5137 25.8486C27.6571 25.8486 27.7945 25.9056 27.8959 26.007C27.9973 26.1083 28.0542 26.2458 28.0542 26.3892V27.9621C28.0542 28.1055 27.9973 28.243 27.8959 28.3444C27.7945 28.4457 27.6571 28.5027 27.5137 28.5027Z" fill="white"/>
<path d="M28.0504 6.94499L28.0521 6.94496C28.8392 6.93416 29.5903 6.61392 30.1431 6.05353C30.6958 5.49313 31.0057 4.73765 31.0057 3.95051C31.0057 3.16338 30.6958 2.4079 30.1431 1.8475C29.5903 1.28711 28.8392 0.966869 28.0521 0.956066L28.0521 0.956055H28.0504H11.9499V0.956043L11.9481 0.956066C11.1611 0.966869 10.4099 1.28711 9.85716 1.8475C9.30441 2.4079 8.99451 3.16338 8.99451 3.95051C8.99451 4.73765 9.30441 5.49313 9.85716 6.05353C10.4099 6.61392 11.1611 6.93416 11.9481 6.94496V6.94497H11.9499L28.0504 6.94499ZM10.7944 2.78441C11.0999 2.47354 11.5152 2.29499 11.951 2.28714H28.0493C28.485 2.29499 28.9003 2.47354 29.2059 2.78441C29.5116 3.09553 29.6829 3.5143 29.6829 3.95051C29.6829 4.38673 29.5116 4.8055 29.2059 5.11662C28.9004 5.42749 28.4851 5.60603 28.0493 5.61389H11.9509C11.5152 5.60603 11.0999 5.42749 10.7944 5.11662C10.4886 4.8055 10.3173 4.38673 10.3173 3.95051C10.3173 3.5143 10.4886 3.09553 10.7944 2.78441Z" fill="white" stroke="white" stroke-width="0.25"/>
<path d="M27.516 19.5342L27.6787 19.5312L27.6729 19.5108C27.7894 19.4819 27.897 19.4218 27.9833 19.3355C28.1081 19.2106 28.1782 19.0414 28.1782 18.8649C28.1782 18.6883 28.1081 18.5191 27.9833 18.3942C27.8585 18.2694 27.6892 18.1993 27.5127 18.1993L27.5098 18.1994C26.7413 18.2172 25.9887 17.9786 25.3709 17.5212L25.3709 17.5211L25.3676 17.5188C24.5261 16.9366 23.5271 16.6248 22.5038 16.6248C21.4805 16.6248 20.4815 16.9366 19.64 17.5188L19.6399 17.5188L19.6388 17.5196C19.0121 17.9637 18.2629 18.2022 17.4949 18.2022C16.7269 18.2022 15.9779 17.9637 15.3512 17.5198C14.5177 16.9219 13.5133 16.6092 12.4876 16.6285C12.3116 16.6288 12.1428 16.6989 12.0183 16.8234C11.8935 16.9483 11.8234 17.1175 11.8234 17.294C11.8234 17.4706 11.8935 17.6398 12.0183 17.7647C12.1431 17.8895 12.3124 17.9596 12.4889 17.9596V17.9596L12.4919 17.9596C13.2605 17.941 14.0132 18.1797 14.6307 18.6377L14.6306 18.6377L14.634 18.6401C15.4752 19.2223 16.474 19.5342 17.497 19.5342C18.5201 19.5342 19.5188 19.2223 20.36 18.6401L20.3611 18.6393C20.9881 18.1959 21.7371 17.9577 22.5051 17.9577C23.2729 17.9577 24.0219 18.1958 24.6488 18.6391C25.483 19.2388 26.4888 19.5528 27.516 19.5342Z" fill="white" stroke="white" stroke-width="0.25"/>
<path d="M18.3245 27.7146C17.7521 27.7147 17.1926 27.5451 16.7167 27.2272C16.2408 26.9093 15.8698 26.4574 15.6508 25.9286C15.4317 25.3999 15.3744 24.818 15.486 24.2567C15.5976 23.6954 15.8732 23.1797 16.2779 22.775C16.6826 22.3703 17.1982 22.0948 17.7596 21.9831C18.3209 21.8715 18.9027 21.9288 19.4315 22.1479C19.9602 22.367 20.4121 22.7379 20.73 23.2139C21.0479 23.6898 21.2175 24.2493 21.2174 24.8216C21.2164 25.5886 20.9113 26.3238 20.369 26.8661C19.8267 27.4085 19.0914 27.7136 18.3245 27.7146ZM18.3245 23.0119C17.966 23.0118 17.6155 23.118 17.3174 23.3171C17.0193 23.5162 16.7869 23.7992 16.6496 24.1303C16.5124 24.4615 16.4764 24.8259 16.5463 25.1776C16.6161 25.5292 16.7887 25.8522 17.0422 26.1057C17.2956 26.3592 17.6186 26.5319 17.9701 26.6019C18.3217 26.6718 18.6862 26.636 19.0174 26.4988C19.3486 26.3617 19.6317 26.1294 19.8309 25.8313C20.03 25.5332 20.1364 25.1828 20.1364 24.8243C20.1365 24.3434 19.9458 23.8821 19.606 23.5418C19.2663 23.2015 18.8054 23.0099 18.3245 23.0092V23.0119Z" fill="white"/>
<path d="M22.2555 32.9189C21.798 32.9189 21.3507 32.7832 20.9702 32.529C20.5898 32.2748 20.2932 31.9135 20.1181 31.4907C19.943 31.068 19.8972 30.6028 19.9865 30.154C20.0757 29.7053 20.2961 29.293 20.6196 28.9695C20.9432 28.6459 21.3554 28.4256 21.8042 28.3363C22.253 28.2471 22.7181 28.2929 23.1409 28.468C23.5636 28.6431 23.9249 28.9396 24.1792 29.3201C24.4334 29.7005 24.569 30.1478 24.569 30.6054C24.5683 31.2187 24.3244 31.8068 23.8906 32.2405C23.4569 32.6742 22.8689 32.9182 22.2555 32.9189ZM22.2555 29.373C22.0118 29.373 21.7735 29.4452 21.5708 29.5807C21.3682 29.7161 21.2102 29.9086 21.1169 30.1338C21.0236 30.359 20.9992 30.6068 21.0468 30.8458C21.0943 31.0849 21.2117 31.3045 21.3841 31.4768C21.5564 31.6492 21.776 31.7666 22.0151 31.8141C22.2542 31.8617 22.502 31.8373 22.7272 31.744C22.9524 31.6507 23.1448 31.4928 23.2803 31.2901C23.4157 31.0874 23.488 30.8491 23.488 30.6054C23.4881 30.2783 23.3584 29.9646 23.1273 29.7332C22.8961 29.5018 22.5826 29.3716 22.2555 29.3713V29.373Z" fill="white"/>
</svg>
