<svg width="40" height="40" viewBox="0 0 40 40" fill="none" xmlns="http://www.w3.org/2000/svg">
<g clip-path="url(#clip0)">
<mask id="path-1-outside-1" maskUnits="userSpaceOnUse" x="0" y="11.6129" width="31" height="29" fill="black">
<rect fill="white" y="11.6129" width="31" height="29"/>
<path d="M26.8064 27.6405V23.2258H28.0968V21.9355H20.3548V23.2258H21.6452V27.6405C21.2063 27.8324 20.8072 28.0825 20.4298 28.3594L16.4839 21.1259V18.0645H17.7742V16.7742H16.4839V14.8387C16.4839 14.4827 16.1956 14.1936 15.8387 14.1936H15.1935V13.2581C15.1935 12.9021 14.9053 12.6129 14.5484 12.6129H10.6774C10.3205 12.6129 10.0323 12.9021 10.0323 13.2581V14.1936H9.3871C9.03018 14.1936 8.74194 14.4827 8.74194 14.8387V16.7742H7.45161V18.0645H8.74194V21.1259L1.39346 34.5974C1.13609 35.0696 1 35.6039 1 36.142V36.7742C1 38.5528 2.4472 40 4.22581 40H21C21.4574 40 21.9063 39.8979 22.3199 39.7124C22.9226 39.8986 23.5627 40 24.2258 40C27.7833 40 30.6774 37.1059 30.6774 33.5484C30.6774 30.9788 29.1395 28.6599 26.8064 27.6405ZM25.5161 23.2258V24.5161H22.9355V23.2258H25.5161ZM22.5058 28.6876C22.7632 28.5963 22.9355 28.3528 22.9355 28.0793V25.8065H25.5161V28.0793C25.5161 28.3528 25.6884 28.5963 25.9458 28.6876C27.5871 29.2692 28.7851 30.6329 29.2091 32.2644C28.718 32.2814 28.2574 32.4754 27.9078 32.8251L27.3735 33.3594C27.2528 33.4794 27.0871 33.5484 26.9173 33.5484H26.6956C26.5258 33.5484 26.3594 33.4794 26.2394 33.3594L25.7051 32.8251C25.34 32.4594 24.8536 32.2581 24.3367 32.2581H24.1149C23.598 32.2581 23.1116 32.4594 22.7465 32.8251L22.2122 33.3594C22.0915 33.4794 21.9258 33.5484 21.756 33.5484H21.5343C21.3645 33.5484 21.1981 33.4794 21.0781 33.3594L20.5438 32.8251C20.1948 32.4754 19.7342 32.282 19.2425 32.2644C19.6665 30.6329 20.8645 29.2685 22.5058 28.6876ZM11.3226 13.9032H13.9032V14.1936H11.3226V13.9032ZM10.0323 15.4839H15.1935V16.7742H10.0323V15.4839ZM9.9535 21.5994C10.0052 21.5045 10.0323 21.3981 10.0323 21.2903V18.0645H15.1935V21.2903C15.1935 21.3981 15.2206 21.5045 15.2723 21.5994L17.5723 25.8156C17.0903 25.838 16.6389 26.0298 16.2949 26.3735L15.7606 26.9078C15.6399 27.0278 15.4742 27.0968 15.3044 27.0968H15.0827C14.9129 27.0968 14.7465 27.0278 14.6265 26.9078L14.0922 26.3735C13.7271 26.0078 13.2407 25.8065 12.7238 25.8065H12.502C11.9851 25.8065 11.4987 26.0078 11.1336 26.3735L10.5993 26.9078C10.4786 27.0278 10.3129 27.0968 10.1431 27.0968H9.92137C9.75157 27.0968 9.58524 27.0278 9.46522 26.9078L8.93095 26.3735C8.58789 26.0298 8.13552 25.838 7.65354 25.8156L9.9535 21.5994ZM4.22581 38.7097C3.15883 38.7097 2.29032 37.8412 2.29032 36.7742V36.142C2.29032 35.8194 2.37223 35.4981 2.52659 35.2149L6.95483 27.0968H7.5625C7.7323 27.0968 7.89863 27.1658 8.01865 27.2858L8.55292 27.8201C8.91803 28.1858 9.40442 28.3871 9.92137 28.3871H10.1431C10.6601 28.3871 11.1465 28.1858 11.5116 27.8201L12.0459 27.2858C12.1665 27.1658 12.3322 27.0968 12.502 27.0968H12.7238C12.8936 27.0968 13.0599 27.1658 13.1799 27.2858L13.7142 27.8201C14.0793 28.1858 14.5657 28.3871 15.0827 28.3871H15.3044C15.8214 28.3871 16.3078 28.1858 16.6729 27.8201L17.2072 27.2858C17.3278 27.1658 17.4935 27.0968 17.6633 27.0968H18.271L19.4388 29.2373C18.3942 30.3976 17.7742 31.9213 17.7742 33.5484C17.7742 35.66 18.7986 37.5321 20.3715 38.7097H4.22581ZM24.2258 38.7097C21.3799 38.7097 19.0645 36.3943 19.0645 33.5484H19.1754C19.3452 33.5484 19.5115 33.6174 19.6316 33.7374L20.1658 34.2717C20.5309 34.6374 21.0173 34.8387 21.5343 34.8387H21.756C22.273 34.8387 22.7594 34.6374 23.1245 34.2717L23.6588 33.7374C23.7794 33.6174 23.9451 33.5484 24.1149 33.5484H24.3367C24.5065 33.5484 24.6728 33.6174 24.7928 33.7374L25.3271 34.2717C25.6922 34.6374 26.1786 34.8387 26.6956 34.8387H26.9173C27.4343 34.8387 27.9207 34.6374 28.2858 34.2717L28.8201 33.7374C28.9407 33.6174 29.1064 33.5484 29.2762 33.5484H29.3871C29.3871 36.3943 27.0717 38.7097 24.2258 38.7097Z"/>
</mask>
<path d="M26.8064 27.6405V23.2258H28.0968V21.9355H20.3548V23.2258H21.6452V27.6405C21.2063 27.8324 20.8072 28.0825 20.4298 28.3594L16.4839 21.1259V18.0645H17.7742V16.7742H16.4839V14.8387C16.4839 14.4827 16.1956 14.1936 15.8387 14.1936H15.1935V13.2581C15.1935 12.9021 14.9053 12.6129 14.5484 12.6129H10.6774C10.3205 12.6129 10.0323 12.9021 10.0323 13.2581V14.1936H9.3871C9.03018 14.1936 8.74194 14.4827 8.74194 14.8387V16.7742H7.45161V18.0645H8.74194V21.1259L1.39346 34.5974C1.13609 35.0696 1 35.6039 1 36.142V36.7742C1 38.5528 2.4472 40 4.22581 40H21C21.4574 40 21.9063 39.8979 22.3199 39.7124C22.9226 39.8986 23.5627 40 24.2258 40C27.7833 40 30.6774 37.1059 30.6774 33.5484C30.6774 30.9788 29.1395 28.6599 26.8064 27.6405ZM25.5161 23.2258V24.5161H22.9355V23.2258H25.5161ZM22.5058 28.6876C22.7632 28.5963 22.9355 28.3528 22.9355 28.0793V25.8065H25.5161V28.0793C25.5161 28.3528 25.6884 28.5963 25.9458 28.6876C27.5871 29.2692 28.7851 30.6329 29.2091 32.2644C28.718 32.2814 28.2574 32.4754 27.9078 32.8251L27.3735 33.3594C27.2528 33.4794 27.0871 33.5484 26.9173 33.5484H26.6956C26.5258 33.5484 26.3594 33.4794 26.2394 33.3594L25.7051 32.8251C25.34 32.4594 24.8536 32.2581 24.3367 32.2581H24.1149C23.598 32.2581 23.1116 32.4594 22.7465 32.8251L22.2122 33.3594C22.0915 33.4794 21.9258 33.5484 21.756 33.5484H21.5343C21.3645 33.5484 21.1981 33.4794 21.0781 33.3594L20.5438 32.8251C20.1948 32.4754 19.7342 32.282 19.2425 32.2644C19.6665 30.6329 20.8645 29.2685 22.5058 28.6876ZM11.3226 13.9032H13.9032V14.1936H11.3226V13.9032ZM10.0323 15.4839H15.1935V16.7742H10.0323V15.4839ZM9.9535 21.5994C10.0052 21.5045 10.0323 21.3981 10.0323 21.2903V18.0645H15.1935V21.2903C15.1935 21.3981 15.2206 21.5045 15.2723 21.5994L17.5723 25.8156C17.0903 25.838 16.6389 26.0298 16.2949 26.3735L15.7606 26.9078C15.6399 27.0278 15.4742 27.0968 15.3044 27.0968H15.0827C14.9129 27.0968 14.7465 27.0278 14.6265 26.9078L14.0922 26.3735C13.7271 26.0078 13.2407 25.8065 12.7238 25.8065H12.502C11.9851 25.8065 11.4987 26.0078 11.1336 26.3735L10.5993 26.9078C10.4786 27.0278 10.3129 27.0968 10.1431 27.0968H9.92137C9.75157 27.0968 9.58524 27.0278 9.46522 26.9078L8.93095 26.3735C8.58789 26.0298 8.13552 25.838 7.65354 25.8156L9.9535 21.5994ZM4.22581 38.7097C3.15883 38.7097 2.29032 37.8412 2.29032 36.7742V36.142C2.29032 35.8194 2.37223 35.4981 2.52659 35.2149L6.95483 27.0968H7.5625C7.7323 27.0968 7.89863 27.1658 8.01865 27.2858L8.55292 27.8201C8.91803 28.1858 9.40442 28.3871 9.92137 28.3871H10.1431C10.6601 28.3871 11.1465 28.1858 11.5116 27.8201L12.0459 27.2858C12.1665 27.1658 12.3322 27.0968 12.502 27.0968H12.7238C12.8936 27.0968 13.0599 27.1658 13.1799 27.2858L13.7142 27.8201C14.0793 28.1858 14.5657 28.3871 15.0827 28.3871H15.3044C15.8214 28.3871 16.3078 28.1858 16.6729 27.8201L17.2072 27.2858C17.3278 27.1658 17.4935 27.0968 17.6633 27.0968H18.271L19.4388 29.2373C18.3942 30.3976 17.7742 31.9213 17.7742 33.5484C17.7742 35.66 18.7986 37.5321 20.3715 38.7097H4.22581ZM24.2258 38.7097C21.3799 38.7097 19.0645 36.3943 19.0645 33.5484H19.1754C19.3452 33.5484 19.5115 33.6174 19.6316 33.7374L20.1658 34.2717C20.5309 34.6374 21.0173 34.8387 21.5343 34.8387H21.756C22.273 34.8387 22.7594 34.6374 23.1245 34.2717L23.6588 33.7374C23.7794 33.6174 23.9451 33.5484 24.1149 33.5484H24.3367C24.5065 33.5484 24.6728 33.6174 24.7928 33.7374L25.3271 34.2717C25.6922 34.6374 26.1786 34.8387 26.6956 34.8387H26.9173C27.4343 34.8387 27.9207 34.6374 28.2858 34.2717L28.8201 33.7374C28.9407 33.6174 29.1064 33.5484 29.2762 33.5484H29.3871C29.3871 36.3943 27.0717 38.7097 24.2258 38.7097Z" fill="white"/>
<path d="M26.8064 27.6405V23.2258H28.0968V21.9355H20.3548V23.2258H21.6452V27.6405C21.2063 27.8324 20.8072 28.0825 20.4298 28.3594L16.4839 21.1259V18.0645H17.7742V16.7742H16.4839V14.8387C16.4839 14.4827 16.1956 14.1936 15.8387 14.1936H15.1935V13.2581C15.1935 12.9021 14.9053 12.6129 14.5484 12.6129H10.6774C10.3205 12.6129 10.0323 12.9021 10.0323 13.2581V14.1936H9.3871C9.03018 14.1936 8.74194 14.4827 8.74194 14.8387V16.7742H7.45161V18.0645H8.74194V21.1259L1.39346 34.5974C1.13609 35.0696 1 35.6039 1 36.142V36.7742C1 38.5528 2.4472 40 4.22581 40H21C21.4574 40 21.9063 39.8979 22.3199 39.7124C22.9226 39.8986 23.5627 40 24.2258 40C27.7833 40 30.6774 37.1059 30.6774 33.5484C30.6774 30.9788 29.1395 28.6599 26.8064 27.6405ZM25.5161 23.2258V24.5161H22.9355V23.2258H25.5161ZM22.5058 28.6876C22.7632 28.5963 22.9355 28.3528 22.9355 28.0793V25.8065H25.5161V28.0793C25.5161 28.3528 25.6884 28.5963 25.9458 28.6876C27.5871 29.2692 28.7851 30.6329 29.2091 32.2644C28.718 32.2814 28.2574 32.4754 27.9078 32.8251L27.3735 33.3594C27.2528 33.4794 27.0871 33.5484 26.9173 33.5484H26.6956C26.5258 33.5484 26.3594 33.4794 26.2394 33.3594L25.7051 32.8251C25.34 32.4594 24.8536 32.2581 24.3367 32.2581H24.1149C23.598 32.2581 23.1116 32.4594 22.7465 32.8251L22.2122 33.3594C22.0915 33.4794 21.9258 33.5484 21.756 33.5484H21.5343C21.3645 33.5484 21.1981 33.4794 21.0781 33.3594L20.5438 32.8251C20.1948 32.4754 19.7342 32.282 19.2425 32.2644C19.6665 30.6329 20.8645 29.2685 22.5058 28.6876ZM11.3226 13.9032H13.9032V14.1936H11.3226V13.9032ZM10.0323 15.4839H15.1935V16.7742H10.0323V15.4839ZM9.9535 21.5994C10.0052 21.5045 10.0323 21.3981 10.0323 21.2903V18.0645H15.1935V21.2903C15.1935 21.3981 15.2206 21.5045 15.2723 21.5994L17.5723 25.8156C17.0903 25.838 16.6389 26.0298 16.2949 26.3735L15.7606 26.9078C15.6399 27.0278 15.4742 27.0968 15.3044 27.0968H15.0827C14.9129 27.0968 14.7465 27.0278 14.6265 26.9078L14.0922 26.3735C13.7271 26.0078 13.2407 25.8065 12.7238 25.8065H12.502C11.9851 25.8065 11.4987 26.0078 11.1336 26.3735L10.5993 26.9078C10.4786 27.0278 10.3129 27.0968 10.1431 27.0968H9.92137C9.75157 27.0968 9.58524 27.0278 9.46522 26.9078L8.93095 26.3735C8.58789 26.0298 8.13552 25.838 7.65354 25.8156L9.9535 21.5994ZM4.22581 38.7097C3.15883 38.7097 2.29032 37.8412 2.29032 36.7742V36.142C2.29032 35.8194 2.37223 35.4981 2.52659 35.2149L6.95483 27.0968H7.5625C7.7323 27.0968 7.89863 27.1658 8.01865 27.2858L8.55292 27.8201C8.91803 28.1858 9.40442 28.3871 9.92137 28.3871H10.1431C10.6601 28.3871 11.1465 28.1858 11.5116 27.8201L12.0459 27.2858C12.1665 27.1658 12.3322 27.0968 12.502 27.0968H12.7238C12.8936 27.0968 13.0599 27.1658 13.1799 27.2858L13.7142 27.8201C14.0793 28.1858 14.5657 28.3871 15.0827 28.3871H15.3044C15.8214 28.3871 16.3078 28.1858 16.6729 27.8201L17.2072 27.2858C17.3278 27.1658 17.4935 27.0968 17.6633 27.0968H18.271L19.4388 29.2373C18.3942 30.3976 17.7742 31.9213 17.7742 33.5484C17.7742 35.66 18.7986 37.5321 20.3715 38.7097H4.22581ZM24.2258 38.7097C21.3799 38.7097 19.0645 36.3943 19.0645 33.5484H19.1754C19.3452 33.5484 19.5115 33.6174 19.6316 33.7374L20.1658 34.2717C20.5309 34.6374 21.0173 34.8387 21.5343 34.8387H21.756C22.273 34.8387 22.7594 34.6374 23.1245 34.2717L23.6588 33.7374C23.7794 33.6174 23.9451 33.5484 24.1149 33.5484H24.3367C24.5065 33.5484 24.6728 33.6174 24.7928 33.7374L25.3271 34.2717C25.6922 34.6374 26.1786 34.8387 26.6956 34.8387H26.9173C27.4343 34.8387 27.9207 34.6374 28.2858 34.2717L28.8201 33.7374C28.9407 33.6174 29.1064 33.5484 29.2762 33.5484H29.3871C29.3871 36.3943 27.0717 38.7097 24.2258 38.7097Z" stroke="white" stroke-width="0.24" mask="url(#path-1-outside-1)"/>
<path d="M7.93548 32.94C6.83537 32.94 5.94 33.8354 5.94 34.9355C5.94 36.0356 6.83537 36.931 7.93548 36.931C9.03559 36.931 9.93097 36.0356 9.93097 34.9355C9.93097 33.8354 9.03559 32.94 7.93548 32.94ZM7.93548 35.5206C7.61269 35.5206 7.35032 35.2577 7.35032 34.9355C7.35032 34.6132 7.61269 34.3503 7.93548 34.3503C8.25828 34.3503 8.52064 34.6132 8.52064 34.9355C8.52064 35.2577 8.25828 35.5206 7.93548 35.5206Z" fill="white" stroke="white" stroke-width="0.12"/>
<path d="M14.1935 29.6214C13.0956 29.6214 12.2021 30.515 12.2021 31.6129C12.2021 32.7108 13.0956 33.6044 14.1935 33.6044C15.2914 33.6044 16.185 32.7108 16.185 31.6129C16.185 30.515 15.2914 29.6214 14.1935 29.6214ZM14.1935 32.2021C13.8685 32.2021 13.6044 31.9374 13.6044 31.6129C13.6044 31.2885 13.8685 31.0238 14.1935 31.0238C14.5185 31.0238 14.7827 31.2885 14.7827 31.6129C14.7827 31.9374 14.5185 32.2021 14.1935 32.2021Z" fill="white" stroke="white" stroke-width="0.112"/>
<path d="M8 29.875H7.875V30V31.2903V31.4153H8H9.29032H9.41532V31.2903V30V29.875H9.29032H8Z" fill="white" stroke="white" stroke-width="0.25"/>
<path d="M39.3548 8.90729H30.3225C29.8965 8.90729 29.5524 9.25256 29.5524 9.67745V12.2581C29.5524 12.683 29.8965 13.0283 30.3225 13.0283H30.8427V36.1291C30.8427 38.333 32.6347 40.125 34.8387 40.125C37.0426 40.125 38.8346 38.333 38.8346 36.1291V13.0283H39.3548C39.7809 13.0283 40.1249 12.683 40.1249 12.2581V9.67745C40.1249 9.25256 39.7809 8.90729 39.3548 8.90729ZM34.8387 38.5847C33.4844 38.5847 32.383 37.4833 32.383 36.1291V22.0605H37.2943V36.1291C37.2943 37.4833 36.1929 38.5847 34.8387 38.5847ZM37.2943 20.5202H32.383V13.0283H37.2943V20.5202ZM38.5846 11.4879H31.0927V10.4476H38.5846V11.4879Z" fill="white" stroke="white" stroke-width="0.25"/>
<path d="M33.5483 35.3589H33.4233V35.4839V36.7742V36.8992H33.5483H34.8387H34.9637V36.7742V35.4839V35.3589H34.8387H33.5483Z" fill="white" stroke="white" stroke-width="0.25"/>
<path d="M35 29.94H34.94V30V31.2903V31.3503H35H36.2903H36.3503V31.2903V30V29.94H36.2903H35Z" fill="white" stroke="white" stroke-width="0.12"/>
<path d="M33.5483 25.1013H33.4883V25.1613V26.4516V26.5116H33.5483H34.8387H34.8987V26.4516V25.1613V25.1013H34.8387H33.5483Z" fill="white" stroke="white" stroke-width="0.12"/>
<path d="M11.8913 6.6875H13.6576V10.5V10.625H13.7826H15.0435H15.1685V10.5V6.6875H21.2228V21V21.125H21.3478H22.6087H22.7337V21V6.6875H24.5C24.7741 6.6875 25.0054 6.92148 25.0054 7.21875V21V21.125H25.1304H26.3913H26.5163V21V7.21875C26.5163 6.06918 25.6163 5.125 24.5 5.125H22.7337V4.59375C22.7337 4.29648 22.9651 4.0625 23.2391 4.0625H30.8043C31.0784 4.0625 31.3098 4.29648 31.3098 4.59375V7.875V8H31.4348H32.6957H32.8207V7.875V4.59375C32.8207 3.44418 31.9207 2.5 30.8043 2.5H23.2391C22.1228 2.5 21.2228 3.44418 21.2228 4.59375V5.125H15.1685V1.96875C15.1685 1.67148 15.3999 1.4375 15.6739 1.4375H37.1087C37.3828 1.4375 37.6141 1.67148 37.6141 1.96875V7.875V8H37.7391H39H39.125V7.875V1.96875C39.125 0.819178 38.225 -0.125 37.1087 -0.125H15.6739C14.5576 -0.125 13.6576 0.819178 13.6576 1.96875V5.125H11.8913C10.775 5.125 9.875 6.06918 9.875 7.21875V10.5V10.625H10H11.2609H11.3859V10.5V7.21875C11.3859 6.92148 11.6173 6.6875 11.8913 6.6875Z" fill="white" stroke="white" stroke-width="0.25"/>
<path d="M3 6.125C4.17177 6.125 5.125 5.17177 5.125 4C5.125 2.82823 4.17177 1.875 3 1.875C1.82823 1.875 0.875 2.82823 0.875 4C0.875 5.17177 1.82823 6.125 3 6.125ZM3 2.925C3.59249 2.925 4.075 3.40751 4.075 4C4.075 4.59249 3.59249 5.075 3 5.075C2.40751 5.075 1.925 4.59249 1.925 4C1.925 3.40751 2.40751 2.925 3 2.925Z" fill="white" stroke="white" stroke-width="0.25"/>
<path d="M5.5 11.125C4.60369 11.125 3.875 10.3963 3.875 9.5C3.875 8.60369 4.60369 7.875 5.5 7.875C6.39631 7.875 7.125 8.60369 7.125 9.5C7.125 10.3963 6.39631 11.125 5.5 11.125ZM5.5 8.875C5.1554 8.875 4.875 9.1554 4.875 9.5C4.875 9.8446 5.1554 10.125 5.5 10.125C5.8446 10.125 6.125 9.8446 6.125 9.5C6.125 9.1554 5.8446 8.875 5.5 8.875Z" fill="white" stroke="white" stroke-width="0.25"/>
</g>
<defs>
<clipPath id="clip0">
<rect width="40" height="40" fill="white"/>
</clipPath>
</defs>
</svg>
