<svg width="40" height="40" viewBox="0 0 40 40" fill="none" xmlns="http://www.w3.org/2000/svg">
<path d="M39.2184 24.3906C38.7878 24.3906 38.4369 24.7406 38.4369 25.1712C38.4369 25.3799 38.5184 25.5469 38.6652 25.6946C38.8129 25.8423 39.0091 25.8936 39.2178 25.8936H39.2184C39.649 25.8936 39.9991 25.5734 40 25.1425C40 24.7113 39.65 24.3906 39.2184 24.3906Z" fill="white"/>
<path d="M36.0934 24.3881L32.5427 24.386L29.3857 18.9087L32.7524 13.0859C32.8922 12.8439 32.8925 12.5461 32.753 12.3044L29.3973 6.48376L31.7075 2.84087C31.9385 2.47619 31.8304 1.9934 31.4658 1.76238C31.1014 1.53106 30.6186 1.63909 30.3873 2.00378L28.0569 5.66558L21.2769 5.65276C20.9976 5.65276 20.7394 5.80962 20.6 6.05102L17.2308 11.8664L10.9802 11.8512L9.35303 8.87054C9.21631 8.61907 8.95294 8.46435 8.66608 8.46435C8.53638 8.46435 8.40729 8.49761 8.29254 8.56017C8.10944 8.66027 7.97607 8.82537 7.91718 9.02618C7.85797 9.22637 7.88055 9.43725 7.98065 9.62096L9.61365 12.6083L6.40625 18.1567H0.781555C0.349731 18.1567 0 18.5068 0 18.9383C0 19.3698 0.349731 19.7198 0.781555 19.7198H6.4679L9.58008 25.1251L7.66724 27.8827C7.54852 28.0536 7.50305 28.2629 7.53998 28.4677C7.57751 28.6734 7.69226 28.8528 7.86346 28.9715C7.99469 29.0631 8.1485 29.1119 8.30811 29.1119C8.56445 29.1119 8.80524 28.9871 8.95111 28.7768L10.9341 25.9216L17.2281 25.9259L20.376 31.3864L18.4439 34.5022C18.2175 34.8688 18.3307 35.3515 18.6966 35.5783C18.8208 35.6549 18.963 35.6955 19.1077 35.6955C19.3802 35.6955 19.6295 35.5572 19.7726 35.3259L21.7346 32.16L27.9645 32.171L31.3437 38.0325C31.4886 38.2837 31.7511 38.4237 32.0215 38.4237C32.1539 38.4237 32.2882 38.3902 32.4112 38.3194C32.785 38.1036 32.9135 37.6257 32.6978 37.2519L29.3436 31.434L32.5131 25.9491L36.0925 25.9512C36.5231 25.9512 36.8732 25.6012 36.8741 25.1706C36.8741 24.9618 36.7929 24.7656 36.6452 24.6179C36.4981 24.4702 36.3019 24.389 36.0934 24.3881ZM21.727 7.23235L28.027 7.23632L31.1737 12.6941L28.0374 18.1183L21.7374 18.1143L18.591 12.6562L21.727 7.23235ZM17.2122 24.3637L10.9387 24.3597L7.79205 18.9017L10.9457 13.4479L17.2101 13.4518L20.3613 18.9172L17.2122 24.3637ZM28.02 30.5929L21.7203 30.589L18.587 25.1541L21.7365 19.707L28.0444 19.711L31.1737 25.1388L28.02 30.5929Z" fill="white"/>
<path d="M7.17008 7.29401H7.17099C7.30069 7.29401 7.42978 7.25555 7.54361 7.19299C7.72733 7.0929 7.86039 6.92566 7.91959 6.72546C7.97818 6.52466 7.9556 6.31256 7.8555 6.12976C7.71878 5.87799 7.45542 5.72113 7.16947 5.72113C7.03977 5.72113 6.91007 5.75378 6.79593 5.81696C6.61222 5.91644 6.47855 6.08185 6.41996 6.28174C6.36136 6.48254 6.38394 6.6983 6.48404 6.8811C6.62076 7.13287 6.88413 7.29401 7.17008 7.29401Z" fill="white"/>
<path d="M6.9716 30.2563C6.84037 30.1648 6.68626 30.1166 6.52604 30.1166C6.26969 30.1166 6.02983 30.2423 5.88365 30.4526C5.63828 30.8066 5.72587 31.2943 6.07987 31.5405C6.2111 31.6318 6.36521 31.6803 6.52543 31.6803C6.78178 31.6803 7.02165 31.5546 7.16783 31.3443C7.41319 30.9903 7.3256 30.5026 6.9716 30.2563Z" fill="white"/>
<path d="M17.8735 36.9067C17.7493 36.8301 17.6071 36.7896 17.4625 36.7896C17.1896 36.7896 16.9412 36.9281 16.7975 37.1591C16.6873 37.3367 16.6528 37.5467 16.7004 37.7502C16.7483 37.9532 16.8726 38.1259 17.0499 38.2355C17.1741 38.3118 17.3157 38.3527 17.4609 38.3527C17.7338 38.3527 17.9822 38.2141 18.1259 37.9831C18.2361 37.8055 18.2706 37.5961 18.223 37.3929C18.1744 37.1896 18.0508 37.0172 17.8735 36.9067Z" fill="white"/>
<path d="M12.636 7.28058C12.7349 7.33795 12.8497 7.36664 12.9904 7.36664C13.1259 7.36664 13.2522 7.33795 13.3535 7.28058C13.4551 7.22321 13.5134 7.14508 13.5134 7.0462V4.79309H15.2328V7.0462C15.2328 7.14508 15.2923 7.22321 15.3915 7.28058C15.4904 7.33795 15.6152 7.36664 15.7559 7.36664C15.8914 7.36664 16.0024 7.33795 16.1041 7.28058C16.2057 7.22321 16.2487 7.14508 16.2487 7.0462V1.96381C16.2487 1.85974 16.2094 1.78131 16.1105 1.72913C16.0113 1.67725 15.8965 1.651 15.7559 1.651C15.6152 1.651 15.4876 1.67725 15.389 1.72913C15.2899 1.78131 15.2328 1.85974 15.2328 1.96381V4.01154H13.5137V1.96381C13.5137 1.85974 13.4539 1.78131 13.355 1.72913C13.2562 1.67725 13.131 1.651 12.9904 1.651C12.8497 1.651 12.7374 1.67725 12.6385 1.72913C12.5393 1.78131 12.4978 1.85974 12.4978 1.96381V7.0459C12.4975 7.14508 12.5369 7.22321 12.636 7.28058Z" fill="white"/>
<path d="M37.3726 15.5685C37.2734 15.5164 37.1611 15.4901 37.0204 15.4901C36.8797 15.4901 36.7485 15.5164 36.6496 15.5685C36.5504 15.6204 36.4897 15.6989 36.4897 15.8029V17.8439H34.7703V15.8029C34.7703 15.6989 34.716 15.6204 34.6171 15.5685C34.5179 15.5164 34.3956 15.4901 34.2549 15.4901C34.1142 15.4901 33.9982 15.5164 33.899 15.5685C33.8002 15.6204 33.7544 15.6989 33.7544 15.8029V20.885C33.7544 20.9842 33.799 21.0623 33.8978 21.1197C33.997 21.1771 34.1142 21.2057 34.2552 21.2057C34.3904 21.2057 34.5128 21.1771 34.6144 21.1197C34.716 21.0623 34.7703 20.9842 34.7703 20.885V18.6255H36.4897V20.8853C36.4897 20.9842 36.5544 21.0623 36.6533 21.1197C36.7524 21.1771 36.8797 21.2057 37.0207 21.2057C37.1559 21.2057 37.2633 21.1771 37.3646 21.1197C37.4662 21.0623 37.5056 20.9842 37.5056 20.8853V15.8029C37.5056 15.6989 37.4714 15.6204 37.3726 15.5685Z" fill="white"/>
<path d="M3.61737 22.8711C3.75806 22.8711 3.87494 22.8906 3.97931 22.9297C4.08368 22.9688 4.15906 23.0157 4.21124 23.0704C4.26343 23.1253 4.30493 23.1931 4.33911 23.2739C4.37268 23.3548 4.39313 23.4198 4.40076 23.4692C4.40869 23.519 4.41479 23.5776 4.41998 23.6453C4.42517 23.8589 4.59454 23.9658 4.9281 23.9658C5.1106 23.9658 5.24091 23.9307 5.31903 23.8602C5.39716 23.7897 5.43622 23.6581 5.43622 23.4653C5.43622 23.0173 5.26288 22.6575 4.9162 22.3865C4.56952 22.1155 4.12274 21.9797 3.57526 21.9797C3.03845 21.9797 2.61395 22.1246 2.2804 22.4136C1.94684 22.7029 1.79089 23.1552 1.79089 23.7701V25.9518C1.79089 26.5668 1.94562 27.019 2.27673 27.3083C2.60754 27.5974 3.03601 27.7423 3.57312 27.7423C4.12549 27.7423 4.57227 27.6013 4.91895 27.3199C5.26562 27.0386 5.43774 26.6632 5.43774 26.1942C5.43774 26.0013 5.39655 25.8698 5.31567 25.7993C5.2348 25.7291 5.10297 25.6937 4.92047 25.6937C4.60248 25.6937 4.43555 25.8005 4.41998 26.0141C4.41479 26.1237 4.40289 26.2164 4.38489 26.2918C4.36658 26.3675 4.3324 26.4536 4.28296 26.55C4.23352 26.6464 4.15265 26.7206 4.04065 26.7728C3.92865 26.825 3.79987 26.8509 3.63293 26.8509C3.07507 26.8509 2.80713 26.5512 2.80713 25.9518V23.7704C2.80682 23.1711 3.06989 22.8711 3.61737 22.8711Z" fill="white"/>
</svg>
