<svg width="40" height="40" viewBox="0 0 40 40" fill="none" xmlns="http://www.w3.org/2000/svg">
<path d="M34.0169 34.6555L25.5584 14.0381C25.0893 12.8943 24.8513 11.6876 24.8513 10.4514V5.00153C24.8513 4.41467 25.0799 3.86292 25.4949 3.44788C26.0009 2.94189 26.2798 2.26898 26.2798 1.55334V0.78125C26.2798 0.349731 25.9298 0 25.4986 0H14.5907C14.1592 0 13.8094 0.349731 13.8094 0.78125V1.55334C13.8094 2.26898 14.088 2.94189 14.594 3.44788C15.0091 3.86292 15.2376 4.41467 15.2376 5.00183V10.4514C15.2376 11.6876 14.9999 12.8943 14.5306 14.0381L12.2063 19.7034C12.2054 19.7055 12.2045 19.7076 12.2036 19.7098L6.072 34.6555C5.58097 35.8527 5.71799 37.2092 6.43882 38.2837C7.15964 39.3585 8.36234 40 9.65629 40H30.4327C31.7266 40 32.9296 39.3585 33.6504 38.2837C34.3709 37.2089 34.508 35.8527 34.0169 34.6555ZM15.9762 14.631C16.523 13.2983 16.8001 11.8921 16.8001 10.4514V5.00153C16.8001 3.9975 16.4092 3.05328 15.6991 2.34314C15.4903 2.1344 15.3744 1.8573 15.3719 1.5625H24.7173C24.7149 1.8573 24.5989 2.13409 24.3899 2.34314C23.68 3.05328 23.2888 3.99719 23.2888 5.00153V10.451C23.2888 11.8918 23.5662 13.298 24.1128 14.6307L25.9991 19.2285H14.0899L15.9762 14.631ZM32.3525 37.4133C31.9161 38.0643 31.2163 38.4375 30.4327 38.4375H9.65629C8.8729 38.4375 8.17313 38.0643 7.73642 37.4133C7.40714 36.9223 7.28141 36.3528 7.36686 35.7913H8.65409C9.0853 35.7913 9.43534 35.4413 9.43534 35.0101C9.43534 34.5786 9.0853 34.2288 8.65409 34.2288H7.93631L8.83353 32.0413H10.1513C10.5828 32.0413 10.9325 31.6913 10.9325 31.2601C10.9325 30.8286 10.5828 30.4788 10.1513 30.4788H9.47471L10.3719 28.2913H11.7269C12.1584 28.2913 12.5082 27.9413 12.5082 27.5101C12.5082 27.0786 12.1584 26.7288 11.7269 26.7288H11.0131L11.9106 24.5413H13.3022C13.7337 24.5413 14.0835 24.1913 14.0835 23.7601C14.0835 23.3286 13.7337 22.9788 13.3022 22.9788H12.5515L13.449 20.7913H26.6399L32.5713 35.2487C32.8686 35.9735 32.7889 36.7627 32.3525 37.4133Z" fill="white"/>
<path d="M30.1588 34.7043C29.9953 34.3048 29.5393 34.1138 29.1399 34.277C28.7407 34.4406 28.5493 34.8966 28.7126 35.296L28.7169 35.3058C28.8408 35.6082 29.1322 35.7913 29.4401 35.7913C29.5387 35.7913 29.6388 35.7727 29.7359 35.733C30.135 35.5695 30.3264 35.1132 30.1628 34.7141L30.1588 34.7043Z" fill="white"/>
<path d="M29.0547 32.0126L26.2569 25.1932C26.0933 24.794 25.6371 24.603 25.2376 24.7668C24.8384 24.9304 24.6477 25.3869 24.8113 25.7861L27.6091 32.6056C27.733 32.908 28.0245 33.0905 28.3324 33.0905C28.4309 33.0905 28.5313 33.0719 28.6284 33.0319C29.0276 32.8683 29.2186 32.4118 29.0547 32.0126Z" fill="white"/>
</svg>
