<svg width="40" height="40" viewBox="0 0 40 40" fill="none" xmlns="http://www.w3.org/2000/svg">
<path d="M40 16.875C40 15.8566 39.3468 14.9882 38.4375 14.6657V9.70992C39.347 9.3875 40 8.51859 40 7.50008C40 6.20773 38.9486 5.15633 37.6562 5.15633H29.6198C29.2662 5.15633 28.9566 5.39383 28.8652 5.73539L27.7643 9.84375H26.8013C26.4477 9.84375 26.1381 10.0813 26.0466 10.4228L24.9457 14.5312H20.6115L18.2547 5.73531C18.1631 5.39383 17.8536 5.15625 17.5 5.15625H14.2578C13.8263 5.15625 13.4766 5.50602 13.4766 5.9375C13.4766 6.36898 13.8263 6.71875 14.2578 6.71875H16.9005L18.9939 14.5312H16.4062V10.6249C16.4062 9.33258 15.3548 8.28125 14.0625 8.28125C12.7702 8.28125 11.7188 9.33266 11.7188 10.6249V14.5312H9.76562V10.6249C9.76562 9.33258 8.71422 8.28125 7.42188 8.28125C6.12953 8.28125 5.07812 9.33266 5.07812 10.6249V14.5312H3.125V9.0625C3.125 8.63102 2.77523 8.28125 2.34375 8.28125C1.91297 8.28125 1.5625 7.93078 1.5625 7.5C1.5625 7.06922 1.91297 6.71875 2.34375 6.71875H7.22656C7.65805 6.71875 8.00781 6.36898 8.00781 5.9375C8.00781 5.50602 7.65805 5.15625 7.22656 5.15625H2.34375C1.05141 5.15625 0 6.20766 0 7.5C0 8.51859 0.653047 9.38742 1.5625 9.70984V14.6656C0.653203 14.9881 0 15.8565 0 16.875C0 17.8936 0.653047 18.7624 1.5625 19.0849V24.0407C0.653203 24.3631 0 25.2315 0 26.25C0 27.2686 0.653047 28.1374 1.5625 28.4598V33.2812H0.78125C0.349766 33.2812 0 33.631 0 34.0625C0 34.494 0.349766 34.8438 0.78125 34.8438H39.2188C39.6502 34.8438 40 34.494 40 34.0625C40 33.631 39.6502 33.2812 39.2188 33.2812H38.4375V28.4598C39.347 28.1374 40 27.2685 40 26.25C40 25.2316 39.3468 24.3632 38.4375 24.0407V19.0849C39.347 18.7624 40 17.8935 40 16.875ZM37.6562 17.6562C37.2248 17.6562 36.875 18.006 36.875 18.4375V23.9062H34.9219V19.9999C34.9219 18.7076 33.8705 17.6562 32.5781 17.6562C31.2858 17.6562 30.2344 18.7077 30.2344 19.9999V23.9062H25.4674L23.3741 16.0938H37.6562C38.087 16.0938 38.4375 16.4442 38.4375 16.875C38.4375 17.3058 38.087 17.6562 37.6562 17.6562ZM33.3594 23.9062H31.7969V19.9999C31.7969 19.5691 32.1473 19.2188 32.5781 19.2188C33.0089 19.2188 33.3594 19.5691 33.3594 19.9999V23.9062ZM33.3594 14.5312H31.7969V10.6249C31.7969 10.1941 32.1473 9.84375 32.5781 9.84375C33.0089 9.84375 33.3594 10.1941 33.3594 10.6249V14.5312ZM27.4007 11.4062H28.3638C28.7173 11.4062 29.0269 11.1687 29.1184 10.8272L30.2193 6.71875H37.6562C38.087 6.71875 38.4375 7.06922 38.4375 7.5C38.4375 7.93078 38.087 8.28125 37.6562 8.28125C37.2248 8.28125 36.875 8.63102 36.875 9.0625V14.5312H34.9219V10.6249C34.9219 9.33258 33.8705 8.28125 32.5781 8.28125C31.2858 8.28125 30.2344 9.33266 30.2344 10.6249V14.5312H26.5634L27.4007 11.4062ZM13.2812 10.6249C13.2812 10.1941 13.6317 9.84375 14.0625 9.84375C14.4933 9.84375 14.8438 10.1941 14.8438 10.6249V14.5312H13.2812V10.6249ZM6.64062 10.6249C6.64062 10.1941 6.99109 9.84375 7.42188 9.84375C7.85266 9.84375 8.20312 10.1941 8.20312 10.6249V14.5312H6.64062V10.6249ZM2.34375 16.0938H21.7565L23.8498 23.9062H16.4062V19.9999C16.4062 18.7076 15.3548 17.6562 14.0625 17.6562C12.7702 17.6562 11.7188 18.7077 11.7188 19.9999V23.9062H9.76562V19.9999C9.76562 18.7076 8.71422 17.6562 7.42188 17.6562C6.12953 17.6562 5.07812 18.7077 5.07812 19.9999V23.9062H3.125V18.4375C3.125 18.006 2.77523 17.6562 2.34375 17.6562C1.91297 17.6562 1.5625 17.3058 1.5625 16.875C1.5625 16.4442 1.91297 16.0938 2.34375 16.0938ZM14.8438 23.9062H13.2812V19.9999C13.2812 19.5691 13.6317 19.2188 14.0625 19.2188C14.4933 19.2188 14.8438 19.5691 14.8438 19.9999V23.9062ZM8.20312 23.9062H6.64062V19.9999C6.64062 19.5691 6.99109 19.2188 7.42188 19.2188C7.85266 19.2188 8.20312 19.5691 8.20312 19.9999V23.9062ZM6.64062 33.2812V29.3749C6.64062 28.9441 6.99109 28.5937 7.42188 28.5937C7.85266 28.5937 8.20312 28.9441 8.20312 29.3749V33.2812H6.64062ZM13.2812 33.2812V29.3749C13.2812 28.9441 13.6317 28.5937 14.0625 28.5937C14.4933 28.5937 14.8438 28.9441 14.8438 29.3749V33.2812H13.2812ZM19.9219 33.2812V29.3749C19.9219 28.9441 20.2723 28.5937 20.7031 28.5937C21.1339 28.5937 21.4844 28.9441 21.4844 29.3749V33.2812H19.9219ZM20.7031 27.0312C19.4108 27.0312 18.3594 28.0826 18.3594 29.3749V33.2812H16.4062V29.3749C16.4062 28.0826 15.3548 27.0312 14.0625 27.0312C12.7702 27.0312 11.7188 28.0826 11.7188 29.3749V33.2812H9.76562V29.3749C9.76562 28.0826 8.71422 27.0312 7.42188 27.0312C6.12953 27.0312 5.07812 28.0826 5.07812 29.3749V33.2812H3.125V27.8125C3.125 27.381 2.77523 27.0312 2.34375 27.0312C1.91297 27.0312 1.5625 26.6808 1.5625 26.25C1.5625 25.8192 1.91297 25.4688 2.34375 25.4688H25.831L27.9243 33.2812H23.0469V29.3749C23.0469 28.0826 21.9955 27.0312 20.7031 27.0312ZM31.7969 33.2812V29.3749C31.7969 28.9441 32.1473 28.5937 32.5781 28.5937C33.0089 28.5937 33.3594 28.9441 33.3594 29.3749V33.2812H31.7969ZM37.6562 27.0312C37.2248 27.0312 36.875 27.3809 36.875 27.8124V33.2812H34.9219V29.3748C34.9219 28.0825 33.8705 27.0311 32.5781 27.0311C31.2858 27.0311 30.2344 28.0825 30.2344 29.3748V33.2812H29.542L27.4487 25.4688H37.6562C38.087 25.4688 38.4375 25.8192 38.4375 26.25C38.4375 26.6808 38.087 27.0312 37.6562 27.0312Z" fill="white"/>
<path d="M10.7425 6.71875C11.174 6.71875 11.5238 6.36898 11.5238 5.9375C11.5238 5.50602 11.174 5.15625 10.7425 5.15625H10.7419C10.3104 5.15625 9.96094 5.50602 9.96094 5.9375C9.96094 6.36898 10.311 6.71875 10.7425 6.71875Z" fill="white"/>
</svg>
