<svg width="40" height="40" viewBox="0 0 40 40" fill="none" xmlns="http://www.w3.org/2000/svg">
<g clip-path="url(#clip0)">
<path d="M11.4569 34.4177C10.9133 34.4177 10.628 33.9913 10.628 33.5696C10.6257 33.36 10.6985 33.1565 10.8331 32.9959C10.9106 32.9072 11.0066 32.8365 11.1144 32.789C11.2222 32.7414 11.3391 32.7181 11.4569 32.7206C12.0005 32.7206 12.2858 33.147 12.2858 33.5688C12.2858 33.9906 12.0005 34.4177 11.4569 34.4177Z" fill="white"/>
<path d="M11.4571 32.9911C10.713 32.9911 10.7115 34.1477 11.4571 34.1477C12.2027 34.1477 12.2019 32.9911 11.4571 32.9911Z" fill="white"/>
<path d="M19.9748 34.4177C19.4312 34.4177 19.1459 33.9913 19.1459 33.5696C19.1437 33.36 19.2164 33.1565 19.351 32.9959C19.4305 32.9097 19.5269 32.8409 19.6343 32.7938C19.7416 32.7467 19.8576 32.7224 19.9748 32.7224C20.092 32.7224 20.208 32.7467 20.3154 32.7938C20.4227 32.8409 20.5192 32.9097 20.5986 32.9959C20.7332 33.1562 20.8059 33.3595 20.8037 33.5688C20.8037 33.989 20.5184 34.4177 19.9748 34.4177Z" fill="white"/>
<path d="M19.975 32.9911C19.2309 32.9911 19.2294 34.1477 19.975 34.1477C20.7207 34.1477 20.7207 32.9911 19.975 32.9911Z" fill="white"/>
<path d="M28.4938 34.4177C27.9502 34.4177 27.6649 33.9913 27.6649 33.5696C27.6649 33.1478 27.9494 32.7214 28.4938 32.7214C29.0382 32.7214 29.3227 33.1478 29.3227 33.5696C29.3227 33.9913 29.0374 34.4177 28.4938 34.4177Z" fill="white"/>
<path d="M28.4935 32.9911C27.7494 32.9911 27.7478 34.1477 28.4935 34.1477C29.2391 34.1477 29.2383 32.9911 28.4935 32.9911Z" fill="white"/>
<path d="M7.35266 40L7.34573 39.9846C5.67559 39.896 4.94264 38.6513 4.95652 37.5391C4.96808 36.4686 5.66249 35.2925 7.20391 35.1268V32.0123C5.66249 31.8513 4.99043 30.706 4.95806 29.6563C4.92646 28.6374 5.53147 27.4875 6.93802 27.2162L2.97116 12.7306C0.857094 12.4085 -0.0523469 10.6975 6.16133e-05 9.20154C0.0586358 7.66397 1.14842 5.97303 3.4097 5.89133H3.42049C4.09371 5.89534 4.75099 6.09655 5.31108 6.4701C5.87118 6.84365 6.30951 7.37315 6.57191 7.99314C6.83431 8.61314 6.90925 9.29644 6.78748 9.95856C6.66572 10.6207 6.35257 11.2326 5.88677 11.7187C6.80336 12.0794 7.7812 12.259 8.76615 12.2474C9.82596 12.2359 10.879 12.076 11.8945 11.7726C14.5827 10.9981 16.6729 8.9526 18.0717 7.37033C16.3276 6.40848 15.832 4.59037 16.1349 3.13141C16.5249 1.2501 18.0347 0 19.9769 0H19.9854C21.9292 0 23.4374 1.2501 23.8274 3.13064C24.1295 4.5896 23.6347 6.41464 21.8906 7.37726C23.2856 8.95954 25.3796 10.9996 28.0679 11.7757C29.0827 12.0784 30.1349 12.2374 31.1939 12.2482C32.1796 12.2596 33.1581 12.08 34.0756 11.7195C33.6099 11.2333 33.2968 10.6213 33.1751 9.95919C33.0534 9.29705 33.1284 8.61376 33.3907 7.99376C33.6531 7.37376 34.0914 6.84421 34.6514 6.47056C35.2114 6.09692 35.8686 5.89555 36.5419 5.89133C37.4141 5.89163 38.2535 6.22348 38.8902 6.81964C39.5269 7.41581 39.9131 8.2317 39.9706 9.10201C40.0281 9.97231 39.7526 10.8319 39.2 11.5067C38.6473 12.1815 37.8589 12.6209 36.9943 12.736L36.4548 14.6967C36.4548 14.7083 36.4494 14.7191 36.4463 14.7306L36.3415 15.1106L33.0274 27.2185C34.4293 27.496 35.0428 28.6466 35.0081 29.6632C34.9727 30.7106 34.2475 31.852 32.7831 32.0131V35.1283C34.3245 35.2963 34.9997 36.4655 35.0097 37.5353C35.0197 38.6482 34.2683 39.8998 32.6004 39.9861L32.5904 40.0015L7.35266 40ZM7.3596 36.8401C7.16541 36.8401 6.97918 36.9172 6.84187 37.0545C6.70456 37.1918 6.62742 37.3781 6.62742 37.5723C6.62742 37.7664 6.70456 37.9527 6.84187 38.09C6.97918 38.2273 7.16541 38.3044 7.3596 38.3044H32.5835C33.0922 38.2274 33.3187 37.9191 33.3187 37.5723C33.3187 37.2254 33.0875 36.8401 32.5843 36.8401H28.074C27.8492 36.8401 27.6336 36.7508 27.4746 36.5918C27.3156 36.4328 27.2263 36.2171 27.2263 35.9923C27.2263 35.7674 27.3156 35.5518 27.4746 35.3928C27.6336 35.2338 27.8492 35.1445 28.074 35.1445H31.0937V32.0617H8.89717V35.1445H24.9943C25.2191 35.1445 25.4348 35.2338 25.5938 35.3928C25.7527 35.5518 25.8421 35.7674 25.8421 35.9923C25.8421 36.2171 25.7527 36.4328 25.5938 36.5918C25.4348 36.7508 25.2191 36.8401 24.9943 36.8401H7.3596ZM7.3596 28.9017C7.16541 28.9017 6.97918 28.9789 6.84187 29.1162C6.70456 29.2535 6.62742 29.4397 6.62742 29.6339C6.62742 29.8281 6.70456 30.0143 6.84187 30.1516C6.97918 30.289 7.16541 30.3661 7.3596 30.3661H32.5897C32.7858 30.3621 32.9725 30.2812 33.1097 30.141C33.2469 30.0008 33.3236 29.8124 33.3234 29.6162C33.3236 29.521 33.3046 29.4268 33.2675 29.3391C33.2304 29.2514 33.176 29.1721 33.1076 29.106C33.0391 29.0391 32.9579 28.9866 32.8688 28.9515C32.7798 28.9164 32.6846 28.8995 32.5889 28.9017H7.3596ZM31.2671 27.2062L34.35 15.9769C33.1861 16.3454 31.9715 16.5287 30.7507 16.5202C29.5108 16.5143 28.2775 16.3387 27.0852 15.9985C24.3291 15.2203 21.8557 13.664 19.9615 11.516C18.5764 13.0391 16.9044 14.274 15.0413 15.1499C14.9292 15.2015 14.8071 15.2278 14.6837 15.227C14.5217 15.2273 14.3631 15.1812 14.2265 15.0942C14.0899 15.0072 13.9811 14.8829 13.913 14.736C13.8659 14.6351 13.8392 14.5258 13.8344 14.4146C13.8296 14.3033 13.8467 14.1922 13.8849 14.0875C13.923 13.9829 13.9814 13.8868 14.0567 13.8047C14.132 13.7227 14.2228 13.6562 14.3238 13.6092C16.2685 12.6938 17.9758 11.3418 19.3126 9.65857L19.3241 9.64393L19.345 9.63391C19.5484 9.44046 19.7634 9.34181 19.9846 9.34181C20.2058 9.34181 20.4324 9.44663 20.6367 9.6501L20.6498 9.6632L20.6606 9.67784C22.3838 11.9481 24.8026 13.5922 27.5476 14.3592C28.5898 14.6566 29.6677 14.8101 30.7515 14.8154C32.2528 14.8154 33.6517 14.5125 34.9133 13.916L35.1338 13.1083C33.9777 13.6586 32.6606 13.9376 31.2124 13.9376C29.9884 13.9289 28.7717 13.7486 27.5977 13.4019C24.2775 12.4447 21.839 9.95761 20.0779 7.86127H19.9816H19.8845C18.1226 9.95607 15.6856 12.4493 12.3638 13.4066C11.1898 13.7544 9.97285 13.936 8.74842 13.9461C7.30025 13.9461 5.98465 13.6617 4.82781 13.1106L5.04438 13.9006C6.36511 14.4808 7.79296 14.7772 9.23551 14.7707C10.0386 14.7689 10.8393 14.6834 11.6247 14.5156H11.634C11.6907 14.5055 11.7482 14.5003 11.8058 14.5002C12.0133 14.5027 12.2126 14.5811 12.366 14.7207C12.5195 14.8603 12.6164 15.0512 12.6386 15.2575C12.6607 15.4637 12.6064 15.6709 12.4861 15.8399C12.3657 16.0088 12.1876 16.1277 11.9854 16.1742H11.9762C11.0755 16.3661 10.1572 16.4637 9.23628 16.4655C8.00369 16.4745 6.77696 16.2952 5.59852 15.9337L8.67289 27.2062H31.2671ZM3.41586 7.5869C2.9551 7.58812 2.51355 7.7717 2.18774 8.09751C1.86193 8.42332 1.67835 8.86486 1.67713 9.32563C1.67834 9.78615 1.8614 10.2275 2.18646 10.5538C2.51152 10.88 2.95227 11.0646 3.41278 11.0674C3.44977 11.0674 3.48985 11.0674 3.5253 11.0674L3.58619 11.0628C3.7079 11.0511 3.82803 11.0266 3.94457 10.9896L3.95305 10.985L3.97154 10.9803C4.92723 10.6428 5.24014 9.77187 5.12761 9.05357C5.02203 8.39229 4.51104 7.61002 3.41586 7.5869ZM34.8031 9.32563C34.8555 10.5249 35.7149 11.062 36.5449 11.062C37.375 11.062 38.2344 10.5225 38.286 9.32563C38.286 8.86377 38.1025 8.42083 37.7759 8.09425C37.4494 7.76767 37.0064 7.5842 36.5446 7.5842C36.0827 7.5842 35.6398 7.76767 35.3132 8.09425C34.9866 8.42083 34.8031 8.86377 34.8031 9.32563ZM19.9754 1.66551C19.3783 1.66551 18.8057 1.9027 18.3835 2.32489C17.9613 2.74708 17.7241 3.31969 17.7241 3.91676C17.7241 4.51383 17.9613 5.08645 18.3835 5.50864C18.8057 5.93083 19.3783 6.16802 19.9754 6.16802C21.5168 6.10173 22.2189 4.95491 22.2189 3.91676C22.2189 2.87861 21.5176 1.73256 19.9754 1.66551Z" fill="white"/>
<path d="M19.9816 25.8297C18.9107 25.8295 17.8836 25.4045 17.1256 24.648C16.3677 23.8914 15.9407 22.8651 15.9385 21.7942C15.9385 19.8505 18.7408 16.0093 19.3026 15.2594C19.3822 15.1549 19.4849 15.0702 19.6026 15.0119C19.7203 14.9536 19.8499 14.9233 19.9812 14.9233C20.1126 14.9233 20.2422 14.9536 20.3599 15.0119C20.4776 15.0702 20.5802 15.1549 20.6599 15.2594C21.2217 16.0093 24.024 19.8497 24.024 21.7942C24.0218 22.865 23.5949 23.8912 22.8371 24.6477C22.0793 25.4042 21.0524 25.8293 19.9816 25.8297ZM19.9816 17.2231C18.7801 18.9688 17.634 20.9819 17.634 21.7942C17.6452 22.4094 17.8974 22.9956 18.3364 23.4267C18.7753 23.8578 19.366 24.0993 19.9812 24.0993C20.5965 24.0993 21.1872 23.8578 21.6261 23.4267C22.0651 22.9956 22.3173 22.4094 22.3284 21.7942C22.3284 20.9819 21.1832 18.9688 19.9816 17.2231Z" fill="white"/>
<path d="M12.5505 25.1561C12.3602 25.1543 12.1754 25.0919 12.023 24.978C11.8706 24.864 11.7584 24.7045 11.7027 24.5226L10.3671 19.3133C10.3379 19.205 10.3305 19.0919 10.3453 18.9807C10.3602 18.8695 10.397 18.7623 10.4535 18.6654C10.5101 18.5685 10.5854 18.4838 10.6749 18.4162C10.7645 18.3486 10.8666 18.2994 10.9753 18.2716C11.0839 18.2438 11.1971 18.2378 11.3081 18.254C11.4191 18.2702 11.5258 18.3082 11.622 18.366C11.7182 18.4238 11.802 18.5 11.8685 18.5904C11.935 18.6808 11.9829 18.7835 12.0094 18.8925L13.3451 24.1018C13.3728 24.2096 13.3789 24.3218 13.3632 24.4321C13.3476 24.5423 13.3103 24.6483 13.2536 24.7442C13.1969 24.84 13.1219 24.9237 13.0329 24.9906C12.9439 25.0574 12.8425 25.1061 12.7347 25.1337C12.6735 25.1492 12.6105 25.157 12.5474 25.1569L12.5505 25.1561Z" fill="white"/>
<path d="M27.4128 25.1569C27.3497 25.157 27.2868 25.1492 27.2255 25.1337C27.1177 25.1061 27.0164 25.0574 26.9273 24.9906C26.8383 24.9237 26.7633 24.84 26.7066 24.7442C26.6499 24.6483 26.6127 24.5423 26.597 24.4321C26.5813 24.3218 26.5874 24.2096 26.6151 24.1017L27.9508 18.8925C27.9784 18.7845 28.027 18.683 28.0939 18.5938C28.1607 18.5046 28.2445 18.4294 28.3404 18.3726C28.4363 18.3158 28.5425 18.2784 28.6528 18.2626C28.7632 18.2468 28.8755 18.2529 28.9835 18.2805C29.0915 18.3082 29.193 18.3568 29.2822 18.4237C29.3714 18.4905 29.4466 18.5743 29.5034 18.6702C29.5602 18.7661 29.5976 18.8722 29.6134 18.9826C29.6292 19.0929 29.6231 19.2053 29.5955 19.3133L28.2598 24.5226C28.2043 24.7047 28.0922 24.8644 27.9397 24.9784C27.7873 25.0925 27.6024 25.155 27.412 25.1569H27.4128Z" fill="white"/>
</g>
<defs>
<clipPath id="clip0">
<rect width="39.9815" height="40" fill="white"/>
</clipPath>
</defs>
</svg>
