<svg width="40" height="31" viewBox="0 0 40 31" fill="none" xmlns="http://www.w3.org/2000/svg">
<g clip-path="url(#clip0)">
<path d="M6.46751 20.02C6.06751 20.02 5.71551 19.7328 5.58751 19.356L1.54111 7.5384C1.49381 7.39751 1.48039 7.24746 1.50193 7.10041C1.52346 6.95337 1.57936 6.81347 1.66507 6.69206C1.75079 6.57066 1.86391 6.47117 1.99527 6.40166C2.12663 6.33215 2.27252 6.29458 2.42111 6.292C2.46605 6.29123 2.51098 6.2939 2.55551 6.3C2.72309 6.31248 2.88411 6.37039 3.02125 6.4675C3.1584 6.56462 3.26649 6.69727 3.33391 6.8512C4.32031 9.0816 5.90031 11.4648 7.39951 11.4648H7.46111C8.40831 11.4224 10.3315 10.3448 12.6075 3.6152C12.67 3.4308 12.7886 3.27061 12.9468 3.15715C13.105 3.04369 13.2948 2.98268 13.4895 2.98268C13.6842 2.98268 13.874 3.04369 14.0322 3.15715C14.1904 3.27061 14.3091 3.4308 14.3715 3.6152C15.3939 6.6368 17.8275 11.4304 20.0051 11.4304H20.0259C20.9595 11.4192 22.8467 10.3904 24.9539 3.6368C25.0119 3.44689 25.1294 3.2806 25.2889 3.16238C25.4485 3.04415 25.6417 2.98023 25.8403 2.98H25.8499C26.0505 2.98025 26.2455 3.04603 26.4052 3.16735C26.5649 3.28866 26.6806 3.45885 26.7347 3.652C27.5859 6.5824 29.7819 11.3048 32.0547 11.5008C32.0987 11.5008 32.1451 11.5064 32.1907 11.5064C33.6003 11.5064 35.2603 9.7024 36.8643 6.4256C36.9413 6.26925 37.0605 6.13751 37.2083 6.04521C37.3561 5.95291 37.5268 5.90373 37.7011 5.9032C37.8236 5.90305 37.9449 5.92725 38.0579 5.9744C38.2762 6.06561 38.4516 6.23627 38.5489 6.45189C38.6462 6.66751 38.658 6.91201 38.5819 7.136L34.4139 19.36C34.2843 19.7368 33.9339 20.024 33.5339 20.024L6.46751 20.02ZM32.8675 18.1L34.8075 12.4264C33.9683 13.0664 33.1123 13.3728 32.2147 13.3728C32.1099 13.3728 32.0027 13.3672 31.8947 13.3576C28.9883 13.1048 26.9491 9.3896 25.8531 6.7288C24.1651 11.1152 22.2603 13.2632 20.0419 13.2888H20.0027C17.0475 13.2888 14.7651 9.3312 13.5187 6.5216C11.7179 10.996 9.75871 13.2224 7.54511 13.3216C7.49871 13.3216 7.45391 13.3216 7.40911 13.3216C6.67551 13.3216 5.95391 13.0904 5.25631 12.6208L7.13071 18.096L32.8675 18.1Z" fill="white"/>
<path d="M6.46722 26.82C5.95362 26.82 5.52002 26.4408 5.52002 25.9272V19.02C5.52002 18.776 5.61695 18.542 5.78948 18.3695C5.96201 18.1969 6.19602 18.1 6.44002 18.1C6.68402 18.1 6.91802 18.1969 7.09056 18.3695C7.26309 18.542 7.36002 18.776 7.36002 19.02V24.9808H32.64V19.02C32.64 18.776 32.7369 18.542 32.9095 18.3695C33.082 18.1969 33.316 18.1 33.56 18.1C33.804 18.1 34.038 18.1969 34.2106 18.3695C34.3831 18.542 34.48 18.776 34.48 19.02V25.9272C34.48 26.4408 34.0464 26.82 33.5328 26.82H6.46722Z" fill="white"/>
<path d="M13.7433 4.84239C13.2645 4.84239 12.7965 4.70041 12.3984 4.43441C12.0003 4.16841 11.69 3.79034 11.5068 3.34799C11.3236 2.90565 11.2756 2.41891 11.369 1.94932C11.4624 1.47973 11.693 1.04838 12.0315 0.70983C12.3701 0.371275 12.8014 0.140717 13.271 0.0473095C13.7406 -0.0460975 14.2274 0.00184235 14.6697 0.185067C15.1121 0.368291 15.4901 0.678571 15.7561 1.07667C16.0221 1.47477 16.1641 1.9428 16.1641 2.42159C16.1633 3.06337 15.9079 3.67862 15.4541 4.13242C15.0003 4.58623 14.3851 4.84154 13.7433 4.84239ZM13.7433 1.86319C13.6326 1.86319 13.5243 1.89604 13.4322 1.95757C13.3401 2.0191 13.2683 2.10656 13.2259 2.20889C13.1836 2.31122 13.1725 2.42381 13.1941 2.53244C13.2157 2.64107 13.269 2.74085 13.3473 2.81917C13.4256 2.89749 13.5254 2.95082 13.6341 2.97243C13.7427 2.99404 13.8553 2.98295 13.9576 2.94057C14.0599 2.89818 14.1474 2.8264 14.2089 2.73431C14.2705 2.64222 14.3033 2.53395 14.3033 2.42319C14.3034 2.34959 14.289 2.27668 14.2609 2.20864C14.2328 2.14061 14.1916 2.07878 14.1396 2.0267C14.0876 1.97461 14.0258 1.93329 13.9578 1.9051C13.8898 1.8769 13.8169 1.86239 13.7433 1.86239V1.86319Z" fill="white"/>
<path d="M25.6608 4.84239C25.182 4.84271 24.7138 4.70102 24.3155 4.43525C23.9172 4.16948 23.6067 3.79156 23.4232 3.34929C23.2397 2.90702 23.1915 2.42027 23.2847 1.9506C23.3778 1.48092 23.6082 1.04943 23.9466 0.710679C24.285 0.371933 24.7163 0.141152 25.1859 0.0475244C25.6554 -0.0461028 26.1422 0.00162951 26.5847 0.184684C27.0271 0.367739 27.4054 0.677894 27.6715 1.07592C27.9377 1.47395 28.0799 1.94197 28.08 2.42079C28.0794 3.06243 27.8244 3.67764 27.3709 4.13158C26.9174 4.58551 26.3024 4.84112 25.6608 4.84239ZM25.6608 1.86319C25.5501 1.86319 25.4418 1.89604 25.3497 1.95757C25.2576 2.0191 25.1858 2.10656 25.1434 2.20889C25.1011 2.31122 25.09 2.42382 25.1116 2.53244C25.1332 2.64107 25.1865 2.74086 25.2648 2.81917C25.3431 2.89749 25.4429 2.95083 25.5516 2.97243C25.6602 2.99404 25.7728 2.98295 25.8751 2.94057C25.9774 2.89818 26.0649 2.8264 26.1264 2.73431C26.188 2.64222 26.2208 2.53395 26.2208 2.42319C26.2209 2.34959 26.2065 2.27668 26.1784 2.20865C26.1503 2.14061 26.1091 2.07878 26.0571 2.0267C26.0051 1.97461 25.9433 1.93329 25.8753 1.9051C25.8073 1.87691 25.7344 1.86239 25.6608 1.86239V1.86319Z" fill="white"/>
<path d="M37.5791 7.8216C37.1003 7.8216 36.6323 7.67962 36.2342 7.41362C35.8361 7.14762 35.5258 6.76954 35.3426 6.3272C35.1594 5.88485 35.1114 5.39811 35.2048 4.92852C35.2982 4.45893 35.5288 4.02759 35.8674 3.68903C36.2059 3.35048 36.6373 3.11992 37.1069 3.02651C37.5764 2.9331 38.0632 2.98104 38.5055 3.16427C38.9479 3.34749 39.3259 3.65777 39.5919 4.05587C39.8579 4.45397 39.9999 4.92201 39.9999 5.4008C39.9991 6.04257 39.7438 6.65782 39.29 7.11163C38.8361 7.56543 38.2209 7.82075 37.5791 7.8216ZM37.5791 4.8424C37.4684 4.8424 37.3601 4.87524 37.268 4.93677C37.1759 4.99831 37.1041 5.08577 37.0618 5.18809C37.0194 5.29042 37.0083 5.40302 37.0299 5.51165C37.0515 5.62028 37.1048 5.72006 37.1831 5.79838C37.2615 5.87669 37.3612 5.93003 37.4699 5.95164C37.5785 5.97324 37.6911 5.96215 37.7934 5.91977C37.8958 5.87738 37.9832 5.80561 38.0447 5.71352C38.1063 5.62142 38.1391 5.51315 38.1391 5.4024C38.1391 5.25388 38.0801 5.11144 37.9751 5.00642C37.8701 4.9014 37.7276 4.8424 37.5791 4.8424Z" fill="white"/>
<path d="M2.42098 7.82159C1.94222 7.82143 1.47426 7.67932 1.07627 7.41323C0.678278 7.14713 0.368122 6.769 0.185021 6.32664C0.00191858 5.88428 -0.0459072 5.39757 0.0475902 4.92803C0.141088 4.45849 0.37171 4.02722 0.710296 3.68875C1.04888 3.35027 1.48023 3.1198 1.9498 3.02645C2.41936 2.93311 2.90607 2.9811 3.34836 3.16435C3.79066 3.34759 4.16869 3.65787 4.43465 4.05595C4.70062 4.45404 4.84258 4.92204 4.84258 5.40079C4.84194 6.04277 4.58658 6.65827 4.13256 7.11214C3.67853 7.56601 3.06296 7.82117 2.42098 7.82159ZM2.42098 4.8424C2.31022 4.8424 2.20195 4.87524 2.10986 4.93677C2.01777 4.99831 1.94599 5.08577 1.9036 5.18809C1.86122 5.29042 1.85013 5.40302 1.87174 5.51165C1.89335 5.62027 1.94668 5.72006 2.025 5.79837C2.10332 5.87669 2.2031 5.93003 2.31173 5.95163C2.42036 5.97324 2.53295 5.96215 2.63528 5.91977C2.73761 5.87738 2.82507 5.80561 2.8866 5.71351C2.94813 5.62142 2.98098 5.51315 2.98098 5.40239C2.98098 5.25387 2.92198 5.11144 2.81696 5.00642C2.71194 4.9014 2.5695 4.8424 2.42098 4.8424Z" fill="white"/>
<path d="M6.52953 30.74C6.01593 30.74 5.67993 30.2984 5.67993 29.7848V26.6704C5.67993 26.1568 6.04633 25.7392 6.55993 25.7392C7.07353 25.7392 7.43993 26.16 7.43993 26.6704V28.82H32.6399V26.6704C32.6399 26.1568 33.0863 25.7392 33.5999 25.7392C33.8496 25.7391 34.0895 25.8363 34.2688 26.0101C34.448 26.184 34.5524 26.4208 34.5599 26.6704V29.7856C34.553 30.0384 34.4488 30.2787 34.2691 30.4566C34.0894 30.6346 33.848 30.7363 33.5951 30.7408L6.52953 30.74Z" fill="white"/>
</g>
<defs>
<clipPath id="clip0">
<rect width="40" height="30.74" fill="white"/>
</clipPath>
</defs>
</svg>
