<svg width="40" height="40" viewBox="0 0 40 40" fill="none" xmlns="http://www.w3.org/2000/svg">
<g clip-path="url(#clip0)">
<path d="M23.2479 40C22.7015 39.9977 22.161 39.8869 21.6577 39.674C21.1544 39.4612 20.6985 39.1505 20.3162 38.7601L20.2283 38.7226H19.909L19.8148 38.7641C19.433 39.1541 18.9775 39.4642 18.4747 39.6764C17.9719 39.8886 17.432 39.9986 16.8862 40H4.08383C1.85389 40 0 38.1637 0 35.9513V23.1481C0 20.9278 1.85389 19.1617 4.08383 19.1617H8.998L9.10818 19.0707L9.29661 18.7314L9.3006 18.6052C9.01326 18.042 8.86308 17.4188 8.86228 16.7865V3.98325C8.86228 1.76449 10.6986 1.89846e-05 12.9086 1.89846e-05H25.7086C26.2332 -0.00389932 26.7533 0.0963903 27.2389 0.29507C27.7244 0.493749 28.1656 0.786863 28.537 1.15741C28.9083 1.52795 29.2024 1.96855 29.4022 2.45364C29.6019 2.93873 29.7034 3.45865 29.7006 3.98325V16.7865C29.7096 17.4161 29.5681 18.0389 29.2878 18.6028L29.3014 18.7306L29.5122 19.0763L29.6208 19.1617H36.0503C38.2499 19.1617 39.9992 20.9278 39.9992 23.1481V35.9513C40 38.1637 38.2507 40 36.0511 40H23.2479ZM38.3234 23.1641C38.3234 22.8587 38.2632 22.5562 38.1463 22.2741C38.0294 21.9919 37.8581 21.7355 37.6422 21.5195C37.4262 21.3036 37.1698 21.1323 36.8876 21.0154C36.6055 20.8985 36.303 20.8383 35.9976 20.8383H23.1641C22.5472 20.8383 21.9557 21.0834 21.5195 21.5195C21.0834 21.9557 20.8383 22.5473 20.8383 23.1641V35.9976C20.8383 36.3031 20.8985 36.6055 21.0154 36.8877C21.1322 37.1698 21.3036 37.4262 21.5195 37.6422C21.7355 37.8582 21.9919 38.0295 22.274 38.1463C22.5562 38.2632 22.8587 38.3234 23.1641 38.3234H35.9976C36.303 38.3234 36.6055 38.2632 36.8876 38.1463C37.1698 38.0295 37.4262 37.8582 37.6422 37.6422C37.8581 37.4262 38.0294 37.1698 38.1463 36.8877C38.2632 36.6055 38.3234 36.3031 38.3234 35.9976V23.1641ZM19.1617 23.1641C19.1617 22.5473 18.9166 21.9557 18.4805 21.5195C18.0443 21.0834 17.4528 20.8383 16.8359 20.8383H4.0024C3.38557 20.8383 2.79401 21.0834 2.35784 21.5195C1.92168 21.9557 1.67665 22.5473 1.67665 23.1641V35.9976C1.67665 36.3031 1.7368 36.6055 1.85368 36.8877C1.97056 37.1698 2.14188 37.4262 2.35784 37.6422C2.57381 37.8582 2.8302 38.0295 3.11237 38.1463C3.39454 38.2632 3.69697 38.3234 4.0024 38.3234H16.8359C17.1413 38.3234 17.4438 38.2632 17.726 38.1463C18.0081 38.0295 18.2645 37.8582 18.4805 37.6422C18.6964 37.4262 18.8678 37.1698 18.9846 36.8877C19.1015 36.6055 19.1617 36.3031 19.1617 35.9976V23.1641ZM27.9441 4.00242C27.9441 3.38559 27.6991 2.79402 27.2629 2.35786C26.8268 1.9217 26.2352 1.67667 25.6184 1.67667H12.7848C12.168 1.67667 11.5764 1.9217 11.1403 2.35786C10.7041 2.79402 10.4591 3.38559 10.4591 4.00242V16.836C10.4591 17.4528 10.7041 18.0443 11.1403 18.4805C11.5764 18.9167 12.168 19.1617 12.7848 19.1617H25.6184C26.2352 19.1617 26.8268 18.9167 27.2629 18.4805C27.6991 18.0443 27.9441 17.4528 27.9441 16.836V4.00242Z" fill="white"/>
<path d="M23.2479 39.9202C22.7054 39.9177 22.1689 39.8073 21.6696 39.5953C21.1702 39.3834 20.718 39.0743 20.3393 38.6859L20.2363 38.6427H19.897L19.7884 38.6906C19.4105 39.0779 18.9592 39.3861 18.4609 39.5972C17.9627 39.8083 17.4274 39.9181 16.8862 39.9202H4.08383C3.55997 39.9238 3.04057 39.8238 2.55546 39.6261C2.07035 39.4283 1.62909 39.1366 1.25704 38.7679C0.884976 38.3991 0.589448 37.9604 0.387427 37.477C0.185406 36.9937 0.0808736 36.4752 0.0798341 35.9513V23.1481C0.0797233 22.6231 0.183342 22.1033 0.384739 21.6184C0.586136 21.1335 0.881342 20.6933 1.2534 20.3228C1.62546 19.9524 2.06704 19.6591 2.55277 19.4599C3.0385 19.2606 3.55882 19.1593 4.08383 19.1617H9.00997L9.13852 19.0819L9.33492 18.7386L9.36287 18.598C9.07989 18.0365 8.93561 17.4153 8.94211 16.7865V3.98326C8.93969 3.46091 9.04051 2.94323 9.23878 2.45996C9.43705 1.9767 9.72886 1.53737 10.0974 1.16723C10.466 0.797091 10.9041 0.503431 11.3865 0.303124C11.869 0.102817 12.3862 -0.000187021 12.9086 2.89547e-05H25.7086C26.2326 -0.00197077 26.7519 0.0996294 27.2366 0.298989C27.7213 0.498349 28.1617 0.791536 28.5327 1.1617C28.9037 1.53186 29.1978 1.97169 29.3983 2.45591C29.5987 2.94014 29.7014 3.4592 29.7006 3.98326V16.7865C29.7031 17.4152 29.5547 18.0354 29.2679 18.5948V18.7441L29.485 19.0875L29.6072 19.1625H36.0479C36.5695 19.1632 37.0858 19.2671 37.5672 19.468C38.0486 19.669 38.4854 19.9631 38.8527 20.3335C39.22 20.7039 39.5104 21.1433 39.7073 21.6263C39.9042 22.1093 40.0037 22.6265 40 23.1481V35.9513C40.0025 36.4715 39.9022 36.9872 39.7049 37.4685C39.5076 37.9499 39.2172 38.3875 38.8502 38.7563C38.4833 39.1251 38.0471 39.4177 37.5668 39.6175C37.0864 39.8172 36.5713 39.9201 36.0511 39.9202H23.2479ZM38.4032 23.1242C38.4032 22.4968 38.1539 21.8951 37.7103 21.4514C37.2667 21.0078 36.6649 20.7585 36.0375 20.7585H23.204C22.5766 20.7585 21.9749 21.0078 21.5312 21.4514C21.0876 21.8951 20.8383 22.4968 20.8383 23.1242V35.9577C20.8383 36.5851 21.0876 37.1868 21.5312 37.6305C21.9749 38.0741 22.5766 38.3234 23.204 38.3234H36.0375C36.6649 38.3234 37.2667 38.0741 37.7103 37.6305C38.1539 37.1868 38.4032 36.5851 38.4032 35.9577V23.1242ZM19.2415 23.1242C19.2415 22.4968 18.9923 21.8951 18.5486 21.4514C18.105 21.0078 17.5033 20.7585 16.8758 20.7585H4.04231C3.4149 20.7585 2.81318 21.0078 2.36953 21.4514C1.92588 21.8951 1.67664 22.4968 1.67664 23.1242V35.9577C1.67664 36.5851 1.92588 37.1868 2.36953 37.6305C2.81318 38.0741 3.4149 38.3234 4.04231 38.3234H16.8758C17.5033 38.3234 18.105 38.0741 18.5486 37.6305C18.9923 37.1868 19.2415 36.5851 19.2415 35.9577V23.1242ZM28.0239 3.9625C28.0239 3.33509 27.7747 2.73337 27.3311 2.28972C26.8874 1.84607 26.2857 1.59684 25.6583 1.59684H12.8247C12.1973 1.59684 11.5956 1.84607 11.152 2.28972C10.7083 2.73337 10.4591 3.33509 10.4591 3.9625V16.796C10.4591 17.4235 10.7083 18.0252 11.152 18.4688C11.5956 18.9125 12.1973 19.1617 12.8247 19.1617H25.6583C26.2857 19.1617 26.8874 18.9125 27.3311 18.4688C27.7747 18.0252 28.0239 17.4235 28.0239 16.796V3.9625Z" fill="white"/>
<path d="M23.2479 39.9202C22.7082 39.9175 22.1744 39.8076 21.6775 39.5968C21.1807 39.386 20.7307 39.0785 20.3537 38.6922L20.2411 38.6427H19.8938L19.7812 38.6922C19.4042 39.0786 18.9541 39.3861 18.4571 39.5969C17.9601 39.8078 17.4261 39.9176 16.8862 39.9202H4.08383C1.87544 39.9202 0.079834 38.1397 0.079834 35.9513V23.1481C0.0836382 22.089 0.507267 21.0746 1.25784 20.3273C2.00842 19.58 3.02468 19.1608 4.08383 19.1617H9.01477L9.1521 19.0818L9.3517 18.7385L9.37325 18.5868C9.08684 18.0292 8.93896 17.4109 8.94212 16.784V3.98323C8.93991 3.46094 9.04087 2.94335 9.23922 2.46018C9.43756 1.97701 9.72938 1.53777 10.0979 1.16767C10.4665 0.797575 10.9045 0.503907 11.3868 0.303525C11.8691 0.103144 12.3863 -4.66606e-06 12.9086 1.5831e-10L25.7086 1.5831e-10C26.7649 0.00314515 27.7771 0.423538 28.5248 1.16961C29.2725 1.91568 29.6951 2.92698 29.7006 3.98323V16.7864C29.6994 17.4141 29.5477 18.0323 29.2583 18.5892V18.7489L29.4787 19.0914L29.6072 19.1617H36.0535C38.2308 19.1617 40.0024 20.9517 40.0024 23.1481V35.9513C40.0039 37.0013 39.5886 38.009 38.8478 38.7531C38.107 39.4973 37.1011 39.917 36.0511 39.9202H23.2479ZM38.4032 23.1441C38.4032 22.5114 38.1519 21.9046 37.7045 21.4572C37.2571 21.0098 36.6503 20.7585 36.0176 20.7585H23.224C22.5913 20.7585 21.9845 21.0098 21.5371 21.4572C21.0897 21.9046 20.8383 22.5114 20.8383 23.1441V35.9377C20.8383 36.5704 21.0897 37.1772 21.5371 37.6246C21.9845 38.072 22.5913 38.3234 23.224 38.3234H36.0176C36.6503 38.3234 37.2571 38.072 37.7045 37.6246C38.1519 37.1772 38.4032 36.5704 38.4032 35.9377V23.1441ZM19.2415 23.1441C19.2415 22.8308 19.1798 22.5206 19.0599 22.2312C18.94 21.9417 18.7643 21.6787 18.5428 21.4572C18.3213 21.2357 18.0583 21.06 17.7688 20.9401C17.4794 20.8202 17.1692 20.7585 16.8559 20.7585H4.06227C3.42956 20.7585 2.82277 21.0098 2.37538 21.4572C1.92798 21.9046 1.67664 22.5114 1.67664 23.1441V35.9377C1.67664 36.5704 1.92798 37.1772 2.37538 37.6246C2.82277 38.072 3.42956 38.3234 4.06227 38.3234H16.8559C17.1692 38.3234 17.4794 38.2617 17.7688 38.1418C18.0583 38.0219 18.3213 37.8461 18.5428 37.6246C18.7643 37.4031 18.94 37.1401 19.0599 36.8507C19.1798 36.5612 19.2415 36.251 19.2415 35.9377V23.1441ZM28.024 3.98244C28.024 3.34973 27.7726 2.74293 27.3252 2.29554C26.8778 1.84815 26.271 1.59681 25.6383 1.59681H12.8447C12.212 1.59681 11.6052 1.84815 11.1578 2.29554C10.7104 2.74293 10.4591 3.34973 10.4591 3.98244V16.776C10.4591 17.4088 10.7104 18.0156 11.1578 18.4629C11.6052 18.9103 12.212 19.1617 12.8447 19.1617H25.6383C26.271 19.1617 26.8778 18.9103 27.3252 18.4629C27.7726 18.0156 28.024 17.4088 28.024 16.776V3.98244Z" fill="white"/>
<path d="M6.52836 26.2121H10.7242V26.9347H9.39549C8.05128 26.9347 7.02564 27.0901 7.02564 28.2168C7.02564 28.6364 7.26651 29.087 7.60062 29.5066C8.08236 30.0505 8.44755 30.4312 9.07692 30.4312C9.78399 30.4312 10.9106 30.0194 11.2525 30.0194C11.4157 30.0194 11.4701 30.066 11.4701 30.1748C11.4701 30.6488 10.8485 31.317 9.94716 31.6045C9.58197 31.216 9.09246 31.014 8.54079 31.014C7.75602 31.014 7.6317 31.3481 7.6317 31.5734C7.6317 31.8376 7.76379 32.1406 7.98135 32.4437C8.27661 32.8477 8.61072 32.9876 9.0303 32.9876C9.27117 32.9876 9.50427 32.972 9.70629 32.9332C10.3512 34.4095 11.2991 35 12.4413 35H12.5501L13.0396 33.547C11.9674 33.5392 11.0505 33.3605 10.4911 32.8399L10.4988 32.8089C11.7576 32.4981 12.5268 31.7055 12.5268 30.9207C12.5268 30.54 12.4025 30.1671 12.0995 29.6853C11.7265 29.1026 11.3691 28.7762 10.7475 28.7762C10.0793 28.7762 8.98368 29.1492 8.54856 29.1492C8.31546 29.1492 8.20668 29.0793 8.20668 28.8928C8.20668 28.7218 8.30769 28.5509 8.55633 28.3955C8.8749 28.2323 9.53535 28.1624 10.3823 28.1624H11.8819L12.014 27.9992L11.9984 26.2121H13.4281L13.5369 26.0645L13.0085 25H6.10878L6 25.1476L6.52836 26.2121Z" fill="white"/>
<path d="M16.0656 7.81515C16.8298 7.41899 17.4763 7.2029 18.0137 7.2029C18.6519 7.2029 18.7779 7.4478 18.7779 7.69991C18.7779 8.03845 18.484 8.33377 17.9298 8.52105C17.3252 8.61469 16.7206 8.75875 16.1244 8.93882L16.074 9.07568L16.9221 10.2065C17.5351 9.99766 18.0641 9.86801 18.484 9.86801C19.0634 9.86801 19.3153 10.1057 19.3153 10.4803C19.3153 11.1862 18.4504 11.6471 17.7282 11.6471C16.326 11.6471 15.6122 10.7756 14.6298 9.25575L14.0168 9.6159L14 9.68073C15.2008 11.7264 16.5527 12.9725 18.2573 12.9725C19.542 12.9725 20.474 12.2162 20.474 11.2294C20.474 11.0349 20.4489 10.8692 20.4069 10.7036L20.474 10.6819C20.8015 10.862 21.2885 10.9845 21.7336 10.9845C21.8427 10.9845 21.9099 10.9845 22.0191 10.9701L21.9939 13.3687L23.3374 13.7L23.455 13.628L23.4214 7.23891H24.8824L25 7.10206L24.429 6.11525H20.2725L20.155 6.2521L20.726 7.23891H22.0359V9.50065C21.616 9.70954 21.1626 9.8392 20.684 9.8392C20.3313 9.8392 19.9786 9.81759 19.8359 9.68793C19.7183 9.55828 19.6008 9.44303 19.4664 9.34219C19.7519 9.02526 19.9031 8.69392 19.9031 8.37699C19.9031 7.916 19.7351 7.52703 19.3573 7.07325C18.7443 6.33854 18.1565 6 17.174 6C16.5191 6 15.8557 6.22329 15.2427 6.60505L15.2092 6.70589L16.0656 7.81515Z" fill="white"/>
<path d="M25.6201 26.4225H30.4985C30.5167 26.5684 30.5258 26.7325 30.5258 26.8967C30.5258 28.1915 29.8055 28.4195 27.8267 28.8571L27.7356 29.0304L28.7021 30.3982C29.541 30.152 30.1976 30.0243 30.5714 30.0243C31.228 30.0243 31.6383 30.2614 31.6383 30.7629C31.6383 31.7112 30.7264 32.6505 29.5684 32.6505C28.3556 32.6505 27.307 31.465 26.459 29.4498L25.7295 29.8602V29.9878C27.0061 32.9787 28.5927 34.3009 30.0608 34.3009C31.8571 34.3009 32.9331 33.0243 32.9331 31.7751C32.9331 30.9818 32.5866 30.1976 31.6018 29.0486C31.8389 28.6474 31.9939 28.1733 31.9939 27.5805C31.9939 27.3161 31.9483 26.8693 31.8663 26.4225H33.8723L34 26.2492L33.3799 25H25.1277L25 25.1733L25.6201 26.4225Z" fill="white"/>
</g>
<defs>
<clipPath id="clip0">
<rect width="40" height="40" fill="white"/>
</clipPath>
</defs>
</svg>
