<svg width="40" height="40" viewBox="0 0 40 40" fill="none" xmlns="http://www.w3.org/2000/svg">
<g clip-path="url(#clip0)">
<path d="M20.0009 23.3315C19.5409 23.3315 19.1675 23.7049 19.1675 24.1649V35.8329C19.1675 36.2929 19.5409 36.6663 20.0009 36.6663C20.461 36.6663 20.8344 36.2929 20.8344 35.8329V24.1649C20.8344 23.7049 20.461 23.3315 20.0009 23.3315Z" fill="white"/>
<path d="M14.9586 28.072C14.957 28.0686 14.957 28.0653 14.9553 28.062L12.4566 20.5661C12.3482 20.2461 12.0616 20.0227 11.7232 19.9994C11.3981 19.976 11.0697 20.1561 10.9197 20.4578L7.58597 27.1252C7.38095 27.5369 7.54761 28.037 7.95937 28.2437C8.37278 28.4471 8.87284 28.2837 9.07786 27.8703L9.53791 26.9502L13.4834 28.9238L14.2084 31.0974C14.3268 31.4474 14.6519 31.6675 15.0002 31.6675C15.0885 31.6675 15.1752 31.6541 15.2619 31.6225C15.6969 31.4774 15.9336 31.0058 15.7886 30.569L14.9586 28.072ZM10.2847 25.4567L11.5115 23.0014L12.7383 26.6835L10.2847 25.4567Z" fill="white"/>
<path d="M17.0405 18.4175L7.03937 13.4169C6.62768 13.2136 6.12762 13.3786 5.91924 13.7904C5.71585 14.202 5.88087 14.7021 6.29264 14.9088L16.2938 19.9094C16.4154 19.9694 16.5422 19.9978 16.6672 19.9978C16.9722 19.9978 17.2656 19.8294 17.4123 19.5361C17.6173 19.1243 17.4506 18.6243 17.0405 18.4175Z" fill="white"/>
<path d="M32.9643 13.4187L22.9631 18.4192C22.5515 18.6259 22.3847 19.126 22.5897 19.5377C22.7364 19.8294 23.0298 19.9978 23.3348 19.9978C23.4598 19.9978 23.5865 19.9694 23.7082 19.9111L33.7094 14.9106C34.1211 14.7039 34.2878 14.2038 34.0828 13.7921C33.876 13.3787 33.3793 13.2136 32.9643 13.4187Z" fill="white"/>
<path d="M35.5511 8.03468C35.5177 8.00632 35.4777 7.98131 35.4377 7.95803L22.0529 0.49045C21.9979 0.460446 21.9395 0.437084 21.8795 0.420442C20.681 -0.137982 19.3292 -0.141264 18.1274 0.417082C18.0641 0.435443 18.004 0.458727 17.9474 0.49209L4.5625 7.95967C4.52249 7.98131 4.48749 8.00632 4.45249 8.03468C3.24235 8.72976 2.4989 9.9499 2.4989 11.2484V28.7504C2.4989 30.0489 3.24235 31.2674 4.44913 31.9624C4.48249 31.9908 4.52249 32.0158 4.5625 32.0391L17.9474 39.5066C18.0024 39.5366 18.0608 39.56 18.1208 39.5766C18.7208 39.8583 19.3526 40 20.001 40C20.6461 40 21.2745 39.86 21.8728 39.58C21.9362 39.5616 21.9962 39.5383 22.0529 39.5049L35.4378 32.0374C35.4778 32.0158 35.5144 31.9908 35.5494 31.9624C36.7579 31.2674 37.5013 30.0472 37.5013 28.7487V11.2467C37.5029 9.94826 36.7578 8.72976 35.5511 8.03468ZM35.8361 28.7487C35.8361 29.4872 35.3877 30.1655 34.641 30.5639C34.596 30.5873 34.551 30.6156 34.5126 30.6473L21.3661 37.9831C21.3311 37.9948 21.2961 38.0098 21.2611 38.0265C20.4526 38.4332 19.5509 38.4332 18.7441 38.0265C18.7108 38.0115 18.6758 37.9965 18.6408 37.9848L5.4926 30.6473C5.45424 30.6156 5.40924 30.5873 5.36259 30.5623C4.61414 30.1656 4.16581 29.4872 4.16581 28.7487V11.2467C4.16581 10.5082 4.61422 9.82988 5.36095 9.43312C5.40595 9.40976 5.45096 9.38147 5.48932 9.34975L18.6358 2.01391C18.6708 2.00226 18.7058 1.98726 18.7408 1.97054C19.5493 1.56385 20.451 1.56385 21.2578 1.97054C21.2911 1.98554 21.3261 2.00055 21.3612 2.01219L34.5093 9.34803C34.5477 9.37968 34.5927 9.40804 34.6393 9.43304C35.3894 9.82973 35.8361 10.5082 35.8361 11.2466V28.7487Z" fill="white"/>
<path d="M26.3185 10.0533C26.2719 9.03979 25.7001 8.16305 24.7833 7.70463C23.3465 6.98619 21.6113 7.06956 20.2528 7.91966L19.9461 8.10968C19.7961 7.38796 19.3294 6.77953 18.6493 6.43949C17.9309 6.07781 17.0775 6.09609 16.3741 6.48614L11.2685 9.26481C10.9918 9.41483 10.8218 9.7115 10.8334 10.0265C10.8451 10.3416 11.0335 10.625 11.3219 10.755L20.4896 14.9221C20.5996 14.9721 20.7179 14.9971 20.8346 14.9971C20.9896 14.9971 21.143 14.9555 21.278 14.8687L25.0218 12.5301C25.8835 11.9935 26.3668 11.0667 26.3185 10.0533ZM13.5337 9.92989L17.1757 7.94802C17.3974 7.82301 17.6708 7.81465 17.9025 7.93138C18.2709 8.11476 18.3275 8.45308 18.3342 8.59145C18.3392 8.72983 18.3175 9.07151 17.9575 9.29654L15.5572 10.8501L13.5337 9.92989ZM24.1383 11.1167L20.7729 13.2185L17.3841 11.6784L21.1379 9.3331C22.0097 8.78804 23.1198 8.73467 24.0499 9.19973C24.4116 9.37975 24.6366 9.72815 24.6566 10.1315C24.6716 10.535 24.4816 10.9034 24.1383 11.1167Z" fill="white"/>
<path d="M31.6706 25.9534C31.2106 25.9534 30.8372 26.3268 30.8372 26.7868C30.8372 27.4236 30.4838 27.9953 29.9154 28.2787C29.392 28.5387 28.7869 28.512 28.2936 28.2053C27.7902 27.8953 27.5019 27.3768 27.5019 26.7868V24.5582C27.5019 23.6064 28.0303 22.7496 28.8837 22.3229C29.3121 22.1095 29.7871 22.1329 30.1955 22.3829C30.6022 22.6329 30.8355 23.0513 30.8355 23.5297C30.8355 23.9897 31.2089 24.3631 31.669 24.3631C32.129 24.3631 32.5025 23.9897 32.5025 23.5297C32.5025 22.4762 31.969 21.5178 31.0723 20.9644C30.1805 20.411 29.0821 20.3609 28.1386 20.831C26.7168 21.5411 25.835 22.9696 25.835 24.5581V26.7867C25.835 27.9502 26.425 29.0103 27.4151 29.622C27.9536 29.9554 28.5603 30.1237 29.167 30.1237C29.6754 30.1237 30.1855 30.0053 30.6622 29.7687C31.7973 29.2003 32.504 28.0585 32.504 26.7867C32.5041 26.3268 32.1307 25.9534 31.6706 25.9534Z" fill="white"/>
</g>
<defs>
<clipPath id="clip0">
<rect width="40" height="40" fill="white"/>
</clipPath>
</defs>
</svg>
