<svg width="40" height="28" viewBox="0 0 40 28" fill="none" xmlns="http://www.w3.org/2000/svg">
<g clip-path="url(#clip0)">
<path d="M0.908293 27.5361C0.413441 27.5361 0 27.1466 0 26.6837V0.772608C0 0.309682 0.413441 0 0.908293 0H39.1268C39.4461 0 39.7127 0.117328 39.8635 0.356772C39.9422 0.476459 39.9882 0.61461 39.997 0.757544C40.0058 0.900478 39.9771 1.04324 39.9138 1.17168L34.0873 13.4201C34.0393 13.5196 34.0144 13.6288 34.0144 13.7393C34.0144 13.8499 34.0393 13.959 34.0873 14.0586L39.9138 26.3157C39.9778 26.4464 40.0069 26.5914 39.9981 26.7366C39.9893 26.8818 39.9429 27.0223 39.8635 27.1442C39.7845 27.2673 39.6754 27.3682 39.5464 27.4374C39.4175 27.5065 39.2731 27.5416 39.1268 27.5393L0.908293 27.5361ZM2.52774 1.67611C2.10312 1.67611 1.67611 1.99537 1.67611 2.39445V25.0619C1.67611 25.4609 2.10312 25.86 2.52774 25.86H36.5648C36.6926 25.8545 36.8171 25.8177 36.9273 25.7528C37.0375 25.6878 37.13 25.5968 37.1968 25.4876C37.2635 25.3785 37.3023 25.2546 37.3099 25.1269C37.3174 24.9992 37.2934 24.8716 37.24 24.7554L32.1853 14.1081C32.1298 13.9907 32.101 13.8624 32.101 13.7325C32.101 13.6027 32.1298 13.4744 32.1853 13.357L37.2408 2.7137C37.2951 2.60236 37.3196 2.47888 37.312 2.35525C37.3045 2.23163 37.2651 2.11205 37.1977 2.00814C37.1289 1.90374 37.0348 1.8185 36.9241 1.76043C36.8134 1.70236 36.6898 1.67334 36.5648 1.67611H2.52774Z" fill="white"/>
<path d="M0.908312 27.4563C0.450175 27.4563 0.079834 27.1426 0.079834 26.6837V0.772612C0.079834 0.313677 0.450175 4.64387e-06 0.908312 4.64387e-06H39.1268C39.265 -0.00675994 39.4025 0.0226663 39.5258 0.0853708C39.649 0.148075 39.7538 0.241884 39.8297 0.357512C39.9055 0.47314 39.9499 0.606578 39.9584 0.74462C39.9668 0.882661 39.9391 1.02052 39.8779 1.14455L34.0514 13.3977C34.0013 13.5026 33.9752 13.6174 33.9752 13.7337C33.9752 13.85 34.0013 13.9648 34.0514 14.0698L39.8779 26.3285C39.9386 26.4498 39.9661 26.5851 39.9577 26.7205C39.9493 26.8559 39.9053 26.9866 39.83 27.0995C39.7537 27.2148 39.6488 27.3083 39.5256 27.3708C39.4023 27.4333 39.2649 27.4628 39.1268 27.4563H0.908312ZM2.52775 1.5963C2.09276 1.5963 1.67613 1.95706 1.67613 2.39445V25.0619C1.67613 25.4968 2.09276 25.86 2.52775 25.86H36.5648C36.6977 25.8585 36.8282 25.8237 36.9441 25.7586C37.0601 25.6936 37.1578 25.6004 37.2284 25.4878C37.299 25.3751 37.3401 25.2465 37.348 25.1138C37.3559 24.981 37.3303 24.8485 37.2735 24.7282L32.2221 14.0857C32.1689 13.9742 32.1413 13.8521 32.1413 13.7285C32.1413 13.605 32.1689 13.4829 32.2221 13.3714L37.2735 2.73047C37.3306 2.6101 37.3564 2.47733 37.3487 2.34436C37.341 2.21139 37.2999 2.0825 37.2294 1.96955C37.1588 1.8566 37.0609 1.76321 36.9448 1.69799C36.8286 1.63276 36.698 1.5978 36.5648 1.5963H2.52775Z" fill="white"/>
<path d="M25.0027 19.0758C24.4305 19.0758 24.1471 18.9496 23.9651 18.6096L21.0064 13.2221C20.9753 13.1658 20.9296 13.1188 20.8742 13.0861C20.8187 13.0534 20.7555 13.0361 20.6911 13.0362C20.6641 13.0359 20.6372 13.0397 20.6113 13.0473C20.5353 13.0677 20.4683 13.1131 20.4214 13.1763C20.3744 13.2395 20.3502 13.3167 20.3527 13.3953V18.6879C20.3527 18.9273 19.8858 19.0758 19.4748 19.0758C19.0637 19.0758 18.5968 18.9273 18.5968 18.6879V8.80279C18.5968 8.55058 19.0486 8.41489 19.4628 8.41489C20.2035 8.41489 20.4086 8.41489 20.9402 9.43572L23.4655 14.2462C23.4962 14.3042 23.5422 14.3528 23.5984 14.3866C23.6547 14.4205 23.7191 14.4385 23.7848 14.4385C23.8204 14.4386 23.856 14.4351 23.8909 14.4281C23.9711 14.4098 24.043 14.3658 24.0959 14.3029C24.1488 14.2399 24.1796 14.1615 24.1838 14.0793V8.78683C24.1838 8.54259 24.5973 8.41409 25.0219 8.41409C25.4465 8.41409 25.86 8.5402 25.86 8.78683V18.6839C25.86 18.9265 25.4138 19.0758 25.0027 19.0758Z" fill="white"/>
<path d="M10.9291 19.0757C10.6585 19.0757 10.2163 18.9696 10.2163 18.687V8.80277C10.2163 8.52023 10.6585 8.38055 10.9291 8.38055H16.4706C16.7651 8.38055 16.8433 8.84667 16.8433 9.08372C16.8433 9.43012 16.7124 9.81722 16.4706 9.81722H12.2987C12.0999 9.81722 11.9722 9.97685 11.9722 10.1724V12.8063C11.9722 13.005 12.0999 13.1726 12.2987 13.1726H14.6333C14.9062 13.1726 15.006 13.5095 15.006 13.7473C15.006 13.7529 15.002 14.29 14.6333 14.29H12.2987C12.0999 14.29 11.9722 14.476 11.9722 14.6739V17.3198C11.9697 17.363 11.9765 17.4063 11.9921 17.4466C12.0077 17.487 12.0318 17.5236 12.0627 17.5538C12.0937 17.5841 12.1307 17.6074 12.1714 17.6221C12.2121 17.6368 12.2555 17.6426 12.2987 17.6391H16.4706C16.71 17.6391 16.8433 18.0262 16.8433 18.3726C16.8433 18.612 16.7635 19.0757 16.4706 19.0757H10.9291Z" fill="white"/>
</g>
<defs>
<clipPath id="clip0">
<rect width="40" height="27.5361" fill="white"/>
</clipPath>
</defs>
</svg>
