<svg width="31" height="40" viewBox="0 0 31 40" fill="none" xmlns="http://www.w3.org/2000/svg">
<path d="M29.8468 20.0055C29.6215 20.0056 29.405 19.9181 29.243 19.7614C29.081 19.6048 28.9864 19.3913 28.979 19.1661V15.6497C28.979 15.4195 29.0704 15.1988 29.2332 15.036C29.3959 14.8733 29.6167 14.7818 29.8468 14.7818C30.077 14.7818 30.2977 14.8733 30.4605 15.036C30.6232 15.1988 30.7147 15.4195 30.7147 15.6497V19.1661C30.7073 19.3913 30.6126 19.6048 30.4507 19.7614C30.2887 19.9181 30.0722 20.0056 29.8468 20.0055Z" fill="white"/>
<path d="M6.03557 31.8738C5.57245 31.8738 5.23241 31.458 5.23241 30.9949V0.79999C5.22922 0.6938 5.24784 0.588083 5.28712 0.489371C5.32639 0.390659 5.38549 0.301049 5.46076 0.226075C5.53603 0.151101 5.62587 0.0923568 5.72474 0.0534708C5.8236 0.0145848 5.92939 -0.00361679 6.03557 -9.6666e-06H29.8391C30.3022 -9.6666e-06 30.7156 0.336874 30.7156 0.79999V12.8315C30.7156 13.0617 30.6242 13.2825 30.4615 13.4452C30.2987 13.608 30.078 13.6994 29.8478 13.6994C29.6176 13.6994 29.3969 13.608 29.2341 13.4452C29.0714 13.2825 28.9799 13.0617 28.9799 12.8315V1.6568H6.88922V30.1381H28.9799V28.3124C28.9799 28.0822 29.0714 27.8615 29.2341 27.6988C29.3969 27.536 29.6176 27.4446 29.8478 27.4446C30.078 27.4446 30.2987 27.536 30.4615 27.6988C30.6242 27.8615 30.7156 28.0822 30.7156 28.3124V30.9949C30.7086 31.2253 30.614 31.4444 30.4512 31.6077C30.2884 31.7709 30.0695 31.866 29.8391 31.8738H6.03557Z" fill="white"/>
<path d="M29.8468 30.4371C29.6215 30.4372 29.405 30.3497 29.243 30.193C29.081 30.0363 28.9864 29.8228 28.979 29.5976V26.0868C28.979 25.8566 29.0704 25.6359 29.2332 25.4731C29.3959 25.3104 29.6167 25.2189 29.8468 25.2189C30.077 25.2189 30.2977 25.3104 30.4605 25.4731C30.6232 25.6359 30.7147 25.8566 30.7147 26.0868V29.5976C30.7073 29.8228 30.6126 30.0363 30.4507 30.193C30.2887 30.3497 30.0722 30.4372 29.8468 30.4371Z" fill="white"/>
<path d="M0.853674 35.8974C0.744042 35.8971 0.635553 35.8751 0.534464 35.8327C0.433375 35.7903 0.341683 35.7283 0.264676 35.6502C0.187669 35.5722 0.126868 35.4797 0.0857794 35.378C0.0446906 35.2764 0.0241264 35.1676 0.0252721 35.058V4.74477C0.0231858 4.12089 0.144567 3.50277 0.382424 2.92601C0.62028 2.34925 0.96991 1.82526 1.41117 1.38422C1.85243 0.943176 2.3766 0.593807 2.95348 0.356238C3.53035 0.118669 4.14854 -0.00240409 4.77241 -6.66155e-06L6.03557 -9.6666e-06C6.25528 -9.6666e-06 6.46515 0.0872712 6.62051 0.242627C6.77586 0.397983 6.86314 0.60869 6.86314 0.828396C6.86314 1.0481 6.77586 1.25881 6.62051 1.41417C6.46515 1.56952 6.25445 1.6568 6.03474 1.6568H4.77241C4.36651 1.65607 3.96446 1.73546 3.5893 1.8904C3.21414 2.04535 2.87324 2.27282 2.58615 2.55976C2.29906 2.8467 2.07143 3.18748 1.91629 3.56256C1.76115 3.93764 1.68156 4.33966 1.68208 4.74556V35.058C1.68322 35.1676 1.66266 35.2764 1.62157 35.378C1.58048 35.4797 1.51968 35.5722 1.44267 35.6502C1.36567 35.7283 1.27397 35.7903 1.17288 35.8327C1.0718 35.8751 0.963307 35.8971 0.853674 35.8974Z" fill="white"/>
<path d="M4.89155 40L4.9168 39.6844V39.9605C4.27085 39.9639 3.63064 39.8392 3.03311 39.5938C2.43559 39.3484 1.8926 38.9871 1.43547 38.5307C0.978344 38.0743 0.61614 37.5319 0.369767 36.9348C0.123394 36.3376 -0.0022697 35.6976 3.10297e-05 35.0517C3.10297e-05 32.3471 2.18386 30.1381 4.88682 30.1381H29.8391C30.0674 30.1406 30.2859 30.231 30.4492 30.3906C30.6125 30.5502 30.7079 30.7667 30.7156 30.9949L30.7156 39.1211C30.7085 39.3515 30.614 39.5706 30.4512 39.7339C30.2884 39.8971 30.0695 39.9923 29.8391 40H4.89155ZM4.89155 31.8738C4.46957 31.872 4.05139 31.9534 3.66092 32.1134C3.27045 32.2734 2.91536 32.5088 2.61595 32.8062C2.31654 33.1036 2.0787 33.457 1.91602 33.8464C1.75334 34.2357 1.66902 34.6534 1.66788 35.0753C1.66828 35.4966 1.75206 35.9136 1.91439 36.3023C2.07672 36.6911 2.31439 37.0438 2.61369 37.3403C2.91299 37.6367 3.26801 37.871 3.65829 38.0296C4.04856 38.1882 4.46636 38.2679 4.8876 38.2643H28.9799V31.8738H4.89155Z" fill="white"/>
<path d="M14.6439 10.1941H12.797V11.3862H14.8609V12.3171H11.6578V7.29624H14.7536V8.22721H12.797V9.27021H14.6447L14.6439 10.1941Z" fill="white"/>
<path d="M15.6347 12.3171V7.29624H16.9625L18.004 9.13608C18.3145 9.69113 18.5883 10.2659 18.8237 10.8568H18.8458C18.7742 10.1615 18.7418 9.46266 18.7487 8.7637V7.29624H19.7917V12.3171H18.5996L17.5266 10.3803C17.2063 9.80506 16.9166 9.21331 16.6588 8.60748L16.6367 8.61459C16.6667 9.27731 16.6817 9.985 16.6817 10.8047V12.3171H15.6347Z" fill="white"/>
<path d="M24.9688 12.086C24.4278 12.2648 23.8628 12.3603 23.2931 12.3692C22.3771 12.3692 21.7152 12.1381 21.252 11.6915C20.7905 11.2592 20.5373 10.6035 20.542 9.86666C20.5491 8.19802 21.7641 7.24417 23.4098 7.24417C24.0576 7.24417 24.557 7.3704 24.8031 7.49033L24.5664 8.3992C24.2911 8.28007 23.9479 8.18303 23.3972 8.18303C22.4505 8.18303 21.7357 8.71952 21.7357 9.8067C21.7357 10.8418 22.3834 11.4532 23.3136 11.4532C23.5739 11.4532 23.783 11.4233 23.8722 11.3791V10.3282H23.0974V9.44141H24.9672L24.9688 12.086Z" fill="white"/>
<path d="M24.8772 17.1763H11.1652C10.956 17.1763 10.7553 17.0932 10.6073 16.9452C10.4594 16.7973 10.3763 16.5966 10.3763 16.3874C10.3763 16.1781 10.4594 15.9774 10.6073 15.8295C10.7553 15.6815 10.956 15.5984 11.1652 15.5984H24.8772C25.0865 15.5984 25.2872 15.6815 25.4351 15.8295C25.5831 15.9774 25.6662 16.1781 25.6662 16.3874C25.6662 16.5966 25.5831 16.7973 25.4351 16.9452C25.2872 17.0932 25.0865 17.1763 24.8772 17.1763Z" fill="white"/>
</svg>
