<svg width="40" height="40" viewBox="0 0 40 40" fill="none" xmlns="http://www.w3.org/2000/svg">
<g clip-path="url(#clip0)">
<path d="M23.0897 15.1968C22.915 15.1959 22.7447 15.142 22.6013 15.0422C22.4579 14.9424 22.3481 14.8014 22.2865 14.6379L21.6933 13.0611L21.647 13.002L21.4362 12.8543L21.3612 12.8311H17.2526L17.1784 12.8559L16.97 13.0052L16.9245 13.0651L16.3273 14.6379C16.2651 14.7997 16.1557 14.9391 16.0134 15.0379C15.871 15.1367 15.7022 15.1904 15.5289 15.192C15.3901 15.1916 15.2535 15.1575 15.1309 15.0927C15.0082 15.0278 14.9031 14.9342 14.8246 14.8198C14.7461 14.7054 14.6965 14.5736 14.6801 14.4359C14.6637 14.2981 14.681 14.1584 14.7305 14.0288L18.3297 4.56448C18.4108 4.36747 18.5486 4.19899 18.7257 4.08044C18.9027 3.96188 19.111 3.89859 19.3241 3.89859C19.5371 3.89859 19.7454 3.96188 19.9225 4.08044C20.0995 4.19899 20.2373 4.36747 20.3185 4.56448L20.3289 4.59003L23.8929 14.0343C23.9418 14.1643 23.9585 14.3041 23.9415 14.4419C23.9246 14.5797 23.8745 14.7113 23.7955 14.8255C23.7166 14.9397 23.6111 15.0331 23.4882 15.0976C23.3653 15.1621 23.2286 15.1959 23.0897 15.196V15.1968ZM20.455 11.1777L20.5604 11.0978L20.7688 10.7872L20.7839 10.6611L19.6406 7.63913L19.5225 7.5553H19.1121L18.9931 7.63514L17.8442 10.6499L17.8586 10.7689L18.0662 11.0954L18.1716 11.1753L20.455 11.1777Z" fill="white"/>
<path d="M23.0897 15.1569C22.9235 15.1563 22.7615 15.1053 22.6248 15.0109C22.4882 14.9164 22.3833 14.7828 22.324 14.6276L21.7284 13.0451L21.6749 12.9765L21.4554 12.8168L21.3683 12.7897H17.2454L17.1592 12.8184L16.9412 12.9781L16.8885 13.0475L16.2873 14.6268C16.2278 14.7816 16.123 14.9149 15.9865 15.0092C15.8501 15.1035 15.6883 15.1545 15.5224 15.1553C15.3898 15.1555 15.2592 15.1234 15.1418 15.0618C15.0244 15.0003 14.9237 14.9111 14.8484 14.8019C14.7731 14.6928 14.7255 14.567 14.7097 14.4354C14.6939 14.3037 14.7103 14.1702 14.7576 14.0463L18.3631 4.57888C18.442 4.38973 18.575 4.22814 18.7455 4.11447C18.916 4.00081 19.1163 3.94016 19.3212 3.94016C19.5261 3.94016 19.7265 4.00081 19.897 4.11447C20.0675 4.22814 20.2005 4.38973 20.2793 4.57888L20.2889 4.60363L23.8546 14.0519C23.9011 14.1758 23.917 14.3091 23.9008 14.4404C23.8846 14.5717 23.8368 14.6972 23.7616 14.806C23.6863 14.9149 23.5858 15.0039 23.4687 15.0654C23.3515 15.1269 23.2212 15.1591 23.0889 15.1593L23.0897 15.1569ZM20.4645 11.1777L20.5867 11.1042L20.8055 10.7849L20.823 10.6443L19.6765 7.61041L19.5376 7.51381H19.1025L18.9627 7.60962L17.8059 10.6435L17.8226 10.7825L18.0406 11.1018L18.1627 11.1753L20.4645 11.1777Z" fill="white"/>
<path d="M23.0898 15.1369C22.9276 15.1364 22.7694 15.0868 22.636 14.9946C22.5026 14.9024 22.4003 14.7719 22.3425 14.6204L21.7469 13.0379L21.6902 12.9645L21.4659 12.8048L21.3732 12.7745H17.2455L17.1529 12.804L16.9293 12.9637L16.8726 13.0371L16.2707 14.6204C16.2127 14.7716 16.1104 14.9017 15.9772 14.9938C15.844 15.0858 15.6861 15.1354 15.5241 15.1361C15.3947 15.1361 15.2672 15.1045 15.1527 15.0442C15.0381 14.9838 14.94 14.8966 14.8667 14.7899C14.7934 14.6832 14.7471 14.5602 14.7319 14.4317C14.7166 14.3031 14.7329 14.1728 14.7792 14.0519L18.3856 4.58604C18.4623 4.40007 18.5924 4.24105 18.7596 4.12915C18.9268 4.01726 19.1234 3.95752 19.3245 3.95752C19.5257 3.95752 19.7223 4.01726 19.8895 4.12915C20.0566 4.24105 20.1868 4.40007 20.2635 4.58604L20.273 4.61079L23.8371 14.0543C23.8827 14.1751 23.8983 14.3051 23.8826 14.4333C23.8669 14.5614 23.8203 14.6838 23.7469 14.7901C23.6735 14.8963 23.5755 14.9831 23.4612 15.0431C23.3469 15.1031 23.2197 15.1345 23.0906 15.1346L23.0898 15.1369ZM18.9461 7.59523L17.7852 10.6419L17.8036 10.7904L18.0271 11.1098L18.1581 11.1777H20.4687L20.5996 11.1098L20.8239 10.7904L20.8423 10.6419L19.6926 7.59682L19.5441 7.49383H19.0962L18.9461 7.59523Z" fill="white"/>
<path d="M7.50495 34.4703C7.2733 34.4599 7.05411 34.3625 6.89127 34.1974C6.72842 34.0323 6.63393 33.8118 6.62671 33.5801V23.9992C6.62671 23.5401 7.03469 23.2335 7.52252 23.2335H10.3057C11.9944 23.2335 13.3684 24.5756 13.3684 26.2499C13.3674 26.83 13.1977 27.3973 12.8798 27.8826L12.8614 27.9625L12.9093 28.2491L12.9564 28.3289C13.3543 28.6489 13.6751 29.0541 13.8953 29.5147C14.1154 29.9753 14.2292 30.4795 14.2283 30.99C14.2279 31.9012 13.8663 32.775 13.2228 33.42C12.5793 34.065 11.7063 34.4286 10.7952 34.4312C10.6802 34.4312 10.5133 34.4543 10.3161 34.4575C10.0375 34.4623 9.69098 34.4886 9.35405 34.4886H9.34128C8.95006 34.4886 8.54287 34.4719 8.16842 34.4743C7.96244 34.4743 7.76922 34.4671 7.59836 34.4679H7.56643L7.52332 34.4743H7.50495V34.4703ZM8.7297 32.7178C9.45226 32.7138 10.3944 32.7098 10.7896 32.7098C11.0212 32.7201 11.2525 32.6834 11.4696 32.602C11.6867 32.5205 11.8851 32.396 12.0527 32.2358C12.2204 32.0757 12.3539 31.8832 12.4452 31.6701C12.5366 31.457 12.5838 31.2276 12.5842 30.9957C12.5845 30.7639 12.5379 30.5343 12.4471 30.321C12.3564 30.1076 12.2234 29.9148 12.0562 29.7542C11.889 29.5935 11.691 29.4684 11.4741 29.3864C11.2573 29.3043 11.026 29.267 10.7944 29.2766C10.7025 29.2887 10.61 29.2949 10.5173 29.295C10.0487 29.295 9.07301 29.3046 8.7824 29.3046H8.72491L8.63309 29.3285L8.37521 29.5401L8.30335 29.6208V32.3673L8.37122 32.4559L8.62751 32.6826L8.7297 32.7178ZM8.73689 27.5665H10.3081C10.4852 27.5708 10.6613 27.5397 10.8262 27.4749C10.991 27.4102 11.1412 27.3131 11.268 27.1894C11.3947 27.0657 11.4955 26.9179 11.5642 26.7547C11.633 26.5915 11.6684 26.4162 11.6684 26.2391C11.6684 26.062 11.633 25.8867 11.5642 25.7235C11.4955 25.5603 11.3947 25.4125 11.268 25.2888C11.1412 25.1651 10.991 25.0681 10.8262 25.0033C10.6613 24.9385 10.4852 24.9074 10.3081 24.9118H8.7321L8.64747 24.9301L8.38319 25.1162L8.30335 25.2112V27.2184L8.37441 27.3134L8.63709 27.5337L8.73689 27.5665Z" fill="white"/>
<path d="M7.50974 34.4312C7.29598 34.4224 7.09395 34.3311 6.94606 34.1765C6.79235 34.016 6.70654 33.8023 6.70654 33.5801V23.9992C6.70654 23.5585 7.05385 23.2336 7.52251 23.2336H10.3057C11.1039 23.2302 11.8707 23.5439 12.4376 24.1059C13.0044 24.6678 13.3249 25.4318 13.3285 26.23C13.3281 26.8084 13.1592 27.3741 12.8423 27.8579L12.8215 27.9609L12.8718 28.2651L12.9269 28.3561C13.4734 28.7974 13.8697 29.3974 14.061 30.0733C14.2523 30.7492 14.2293 31.4678 13.9951 32.1301C13.7609 32.7924 13.3271 33.3657 12.7534 33.7711C12.1797 34.1765 11.4944 34.394 10.792 34.3937C10.5133 34.3937 9.92251 34.4112 9.35485 34.4112H9.34127C8.73289 34.4112 8.07501 34.4184 7.59836 34.4208H7.56483L7.51533 34.4312H7.50974ZM8.61553 32.7178L8.72012 32.7585C9.48099 32.7537 10.4071 32.7505 10.7872 32.7505C11.253 32.7512 11.7001 32.5667 12.0299 32.2378C12.3598 31.9088 12.5454 31.4623 12.5461 30.9965C12.5467 30.5306 12.3623 30.0836 12.0333 29.7537C11.7043 29.4239 11.2578 29.2382 10.792 29.2376C10.7289 29.2376 9.16483 29.2256 8.78 29.2256H8.71373L8.60834 29.2759L8.36083 29.5058L8.30415 29.6184V32.3809L8.36004 32.4847L8.61553 32.7178ZM8.62271 27.5689L8.72331 27.6064H10.3018C10.6639 27.5977 11.0083 27.4478 11.2614 27.1886C11.5144 26.9294 11.6561 26.5815 11.6561 26.2192C11.6561 25.8569 11.5144 25.5091 11.2614 25.2498C11.0083 24.9906 10.6639 24.8407 10.3018 24.832H8.72411L8.6275 24.8759L8.36962 25.0811L8.30415 25.2024V27.2256L8.36323 27.3366L8.62271 27.5689Z" fill="white"/>
<path d="M7.50974 34.4112C7.29847 34.4026 7.09851 34.3134 6.95085 34.1621C6.79782 34.0066 6.71036 33.7982 6.70654 33.5801V23.9992C6.70654 23.5697 7.06503 23.2335 7.52251 23.2335H10.3057C10.8445 23.2296 11.3742 23.3717 11.8387 23.6448C12.3031 23.9179 12.6848 24.3117 12.9433 24.7845C13.2018 25.2572 13.3273 25.7911 13.3066 26.3295C13.2858 26.8678 13.1196 27.3905 12.8255 27.8419L12.8016 27.9545L12.8542 28.2635L12.9117 28.3625C13.4563 28.8002 13.8515 29.3962 14.0427 30.0682C14.234 30.7401 14.2119 31.4549 13.9795 32.1138C13.7471 32.7727 13.3158 33.3431 12.7452 33.7463C12.1747 34.1496 11.493 34.3657 10.7944 34.3649C10.5197 34.3649 9.95285 34.3705 9.35325 34.3769C8.75365 34.3833 8.0758 34.3896 7.59676 34.392L7.56083 34.396L7.50974 34.4112ZM8.70734 29.2216L8.59876 29.2631L8.35125 29.4954L8.30095 29.6104V32.3769L8.34966 32.4918L8.59876 32.7314L8.70974 32.7761C9.4786 32.7761 10.4047 32.7697 10.7856 32.7697C11.2559 32.7703 11.7072 32.5841 12.0402 32.252C12.3732 31.9199 12.5606 31.4691 12.5612 30.9988C12.5619 30.5285 12.3757 30.0772 12.0436 29.7442C11.7115 29.4112 11.2607 29.2238 10.7904 29.2232L8.78239 29.2216H8.70734ZM8.62271 24.8655L8.36323 25.0699L8.30335 25.1944V27.2304L8.35604 27.3485L8.61313 27.5809L8.72012 27.6224H10.3057C10.6763 27.6224 11.0317 27.4752 11.2937 27.2131C11.5557 26.9511 11.703 26.5957 11.703 26.2252C11.703 25.8546 11.5557 25.4992 11.2937 25.2372C11.0317 24.9752 10.6763 24.828 10.3057 24.828H8.72012L8.62271 24.8655Z" fill="white"/>
<path d="M23.2479 40C22.7015 39.9977 22.161 39.8869 21.6577 39.674C21.1544 39.4612 20.6985 39.1505 20.3162 38.7601L20.2283 38.7226H19.909L19.8148 38.7641C19.433 39.1541 18.9775 39.4642 18.4747 39.6764C17.9719 39.8886 17.432 39.9986 16.8862 40H4.08383C1.85389 40 0 38.1637 0 35.9513V23.1481C0 20.9278 1.85389 19.1617 4.08383 19.1617H8.998L9.10818 19.0707L9.29661 18.7314L9.3006 18.6052C9.01326 18.042 8.86308 17.4188 8.86228 16.7865V3.98325C8.86228 1.76449 10.6986 1.89846e-05 12.9086 1.89846e-05H25.7086C26.2332 -0.00389932 26.7533 0.0963903 27.2389 0.29507C27.7244 0.493749 28.1656 0.786863 28.537 1.15741C28.9083 1.52795 29.2024 1.96855 29.4022 2.45364C29.6019 2.93873 29.7034 3.45865 29.7006 3.98325V16.7865C29.7096 17.4161 29.5681 18.0389 29.2878 18.6028L29.3014 18.7306L29.5122 19.0763L29.6208 19.1617H36.0503C38.2499 19.1617 39.9992 20.9278 39.9992 23.1481V35.9513C40 38.1637 38.2507 40 36.0511 40H23.2479ZM38.3234 23.1641C38.3234 22.8587 38.2632 22.5562 38.1463 22.2741C38.0294 21.9919 37.8581 21.7355 37.6422 21.5195C37.4262 21.3036 37.1698 21.1323 36.8876 21.0154C36.6055 20.8985 36.303 20.8383 35.9976 20.8383H23.1641C22.5472 20.8383 21.9557 21.0834 21.5195 21.5195C21.0834 21.9557 20.8383 22.5473 20.8383 23.1641V35.9976C20.8383 36.3031 20.8985 36.6055 21.0154 36.8877C21.1322 37.1698 21.3036 37.4262 21.5195 37.6422C21.7355 37.8582 21.9919 38.0295 22.274 38.1463C22.5562 38.2632 22.8587 38.3234 23.1641 38.3234H35.9976C36.303 38.3234 36.6055 38.2632 36.8876 38.1463C37.1698 38.0295 37.4262 37.8582 37.6422 37.6422C37.8581 37.4262 38.0294 37.1698 38.1463 36.8877C38.2632 36.6055 38.3234 36.3031 38.3234 35.9976V23.1641ZM19.1617 23.1641C19.1617 22.5473 18.9166 21.9557 18.4805 21.5195C18.0443 21.0834 17.4528 20.8383 16.8359 20.8383H4.0024C3.38557 20.8383 2.79401 21.0834 2.35784 21.5195C1.92168 21.9557 1.67665 22.5473 1.67665 23.1641V35.9976C1.67665 36.3031 1.7368 36.6055 1.85368 36.8877C1.97056 37.1698 2.14188 37.4262 2.35784 37.6422C2.57381 37.8582 2.8302 38.0295 3.11237 38.1463C3.39454 38.2632 3.69697 38.3234 4.0024 38.3234H16.8359C17.1413 38.3234 17.4438 38.2632 17.726 38.1463C18.0081 38.0295 18.2645 37.8582 18.4805 37.6422C18.6964 37.4262 18.8678 37.1698 18.9846 36.8877C19.1015 36.6055 19.1617 36.3031 19.1617 35.9976V23.1641ZM27.9441 4.00242C27.9441 3.38559 27.6991 2.79402 27.2629 2.35786C26.8268 1.9217 26.2352 1.67667 25.6184 1.67667H12.7848C12.168 1.67667 11.5764 1.9217 11.1403 2.35786C10.7041 2.79402 10.4591 3.38559 10.4591 4.00242V16.836C10.4591 17.4528 10.7041 18.0443 11.1403 18.4805C11.5764 18.9167 12.168 19.1617 12.7848 19.1617H25.6184C26.2352 19.1617 26.8268 18.9167 27.2629 18.4805C27.6991 18.0443 27.9441 17.4528 27.9441 16.836V4.00242Z" fill="white"/>
<path d="M23.2479 39.9202C22.7054 39.9177 22.1689 39.8073 21.6696 39.5953C21.1702 39.3834 20.718 39.0743 20.3393 38.6859L20.2363 38.6427H19.897L19.7884 38.6906C19.4105 39.0779 18.9592 39.3861 18.4609 39.5972C17.9627 39.8083 17.4274 39.9181 16.8862 39.9202H4.08383C3.55997 39.9238 3.04057 39.8238 2.55546 39.6261C2.07035 39.4283 1.62909 39.1366 1.25704 38.7679C0.884976 38.3991 0.589448 37.9604 0.387427 37.477C0.185406 36.9937 0.0808736 36.4752 0.0798341 35.9513V23.1481C0.0797233 22.6231 0.183342 22.1033 0.384739 21.6184C0.586136 21.1335 0.881342 20.6933 1.2534 20.3228C1.62546 19.9524 2.06704 19.6591 2.55277 19.4599C3.0385 19.2606 3.55882 19.1593 4.08383 19.1617H9.00997L9.13852 19.0819L9.33492 18.7386L9.36287 18.598C9.07989 18.0365 8.93561 17.4153 8.94211 16.7865V3.98326C8.93969 3.46091 9.04051 2.94323 9.23878 2.45996C9.43705 1.9767 9.72886 1.53737 10.0974 1.16723C10.466 0.797091 10.9041 0.503431 11.3865 0.303124C11.869 0.102817 12.3862 -0.000187021 12.9086 2.89547e-05H25.7086C26.2326 -0.00197077 26.7519 0.0996294 27.2366 0.298989C27.7213 0.498349 28.1617 0.791536 28.5327 1.1617C28.9037 1.53186 29.1978 1.97169 29.3983 2.45591C29.5987 2.94014 29.7014 3.4592 29.7006 3.98326V16.7865C29.7031 17.4152 29.5547 18.0354 29.2679 18.5948V18.7441L29.485 19.0875L29.6072 19.1625H36.0479C36.5695 19.1632 37.0858 19.2671 37.5672 19.468C38.0486 19.669 38.4854 19.9631 38.8527 20.3335C39.22 20.7039 39.5104 21.1433 39.7073 21.6263C39.9042 22.1093 40.0037 22.6265 40 23.1481V35.9513C40.0025 36.4715 39.9022 36.9872 39.7049 37.4685C39.5076 37.9499 39.2172 38.3875 38.8502 38.7563C38.4833 39.1251 38.0471 39.4177 37.5668 39.6175C37.0864 39.8172 36.5713 39.9201 36.0511 39.9202H23.2479ZM38.4032 23.1242C38.4032 22.4968 38.1539 21.8951 37.7103 21.4514C37.2667 21.0078 36.6649 20.7585 36.0375 20.7585H23.204C22.5766 20.7585 21.9749 21.0078 21.5312 21.4514C21.0876 21.8951 20.8383 22.4968 20.8383 23.1242V35.9577C20.8383 36.5851 21.0876 37.1868 21.5312 37.6305C21.9749 38.0741 22.5766 38.3234 23.204 38.3234H36.0375C36.6649 38.3234 37.2667 38.0741 37.7103 37.6305C38.1539 37.1868 38.4032 36.5851 38.4032 35.9577V23.1242ZM19.2415 23.1242C19.2415 22.4968 18.9923 21.8951 18.5486 21.4514C18.105 21.0078 17.5033 20.7585 16.8758 20.7585H4.04231C3.4149 20.7585 2.81318 21.0078 2.36953 21.4514C1.92588 21.8951 1.67664 22.4968 1.67664 23.1242V35.9577C1.67664 36.5851 1.92588 37.1868 2.36953 37.6305C2.81318 38.0741 3.4149 38.3234 4.04231 38.3234H16.8758C17.5033 38.3234 18.105 38.0741 18.5486 37.6305C18.9923 37.1868 19.2415 36.5851 19.2415 35.9577V23.1242ZM28.0239 3.9625C28.0239 3.33509 27.7747 2.73337 27.3311 2.28972C26.8874 1.84607 26.2857 1.59684 25.6583 1.59684H12.8247C12.1973 1.59684 11.5956 1.84607 11.152 2.28972C10.7083 2.73337 10.4591 3.33509 10.4591 3.9625V16.796C10.4591 17.4235 10.7083 18.0252 11.152 18.4688C11.5956 18.9125 12.1973 19.1617 12.8247 19.1617H25.6583C26.2857 19.1617 26.8874 18.9125 27.3311 18.4688C27.7747 18.0252 28.0239 17.4235 28.0239 16.796V3.9625Z" fill="white"/>
<path d="M23.2479 39.9202C22.7082 39.9175 22.1744 39.8076 21.6775 39.5968C21.1807 39.386 20.7307 39.0785 20.3537 38.6922L20.2411 38.6427H19.8938L19.7812 38.6922C19.4042 39.0786 18.9541 39.3861 18.4571 39.5969C17.9601 39.8078 17.4261 39.9176 16.8862 39.9202H4.08383C1.87544 39.9202 0.079834 38.1397 0.079834 35.9513V23.1481C0.0836382 22.089 0.507267 21.0746 1.25784 20.3273C2.00842 19.58 3.02468 19.1608 4.08383 19.1617H9.01477L9.1521 19.0818L9.3517 18.7385L9.37325 18.5868C9.08684 18.0292 8.93896 17.4109 8.94212 16.784V3.98323C8.93991 3.46094 9.04087 2.94335 9.23922 2.46018C9.43756 1.97701 9.72938 1.53777 10.0979 1.16767C10.4665 0.797575 10.9045 0.503907 11.3868 0.303525C11.8691 0.103144 12.3863 -4.66606e-06 12.9086 1.5831e-10L25.7086 1.5831e-10C26.7649 0.00314515 27.7771 0.423538 28.5248 1.16961C29.2725 1.91568 29.6951 2.92698 29.7006 3.98323V16.7864C29.6994 17.4141 29.5477 18.0323 29.2583 18.5892V18.7489L29.4787 19.0914L29.6072 19.1617H36.0535C38.2308 19.1617 40.0024 20.9517 40.0024 23.1481V35.9513C40.0039 37.0013 39.5886 38.009 38.8478 38.7531C38.107 39.4973 37.1011 39.917 36.0511 39.9202H23.2479ZM38.4032 23.1441C38.4032 22.5114 38.1519 21.9046 37.7045 21.4572C37.2571 21.0098 36.6503 20.7585 36.0176 20.7585H23.224C22.5913 20.7585 21.9845 21.0098 21.5371 21.4572C21.0897 21.9046 20.8383 22.5114 20.8383 23.1441V35.9377C20.8383 36.5704 21.0897 37.1772 21.5371 37.6246C21.9845 38.072 22.5913 38.3234 23.224 38.3234H36.0176C36.6503 38.3234 37.2571 38.072 37.7045 37.6246C38.1519 37.1772 38.4032 36.5704 38.4032 35.9377V23.1441ZM19.2415 23.1441C19.2415 22.8308 19.1798 22.5206 19.0599 22.2312C18.94 21.9417 18.7643 21.6787 18.5428 21.4572C18.3213 21.2357 18.0583 21.06 17.7688 20.9401C17.4794 20.8202 17.1692 20.7585 16.8559 20.7585H4.06227C3.42956 20.7585 2.82277 21.0098 2.37538 21.4572C1.92798 21.9046 1.67664 22.5114 1.67664 23.1441V35.9377C1.67664 36.5704 1.92798 37.1772 2.37538 37.6246C2.82277 38.072 3.42956 38.3234 4.06227 38.3234H16.8559C17.1692 38.3234 17.4794 38.2617 17.7688 38.1418C18.0583 38.0219 18.3213 37.8461 18.5428 37.6246C18.7643 37.4031 18.94 37.1401 19.0599 36.8507C19.1798 36.5612 19.2415 36.251 19.2415 35.9377V23.1441ZM28.024 3.98244C28.024 3.34973 27.7726 2.74293 27.3252 2.29554C26.8778 1.84815 26.271 1.59681 25.6383 1.59681H12.8447C12.212 1.59681 11.6052 1.84815 11.1578 2.29554C10.7104 2.74293 10.4591 3.34973 10.4591 3.98244V16.776C10.4591 17.4088 10.7104 18.0156 11.1578 18.4629C11.6052 18.9103 12.212 19.1617 12.8447 19.1617H25.6383C26.271 19.1617 26.8778 18.9103 27.3252 18.4629C27.7726 18.0156 28.024 17.4088 28.024 16.776V3.98244Z" fill="white"/>
<path d="M30.5747 34.4384C29.6916 34.4383 28.8209 34.2312 28.0324 33.8337C27.2439 33.4362 26.5595 32.8594 26.0343 32.1495C25.509 31.4397 25.1575 30.6166 25.008 29.7463C24.8584 28.876 24.915 27.9828 25.1732 27.1383C25.4313 26.2938 25.8838 25.5216 26.4944 24.8837C27.105 24.2458 27.8567 23.7599 28.6891 23.4651C29.5214 23.1703 30.4113 23.0747 31.2873 23.186C32.1633 23.2974 33.001 23.6125 33.7332 24.1062C33.8314 24.167 33.9164 24.2469 33.983 24.3413C34.0496 24.4357 34.0965 24.5425 34.1208 24.6555C34.1451 24.7684 34.1464 24.8851 34.1246 24.9985C34.1027 25.1119 34.0582 25.2198 33.9937 25.3156C33.9292 25.4114 33.846 25.4932 33.7491 25.5561C33.6522 25.619 33.5436 25.6617 33.4298 25.6816C33.316 25.7016 33.1994 25.6983 33.0869 25.6721C32.9744 25.6458 32.8683 25.5972 32.7751 25.529C32.2653 25.1857 31.6822 24.9666 31.0726 24.8894C30.4629 24.8123 29.8436 24.879 29.2644 25.0844C28.6852 25.2898 28.1622 25.6281 27.7373 26.0722C27.3125 26.5162 26.9977 27.0537 26.8181 27.6414C26.6385 28.2291 26.5992 28.8508 26.7033 29.4565C26.8074 30.0621 27.052 30.635 27.4175 31.129C27.783 31.6231 28.2592 32.0246 28.8079 32.3013C29.3566 32.5781 29.9625 32.7224 30.5771 32.7226C31.3962 32.7226 32.0885 32.4759 32.6354 31.9889C32.7437 31.8923 32.8448 31.788 32.938 31.6767C33.0875 31.514 33.294 31.4152 33.5145 31.401C33.735 31.3867 33.9525 31.4581 34.1217 31.6001C34.291 31.7422 34.3989 31.9441 34.423 32.1637C34.4472 32.3834 34.3857 32.6038 34.2513 32.7793C34.1037 32.9541 33.9436 33.1179 33.7723 33.2695C32.9164 34.0344 31.8098 34.4384 30.5747 34.4384Z" fill="white"/>
<path d="M30.5746 34.3984C29.6979 34.3983 28.8334 34.1926 28.0505 33.7979C27.2676 33.4032 26.5882 32.8304 26.0667 32.1256C25.5452 31.4208 25.1963 30.6035 25.0478 29.7394C24.8993 28.8754 24.9555 27.9885 25.2118 27.15C25.4681 26.3116 25.9174 25.5449 26.5236 24.9115C27.1298 24.2781 27.8761 23.7956 28.7025 23.5028C29.5289 23.2101 30.4125 23.1151 31.2823 23.2255C32.152 23.336 32.9838 23.6488 33.7108 24.1389C33.7999 24.1991 33.8763 24.2763 33.9356 24.366C33.9949 24.4557 34.0359 24.5562 34.0564 24.6618C34.0769 24.7673 34.0763 24.8759 34.0548 24.9813C34.0333 25.0866 33.9913 25.1867 33.9311 25.2759C33.8709 25.365 33.7938 25.4414 33.7041 25.5007C33.6144 25.56 33.5139 25.601 33.4083 25.6215C33.3027 25.642 33.1942 25.6414 33.0888 25.6199C32.9834 25.5984 32.8833 25.5564 32.7942 25.4962C32.2793 25.1491 31.6903 24.9275 31.0743 24.8492C30.4583 24.771 29.8325 24.8382 29.2472 25.0456C28.6619 25.253 28.1334 25.5947 27.7041 26.0433C27.2747 26.4919 26.9565 27.0349 26.7751 27.6288C26.5936 28.2226 26.5539 28.8507 26.6591 29.4627C26.7643 30.0746 27.0115 30.6534 27.3809 31.1526C27.7503 31.6517 28.2316 32.0572 28.7861 32.3367C29.3406 32.6162 29.9529 32.7617 30.5738 32.7617C31.4034 32.7617 32.1044 32.5118 32.6585 32.0176C32.768 31.9187 32.8703 31.812 32.9643 31.6982C33.1037 31.5319 33.3035 31.4278 33.5197 31.4088C33.7359 31.3897 33.9508 31.4574 34.1172 31.5968C34.2835 31.7363 34.3876 31.9361 34.4066 32.1523C34.4256 32.3685 34.358 32.5834 34.2186 32.7497C34.0735 32.923 33.9161 33.0855 33.7475 33.236C32.894 33.9976 31.7994 34.3984 30.5746 34.3984Z" fill="white"/>
<path d="M30.575 34.3785C29.7009 34.3791 28.8388 34.1747 28.0581 33.7817C27.2773 33.3887 26.5996 32.818 26.0794 32.1156C25.5592 31.4131 25.2111 30.5984 25.0629 29.7369C24.9148 28.8755 24.9707 27.9913 25.2263 27.1554C25.4819 26.3195 25.93 25.5552 26.5347 24.9239C27.1393 24.2926 27.8835 23.812 28.7076 23.5206C29.5317 23.2291 30.4127 23.1351 31.2797 23.2459C32.1468 23.3568 32.9757 23.6695 33.7 24.1589C33.8754 24.2775 33.9966 24.4609 34.0368 24.6688C34.077 24.8767 34.0329 25.092 33.9143 25.2675C33.8556 25.3543 33.7804 25.4288 33.6929 25.4866C33.6054 25.5444 33.5074 25.5843 33.4044 25.6043C33.1966 25.6445 32.9812 25.6004 32.8058 25.4818C32.2883 25.1333 31.6963 24.9109 31.0773 24.8325C30.4583 24.754 29.8296 24.8218 29.2415 25.0303C28.6535 25.2388 28.1225 25.5823 27.6911 26.0331C27.2598 26.4839 26.9402 27.0296 26.7578 27.6263C26.5755 28.2229 26.5356 28.8541 26.6413 29.469C26.7469 30.0839 26.9953 30.6655 27.3664 31.1671C27.7374 31.6686 28.2209 32.0763 28.778 32.3572C29.3351 32.6382 29.9503 32.7846 30.5742 32.7848C31.4086 32.7848 32.1143 32.5326 32.6724 32.0359C32.7828 31.9371 32.8858 31.8304 32.9806 31.7166C33.1181 31.5594 33.3118 31.4624 33.52 31.4463C33.7283 31.4303 33.9345 31.4964 34.0945 31.6306C34.2546 31.7649 34.3556 31.9564 34.376 32.1643C34.3965 32.3722 34.3346 32.5797 34.2038 32.7425C34.0592 32.9149 33.9023 33.0767 33.7343 33.2264C32.888 33.9793 31.795 34.3785 30.575 34.3785Z" fill="white"/>
</g>
<defs>
<clipPath id="clip0">
<rect width="40" height="40" fill="white"/>
</clipPath>
</defs>
</svg>
