<svg width="40" height="40" viewBox="0 0 40 40" fill="none" xmlns="http://www.w3.org/2000/svg">
<path d="M39.8983 37.8392L37.6853 26.0338C37.5814 25.4795 37.0975 25.0779 36.5336 25.0779H34.1399C32.6267 25.0779 31.3387 24.095 30.8807 22.7342H35.5311C35.8854 22.7342 36.2207 22.5739 36.4431 22.2981C36.6655 22.0223 36.7513 21.6608 36.6764 21.3144C35.6717 16.6711 32.093 13.2237 27.6047 12.3135L32.4436 4.52378C32.6076 4.2598 32.66 3.94145 32.5893 3.6388C32.5186 3.33615 32.3305 3.07405 32.0666 2.90999C28.7097 0.824798 24.8493 -0.172837 20.9023 0.0245025C19.6174 0.088798 18.3377 0.280669 17.0989 0.594725C16.7909 0.672848 16.5369 0.869328 16.3814 1.1287C16.106 0.996591 15.7851 0.975341 15.4883 1.07901C10.4766 2.82913 6.36172 6.62327 4.19895 11.4886C4.01614 11.8999 4.08505 12.3795 4.37613 12.7227L4.75253 13.1663H4.40738C3.88419 13.1663 3.42436 13.5131 3.28069 14.0162C2.36508 17.2198 2.29758 20.631 3.08538 23.881C3.09733 23.9302 3.11311 23.9773 3.13069 24.0234C3.36483 25.5126 3.28647 27.5799 2.89796 29.8663C2.83609 30.2305 2.94952 30.6024 3.20405 30.8702L3.26608 30.9354C2.71687 31.315 2.48946 31.8586 2.35047 32.4251C2.34188 32.4603 2.33321 32.4958 2.32399 32.5313C1.74908 34.7547 0.961129 36.7089 0.216144 37.7588C-0.0606465 38.1489 -0.0725993 38.6681 0.186067 39.0705C0.404265 39.41 0.778007 39.6089 1.17167 39.6088C1.24464 39.6088 1.31839 39.602 1.3919 39.5879C6.05039 38.6973 9.02728 37.3142 11.0561 35.0531C11.2001 35.1991 11.3837 35.3089 11.5957 35.3637C11.7218 35.4276 11.8609 35.4705 12.0099 35.4851C12.4231 35.5258 12.8432 35.5463 13.2586 35.5463C16.358 35.5463 19.3428 34.4128 21.6556 32.3964C22.688 34.2474 24.1155 35.8629 25.8534 37.1282C28.0786 38.748 30.7111 39.7235 33.4663 39.949C33.8805 39.9829 34.2941 39.9998 34.7065 39.9998C36.1851 39.9998 37.6484 39.7822 39.0712 39.3497C39.5715 39.1976 39.8954 38.7409 39.902 38.2444C39.9234 38.1136 39.9242 37.9771 39.8983 37.8392ZM3.39576 36.7302C3.84052 35.6728 4.25075 34.4417 4.593 33.118C4.60464 33.073 4.61574 33.0281 4.6266 32.9835C4.638 32.9368 4.65199 32.8801 4.66472 32.8341C4.76792 32.8029 5.00839 32.7535 5.49767 32.7535C5.96633 32.7535 6.38984 32.4743 6.5746 32.0437C6.75936 31.613 6.66976 31.1137 6.34687 30.7742L5.30189 29.6753C5.58619 27.7805 5.85329 24.7909 5.2033 22.5469C5.19752 22.527 5.18994 22.5082 5.18323 22.4888C4.74527 20.177 4.78941 17.7952 5.3151 15.5101H7.28341C7.73997 15.5101 8.15496 15.2449 8.34683 14.8306C8.53862 14.4163 8.47237 13.9283 8.17707 13.5801L6.65093 11.7812C8.51776 8.02722 11.731 5.07033 15.6175 3.5313L16.5488 4.37105C16.8877 4.67675 17.3735 4.75776 17.7935 4.57854C18.2134 4.39933 18.4911 3.99254 18.5048 3.53615L18.5308 2.67312C19.3491 2.51039 20.1829 2.40711 21.0194 2.36523C24.0964 2.21094 27.1124 2.88389 29.8133 4.31644L24.9927 12.0768C22.3437 12.1075 19.8702 12.977 17.831 14.5971C15.7546 16.2468 14.334 18.511 13.7227 21.1449L12.8376 24.959C11.139 31.9552 9.74242 35.0063 3.39576 36.7302ZM33.6574 37.6132C28.8865 37.2227 24.8214 34.266 23.0487 29.8969C22.8054 29.2972 22.1221 29.0083 21.5222 29.2516C21.2185 29.3748 20.995 29.6111 20.8794 29.8921C18.9283 31.9805 16.1921 33.1818 13.3307 33.2018C13.3307 33.2018 16.0042 21.7154 16.101 21.2996C17.2277 17.1678 20.8127 14.419 25.1381 14.419H25.2233C29.1741 14.419 32.5856 16.8117 33.9625 20.3905H29.5305C28.8833 20.3905 28.3587 20.9151 28.3587 21.5623V21.6403C28.3587 24.8281 30.9521 27.4216 34.1399 27.4216H35.561L37.4239 37.3595C36.1905 37.6313 34.9277 37.7172 33.6574 37.6132Z" fill="white"/>
</svg>
