<svg width="31" height="40" viewBox="0 0 31 40" fill="none" xmlns="http://www.w3.org/2000/svg">
<g clip-path="url(#clip0)">
<path d="M29.847 20.0055C29.6216 20.0056 29.4051 19.9181 29.2431 19.7614C29.0812 19.6048 28.9865 19.3913 28.9791 19.1661V15.6497C28.9791 15.4195 29.0706 15.1988 29.2333 15.036C29.3961 14.8733 29.6168 14.7818 29.847 14.7818C30.0771 14.7818 30.2979 14.8733 30.4606 15.036C30.6234 15.1988 30.7148 15.4195 30.7148 15.6497V19.1661C30.7075 19.3913 30.6128 19.6048 30.4508 19.7614C30.2889 19.9181 30.0723 20.0056 29.847 20.0055Z" fill="white"/>
<path d="M6.03556 31.8738C5.57245 31.8738 5.23241 31.458 5.23241 30.9949V0.79999C5.22922 0.6938 5.24783 0.588083 5.28711 0.489371C5.32638 0.390659 5.38548 0.301049 5.46075 0.226075C5.53602 0.151101 5.62586 0.0923567 5.72473 0.0534708C5.8236 0.0145848 5.92938 -0.00361679 6.03556 -9.66663e-06H29.8391C30.3022 -9.66663e-06 30.7156 0.336874 30.7156 0.79999V12.8315C30.7156 13.0617 30.6242 13.2825 30.4615 13.4452C30.2987 13.608 30.078 13.6994 29.8478 13.6994C29.6176 13.6994 29.3969 13.608 29.2341 13.4452C29.0714 13.2825 28.9799 13.0617 28.9799 12.8315V1.6568H6.88921V30.1381H28.9799V28.3124C28.9799 28.0822 29.0714 27.8615 29.2341 27.6988C29.3969 27.536 29.6176 27.4446 29.8478 27.4446C30.078 27.4446 30.2987 27.536 30.4615 27.6988C30.6242 27.8615 30.7156 28.0822 30.7156 28.3124V30.9949C30.7086 31.2253 30.614 31.4444 30.4512 31.6077C30.2884 31.7709 30.0695 31.866 29.8391 31.8738H6.03556Z" fill="white"/>
<path d="M29.847 30.4371C29.6216 30.4372 29.4051 30.3497 29.2431 30.193C29.0812 30.0364 28.9865 29.8228 28.9791 29.5976V26.0868C28.9791 25.8566 29.0706 25.6359 29.2333 25.4731C29.3961 25.3104 29.6168 25.2189 29.847 25.2189C30.0771 25.2189 30.2979 25.3104 30.4606 25.4731C30.6234 25.6359 30.7148 25.8566 30.7148 26.0868V29.5976C30.7075 29.8228 30.6128 30.0364 30.4508 30.193C30.2889 30.3497 30.0723 30.4372 29.847 30.4371Z" fill="white"/>
<path d="M0.853716 35.8974C0.744083 35.8971 0.635595 35.8751 0.534506 35.8327C0.433416 35.7903 0.341725 35.7282 0.264718 35.6502C0.18771 35.5722 0.12691 35.4797 0.0858212 35.378C0.0447325 35.2764 0.0241682 35.1676 0.0253139 35.058V4.74476C0.0232276 4.12089 0.144609 3.50276 0.382466 2.926C0.620322 2.34924 0.969952 1.82525 1.41121 1.38421C1.85247 0.943171 2.37664 0.593803 2.95352 0.356234C3.53039 0.118665 4.14858 -0.00240828 4.77245 -1.0857e-05H6.03478C6.25449 -1.0857e-05 6.46519 0.087267 6.62055 0.242623C6.7759 0.397978 6.86318 0.608686 6.86318 0.828392C6.86318 1.0481 6.7759 1.25881 6.62055 1.41416C6.46519 1.56952 6.25449 1.65679 6.03478 1.65679H4.77245C4.36655 1.65607 3.9645 1.73545 3.58934 1.8904C3.21418 2.04535 2.87328 2.27281 2.58619 2.55975C2.29911 2.8467 2.07147 3.18747 1.91633 3.56256C1.76119 3.93764 1.6816 4.33965 1.68212 4.74555V35.058C1.68326 35.1676 1.6627 35.2764 1.62161 35.378C1.58052 35.4797 1.51972 35.5722 1.44271 35.6502C1.36571 35.7282 1.27402 35.7903 1.17293 35.8327C1.07184 35.8751 0.963349 35.8971 0.853716 35.8974Z" fill="white"/>
<path d="M4.89155 40L4.9168 39.6844V39.9605C4.27085 39.9639 3.63064 39.8392 3.03312 39.5938C2.43559 39.3484 1.8926 38.9871 1.43547 38.5307C0.978344 38.0743 0.61614 37.5319 0.369767 36.9348C0.123394 36.3376 -0.0022697 35.6976 3.10297e-05 35.0517C3.10297e-05 32.3471 2.18386 30.1381 4.88682 30.1381H29.8391C30.0674 30.1406 30.2859 30.231 30.4492 30.3906C30.6125 30.5502 30.7079 30.7667 30.7156 30.9949V39.1211C30.7085 39.3515 30.614 39.5706 30.4512 39.7339C30.2884 39.8971 30.0695 39.9923 29.8391 40H4.89155ZM4.89155 31.8738C4.46957 31.872 4.05139 31.9534 3.66092 32.1134C3.27045 32.2734 2.91536 32.5088 2.61595 32.8062C2.31654 33.1036 2.0787 33.457 1.91602 33.8464C1.75334 34.2357 1.66902 34.6534 1.66788 35.0753C1.66828 35.4966 1.75206 35.9136 1.91439 36.3023C2.07672 36.6911 2.31439 37.0438 2.61369 37.3403C2.91299 37.6367 3.26802 37.871 3.65829 38.0296C4.04856 38.1882 4.46636 38.2679 4.88761 38.2643H28.9799V31.8738H4.89155Z" fill="white"/>
<path d="M24.1896 20.4361C24.2047 20.3832 24.2192 20.3303 24.2328 20.2774C24.2903 20.0531 24.2102 19.8159 24.0285 19.6723L21.8453 17.9469C22.2016 17.0135 22.3903 15.9987 22.3903 14.9683V12.2269L23.1201 8.53706C23.1617 8.32701 23.0853 8.11104 22.9211 7.97377C22.7567 7.83646 22.5307 7.79967 22.3314 7.87787L20.1559 8.73104L17.4008 6.15774C17.1757 5.94742 16.826 5.94742 16.6009 6.15774L13.8458 8.73104L11.6703 7.87783C11.4715 7.79986 11.246 7.83623 11.0817 7.97279C10.9175 8.10936 10.8406 8.32444 10.881 8.53417C10.881 8.53417 11.6137 12.3346 11.6151 12.341C11.6128 12.3625 11.6113 14.9682 11.6113 14.9682C11.6113 15.9987 11.8 17.0135 12.1563 17.9468L9.97301 19.6723C9.79129 19.8159 9.71125 20.0531 9.76871 20.2774C9.78242 20.331 9.79778 20.3845 9.81305 20.438C8.75796 21.351 8.13553 22.6899 8.13346 24.0842L8.13147 25.4109C8.131 25.7345 8.39292 25.9973 8.71655 25.9977H8.71745C9.04062 25.9977 9.30289 25.7359 9.3034 25.4127L9.30539 24.0859C9.30676 23.1715 9.66152 22.288 10.2769 21.6179C10.6198 22.2977 11.075 22.929 11.6047 23.4439C12.6633 24.473 13.9632 25.0169 15.364 25.0169C15.5329 25.0169 15.6937 24.9439 15.8049 24.8168L17.0007 23.4502L18.1966 24.8168C18.3079 24.9439 18.4686 25.0169 18.6376 25.0169C20.9642 25.0169 22.793 23.4566 23.7264 21.6136C24.3501 22.284 24.6975 23.1556 24.6961 24.0841L24.6941 25.4131C24.6936 25.7367 24.9556 25.9994 25.2792 25.9999H25.2801C25.6032 25.9999 25.8655 25.7381 25.866 25.4148L25.868 24.0858C25.8702 22.6709 25.2621 21.3572 24.1896 20.4361ZM17.0008 21.1009C15.2576 20.6578 13.8614 19.238 13.1998 17.3924C13.5002 17.6916 13.835 17.9566 14.1979 18.1788C14.761 18.5236 15.5172 18.3222 15.8356 17.7462C16.0712 17.3197 16.5172 17.0548 16.9995 17.0548C17.4819 17.0548 17.9279 17.3198 18.1635 17.7461C18.3219 18.0329 18.5731 18.2288 18.8899 18.3124C19.2065 18.3962 19.5217 18.3499 19.8012 18.1789C20.1656 17.9557 20.5017 17.6895 20.8031 17.3886C20.1422 19.236 18.7452 20.6574 17.0008 21.1009ZM21.2184 12.7969V13.5782C21.2184 15.0331 20.4409 16.413 19.1893 17.1794C18.7474 16.3797 17.9084 15.8829 16.9996 15.8829C16.0908 15.8829 15.2517 16.3797 14.8099 17.1793V17.1794C13.5984 16.4376 12.8312 15.1209 12.7832 13.7178V12.7969H21.2184ZM13.7619 9.95691C13.9721 10.0393 14.2109 9.99371 14.3758 9.83965L17.0009 7.38775L19.6259 9.83965C19.7909 9.99367 20.0297 10.0394 20.2398 9.95691L21.7628 9.3596L21.3147 11.6251H12.6698L12.233 9.3573L13.7619 9.95691ZM15.1052 23.837C12.8991 23.6989 11.514 21.8125 11.0117 20.3452L12.6698 19.0348C12.801 19.2649 12.9437 19.4873 13.0976 19.7005C13.9857 20.9307 15.2003 21.8052 16.5456 22.191L15.1052 23.837ZM18.8964 23.837L17.4561 22.1911C18.8013 21.8052 20.016 20.9307 20.9041 19.7005C21.058 19.4874 21.2006 19.265 21.3319 19.0349L22.99 20.3453C22.4876 21.8125 21.1025 23.6989 18.8964 23.837Z" fill="white"/>
<path d="M17.001 10.5703C17.3237 10.5703 17.5869 10.3071 17.5869 9.98441C17.5869 9.66171 17.3237 9.39847 17.001 9.39847C16.6782 9.39847 16.415 9.66167 16.415 9.98441C16.415 10.3071 16.6782 10.5703 17.001 10.5703Z" fill="white"/>
</g>
<defs>
<clipPath id="clip0">
<rect width="30.7156" height="40" fill="white"/>
</clipPath>
</defs>
</svg>
