<svg width="31" height="40" viewBox="0 0 31 40" fill="none" xmlns="http://www.w3.org/2000/svg">
<path d="M29.8469 20.0055C29.6216 20.0056 29.405 19.9181 29.2431 19.7614C29.0811 19.6048 28.9864 19.3913 28.9791 19.1661V15.6497C28.9791 15.4195 29.0705 15.1988 29.2333 15.036C29.396 14.8733 29.6168 14.7818 29.8469 14.7818C30.0771 14.7818 30.2978 14.8733 30.4606 15.036C30.6233 15.1988 30.7148 15.4195 30.7148 15.6497V19.1661C30.7074 19.3913 30.6127 19.6048 30.4508 19.7614C30.2888 19.9181 30.0723 20.0056 29.8469 20.0055Z" fill="white"/>
<path d="M6.03558 31.8738C5.57246 31.8738 5.23242 31.458 5.23242 30.9949V0.79999C5.22923 0.6938 5.24785 0.588083 5.28713 0.489371C5.3264 0.390659 5.3855 0.301049 5.46077 0.226075C5.53604 0.151101 5.62588 0.0923568 5.72475 0.0534708C5.82361 0.0145848 5.9294 -0.00361679 6.03558 -9.6666e-06H29.8391C30.3022 -9.6666e-06 30.7157 0.336874 30.7157 0.79999V12.8315C30.7157 13.0617 30.6242 13.2825 30.4615 13.4452C30.2987 13.608 30.078 13.6994 29.8478 13.6994C29.6176 13.6994 29.3969 13.608 29.2341 13.4452C29.0714 13.2825 28.98 13.0617 28.98 12.8315V1.6568H6.88923V30.1381H28.98V28.3124C28.98 28.0822 29.0714 27.8615 29.2341 27.6988C29.3969 27.536 29.6176 27.4446 29.8478 27.4446C30.078 27.4446 30.2987 27.536 30.4615 27.6988C30.6242 27.8615 30.7157 28.0822 30.7157 28.3124V30.9949C30.7086 31.2253 30.614 31.4444 30.4512 31.6077C30.2884 31.7709 30.0696 31.866 29.8391 31.8738H6.03558Z" fill="white"/>
<path d="M29.8469 30.4371C29.6216 30.4372 29.405 30.3497 29.2431 30.193C29.0811 30.0363 28.9864 29.8228 28.9791 29.5976V26.0868C28.9791 25.8566 29.0705 25.6359 29.2333 25.4731C29.396 25.3104 29.6168 25.2189 29.8469 25.2189C30.0771 25.2189 30.2978 25.3104 30.4606 25.4731C30.6233 25.6359 30.7148 25.8566 30.7148 26.0868V29.5976C30.7074 29.8228 30.6127 30.0363 30.4508 30.193C30.2888 30.3497 30.0723 30.4372 29.8469 30.4371Z" fill="white"/>
<path d="M0.853708 35.8974C0.744075 35.8971 0.635587 35.8751 0.534498 35.8327C0.433408 35.7903 0.341717 35.7282 0.26471 35.6502C0.187702 35.5722 0.126902 35.4797 0.085813 35.378C0.0447243 35.2764 0.02416 35.1676 0.0253057 35.058V4.74477C0.0232194 4.12089 0.144601 3.50277 0.382457 2.92601C0.620314 2.34925 0.969943 1.82525 1.4112 1.38421C1.85246 0.943174 2.37663 0.593806 2.95351 0.356237C3.53039 0.118668 4.14857 -0.002405 4.77245 -7.5791e-06L6.03558 -9.6666e-06C6.25528 -9.6666e-06 6.46519 0.0872703 6.62054 0.242626C6.7759 0.397982 6.86317 0.608689 6.86317 0.828395C6.86317 1.0481 6.7759 1.25881 6.62054 1.41416C6.46519 1.56952 6.25448 1.6568 6.03477 1.6568H4.77245C4.36655 1.65607 3.96449 1.73546 3.58933 1.8904C3.21417 2.04535 2.87327 2.27281 2.58619 2.55976C2.2991 2.8467 2.07146 3.18748 1.91632 3.56256C1.76118 3.93764 1.68159 4.33966 1.68211 4.74556V35.058C1.68326 35.1676 1.66269 35.2764 1.6216 35.378C1.58051 35.4797 1.51971 35.5722 1.44271 35.6502C1.3657 35.7282 1.27401 35.7903 1.17292 35.8327C1.07183 35.8751 0.963341 35.8971 0.853708 35.8974Z" fill="white"/>
<path d="M4.89155 40L4.9168 39.6844V39.9605C4.27085 39.9639 3.63064 39.8392 3.03312 39.5938C2.43559 39.3484 1.8926 38.9871 1.43547 38.5307C0.978344 38.0743 0.61614 37.5319 0.369767 36.9348C0.123394 36.3376 -0.0022697 35.6976 3.10297e-05 35.0517C3.10297e-05 32.3471 2.18386 30.1381 4.88682 30.1381H29.8391C30.0674 30.1406 30.2859 30.231 30.4492 30.3906C30.6125 30.5502 30.708 30.7667 30.7157 30.9949L30.7156 39.1211C30.7085 39.3515 30.614 39.5706 30.4512 39.7339C30.2884 39.8971 30.0695 39.9923 29.8391 40H4.89155ZM4.89155 31.8738C4.46957 31.872 4.05139 31.9534 3.66092 32.1134C3.27045 32.2734 2.91536 32.5088 2.61595 32.8062C2.31654 33.1036 2.0787 33.457 1.91602 33.8464C1.75334 34.2357 1.66902 34.6534 1.66788 35.0753C1.66828 35.4966 1.75206 35.9136 1.91439 36.3023C2.07672 36.6911 2.31439 37.0438 2.61369 37.3403C2.91299 37.6367 3.26802 37.871 3.65829 38.0296C4.04856 38.1882 4.46636 38.2679 4.88761 38.2643H28.9799V31.8738H4.89155Z" fill="white"/>
<path d="M24.8773 17.1763H11.1653C10.956 17.1763 10.7553 17.0932 10.6074 16.9452C10.4594 16.7973 10.3763 16.5966 10.3763 16.3874C10.3763 16.1781 10.4594 15.9774 10.6074 15.8295C10.7553 15.6815 10.956 15.5984 11.1653 15.5984H24.8773C25.0865 15.5984 25.2872 15.6815 25.4351 15.8295C25.5831 15.9774 25.6662 16.1781 25.6662 16.3874C25.6662 16.5966 25.5831 16.7973 25.4351 16.9452C25.2872 17.0932 25.0865 17.1763 24.8773 17.1763Z" fill="white"/>
<path d="M12.1753 7.23944V9.42563H14.2944V7.23944H15.5772V12.9286H14.2936V10.5483H12.1753V12.9286H10.8838V7.23944H12.1753Z" fill="white"/>
<path d="M17.9882 7.23944V12.9286H16.6999V7.23944H17.9882Z" fill="white"/>
<path d="M19.1051 12.9294V7.23944H20.6042L21.7876 9.32465C22.1413 9.95335 22.4533 10.6046 22.7217 11.2742H22.747C22.6659 10.486 22.6293 9.69399 22.6373 8.90177V7.23944H23.8207V12.9286H22.4653L21.2495 10.7337C20.885 10.0821 20.5553 9.41158 20.2618 8.72504L20.2365 8.73372C20.2704 9.4848 20.287 10.2872 20.287 11.2158V12.9294H19.1051Z" fill="white"/>
</svg>
