<svg width="40" height="40" viewBox="0 0 40 40" fill="none" xmlns="http://www.w3.org/2000/svg">
<path fill-rule="evenodd" clip-rule="evenodd" d="M20 38.4C30.162 38.4 38.4 30.162 38.4 20C38.4 9.83796 30.162 1.6 20 1.6C9.83796 1.6 1.6 9.83796 1.6 20C1.6 30.162 9.83796 38.4 20 38.4ZM20 40C31.0457 40 40 31.0457 40 20C40 8.95431 31.0457 0 20 0C8.95431 0 0 8.95431 0 20C0 31.0457 8.95431 40 20 40Z" fill="white"/>
<path d="M13.5641 12.766C14.4134 12.766 15.1674 12.9177 15.8261 13.221C16.4934 13.5243 17.0134 13.962 17.3861 14.534C17.7587 15.106 17.9451 15.7733 17.9451 16.536V16.757H16.3071V16.562C16.3071 16.016 16.1727 15.5653 15.9041 15.21C15.6441 14.846 15.3061 14.5773 14.8901 14.404C14.4741 14.2307 14.0321 14.144 13.5641 14.144C12.8274 14.144 12.1947 14.326 11.6661 14.69C11.1374 15.0453 10.8601 15.6087 10.8341 16.38H12.2901V17.784H10.8601V21.892V26H9.17005V17.784H7.72705V16.38H9.17005C9.19605 15.6173 9.39538 14.9673 9.76805 14.43C10.1494 13.884 10.6651 13.4723 11.3151 13.195C11.9737 12.909 12.7234 12.766 13.5641 12.766Z" fill="white"/>
<path d="M15.8598 20.124C15.5478 20.124 15.2964 20.1847 15.1058 20.306C14.9151 20.4273 14.8198 20.6267 14.8198 20.904C14.8198 21.0773 14.8674 21.229 14.9628 21.359C15.0581 21.489 15.1924 21.5887 15.3658 21.658C15.5478 21.6233 15.7688 21.606 16.0288 21.606C16.9128 21.606 17.6061 21.8227 18.1088 22.256C18.6114 22.6893 18.9061 23.244 18.9928 23.92H17.3808C17.3201 23.66 17.1684 23.4347 16.9258 23.244C16.6831 23.0447 16.3711 22.945 15.9898 22.945C15.5391 22.945 15.1751 23.088 14.8978 23.374C14.6291 23.66 14.4948 24.0283 14.4948 24.479C14.4948 24.947 14.6291 25.324 14.8978 25.61C15.1751 25.8873 15.5391 26.026 15.9898 26.026C16.3538 26.026 16.6571 25.935 16.8998 25.753C17.1511 25.5623 17.3114 25.337 17.3808 25.077H18.9928C18.9148 25.7703 18.6028 26.3337 18.0568 26.767C17.5194 27.2003 16.8304 27.417 15.9898 27.417C15.3484 27.417 14.7894 27.2913 14.3128 27.04C13.8448 26.7887 13.4851 26.442 13.2338 26C12.9824 25.5493 12.8568 25.0337 12.8568 24.453C12.8568 23.9417 12.9651 23.4867 13.1818 23.088C13.3984 22.6807 13.7061 22.3513 14.1048 22.1C13.8101 21.9353 13.5761 21.7273 13.4028 21.476C13.2381 21.216 13.1558 20.917 13.1558 20.579C13.1558 20.059 13.3464 19.6517 13.7278 19.357C14.1091 19.0623 14.6248 18.915 15.2748 18.915H16.5488V17.784H11.7388V16.38H19.8898V17.784H18.1608V20.124H15.8598Z" fill="white"/>
<path d="M19.6175 14.327C19.3315 14.327 19.0888 14.2273 18.8895 14.028C18.6988 13.8287 18.6035 13.5903 18.6035 13.313C18.6035 13.027 18.6988 12.7887 18.8895 12.598C19.0888 12.3987 19.3315 12.299 19.6175 12.299C19.9035 12.299 20.1461 12.3987 20.3455 12.598C20.5448 12.7887 20.6445 13.027 20.6445 13.313C20.6445 13.5903 20.5448 13.8287 20.3455 14.028C20.1461 14.2273 19.9035 14.327 19.6175 14.327Z" fill="white"/>
<path d="M24.0233 20.41C23.4513 20.41 22.9876 20.5573 22.6323 20.852C22.2769 21.138 22.0993 21.5453 22.0993 22.074C22.0993 22.5593 22.2423 22.945 22.5283 23.231C22.8143 23.517 23.1956 23.66 23.6723 23.66C24.0623 23.66 24.3959 23.5387 24.6733 23.296C24.9593 23.0447 25.1023 22.6937 25.1023 22.243H26.6493V26.338H25.0113V24.206C24.8206 24.4573 24.5693 24.6523 24.2573 24.791C23.9453 24.921 23.5899 24.986 23.1913 24.986C22.6713 24.986 22.1989 24.8733 21.7743 24.648C21.3496 24.4227 21.0116 24.089 20.7603 23.647C20.5089 23.205 20.3833 22.6677 20.3833 22.035C20.3833 21.385 20.5306 20.8303 20.8253 20.371C21.1286 19.903 21.5403 19.552 22.0603 19.318C22.5889 19.084 23.1826 18.967 23.8413 18.967H24.5043V17.784H19.3433V16.38H27.8193V17.784H26.1943V20.41H24.0233Z" fill="white"/>
<path d="M31.8535 16.38V17.784H30.4235V26H28.7335V17.784H27.2905V16.38H28.7855V15.873C28.7855 14.7463 28.3869 14.183 27.5895 14.183C27.1129 14.183 26.7879 14.3477 26.6145 14.677C26.4325 14.9977 26.3415 15.3963 26.3415 15.873V16.757H24.7035V15.951C24.7035 14.9717 24.9332 14.196 25.3925 13.624C25.8519 13.052 26.5842 12.766 27.5895 12.766C28.5949 12.766 29.3185 13.0563 29.7605 13.637C30.2025 14.209 30.4235 14.9803 30.4235 15.951V16.38H31.8535Z" fill="white"/>
</svg>
