<svg width="31" height="40" viewBox="0 0 31 40" fill="none" xmlns="http://www.w3.org/2000/svg">
<g clip-path="url(#clip0)">
<path d="M29.847 20.0055C29.6216 20.0056 29.4051 19.9181 29.2431 19.7614C29.0812 19.6048 28.9865 19.3913 28.9791 19.166V15.6497C28.9791 15.4195 29.0706 15.1988 29.2333 15.036C29.3961 14.8733 29.6168 14.7818 29.847 14.7818C30.0771 14.7818 30.2979 14.8733 30.4606 15.036C30.6234 15.1988 30.7148 15.4195 30.7148 15.6497V19.166C30.7075 19.3913 30.6128 19.6048 30.4508 19.7614C30.2889 19.9181 30.0723 20.0056 29.847 20.0055Z" fill="white"/>
<path d="M6.03556 31.8738C5.57245 31.8738 5.23241 31.458 5.23241 30.9949V0.79999C5.22922 0.6938 5.24783 0.588083 5.28711 0.489371C5.32638 0.390659 5.38548 0.301049 5.46075 0.226075C5.53602 0.151101 5.62586 0.0923567 5.72473 0.0534708C5.8236 0.0145848 5.92938 -0.00361679 6.03556 -9.66663e-06H29.8391C30.3022 -9.66663e-06 30.7156 0.336874 30.7156 0.79999V12.8315C30.7156 13.0617 30.6242 13.2825 30.4615 13.4452C30.2987 13.608 30.078 13.6994 29.8478 13.6994C29.6176 13.6994 29.3969 13.608 29.2341 13.4452C29.0714 13.2825 28.9799 13.0617 28.9799 12.8315V1.6568H6.88921V30.1381H28.9799V28.3124C28.9799 28.0822 29.0714 27.8615 29.2341 27.6988C29.3969 27.536 29.6176 27.4446 29.8478 27.4446C30.078 27.4446 30.2987 27.536 30.4615 27.6988C30.6242 27.8615 30.7156 28.0822 30.7156 28.3124V30.9949C30.7086 31.2253 30.614 31.4444 30.4512 31.6077C30.2884 31.7709 30.0695 31.866 29.8391 31.8738H6.03556Z" fill="white"/>
<path d="M29.847 30.4371C29.6216 30.4372 29.4051 30.3497 29.2431 30.193C29.0812 30.0364 28.9865 29.8228 28.9791 29.5976V26.0868C28.9791 25.8566 29.0706 25.6359 29.2333 25.4731C29.3961 25.3104 29.6168 25.2189 29.847 25.2189C30.0771 25.2189 30.2979 25.3104 30.4606 25.4731C30.6234 25.6359 30.7148 25.8566 30.7148 26.0868V29.5976C30.7075 29.8228 30.6128 30.0364 30.4508 30.193C30.2889 30.3497 30.0723 30.4372 29.847 30.4371Z" fill="white"/>
<path d="M0.853716 35.8975C0.744083 35.8971 0.635595 35.8751 0.534506 35.8327C0.433416 35.7903 0.341725 35.7283 0.264718 35.6502C0.18771 35.5722 0.12691 35.4797 0.0858212 35.378C0.0447325 35.2764 0.0241682 35.1676 0.0253139 35.058V4.74478C0.0232276 4.1209 0.144609 3.50278 0.382466 2.92602C0.620322 2.34926 0.969952 1.82527 1.41121 1.38423C1.85247 0.943186 2.37664 0.593818 2.95352 0.356249C3.53039 0.11868 4.14858 -0.00239302 4.77245 4.40176e-06H6.03478C6.25449 4.40176e-06 6.46519 0.0872823 6.62055 0.242638C6.7759 0.397994 6.86318 0.608701 6.86318 0.828407C6.86318 1.04811 6.7759 1.25882 6.62055 1.41418C6.46519 1.56953 6.25449 1.65681 6.03478 1.65681H4.77245C4.36655 1.65608 3.9645 1.73547 3.58934 1.89042C3.21418 2.04536 2.87328 2.27283 2.58619 2.55977C2.29911 2.84671 2.07147 3.18749 1.91633 3.56257C1.76119 3.93765 1.6816 4.33967 1.68212 4.74557V35.058C1.68326 35.1676 1.6627 35.2764 1.62161 35.378C1.58052 35.4797 1.51972 35.5722 1.44271 35.6502C1.36571 35.7283 1.27402 35.7903 1.17293 35.8327C1.07184 35.8751 0.963349 35.8971 0.853716 35.8975Z" fill="white"/>
<path d="M4.89155 40L4.9168 39.6844V39.9605C4.27085 39.9639 3.63064 39.8392 3.03312 39.5938C2.43559 39.3484 1.8926 38.9871 1.43547 38.5307C0.978344 38.0743 0.61614 37.5319 0.369767 36.9348C0.123394 36.3376 -0.0022697 35.6976 3.10297e-05 35.0517C3.10297e-05 32.3471 2.18386 30.1381 4.88682 30.1381H29.8391C30.0674 30.1406 30.2859 30.231 30.4492 30.3906C30.6125 30.5502 30.7079 30.7667 30.7156 30.9949V39.1211C30.7085 39.3515 30.614 39.5706 30.4512 39.7339C30.2884 39.8971 30.0695 39.9923 29.8391 40H4.89155ZM4.89155 31.8738C4.46957 31.872 4.05139 31.9534 3.66092 32.1134C3.27045 32.2734 2.91536 32.5088 2.61595 32.8062C2.31654 33.1036 2.0787 33.457 1.91602 33.8464C1.75334 34.2357 1.66902 34.6534 1.66788 35.0753C1.66828 35.4966 1.75206 35.9136 1.91439 36.3023C2.07672 36.6911 2.31439 37.0438 2.61369 37.3403C2.91299 37.6367 3.26802 37.871 3.65829 38.0296C4.04856 38.1882 4.46636 38.2679 4.88761 38.2643H28.9799V31.8738H4.89155Z" fill="white"/>
<path d="M24.8774 20.1763H11.1654C10.9562 20.1763 10.7555 20.0932 10.6075 19.9452C10.4596 19.7973 10.3765 19.5966 10.3765 19.3874C10.3765 19.1781 10.4596 18.9775 10.6075 18.8295C10.7555 18.6815 10.9562 18.5984 11.1654 18.5984H24.8774C25.0867 18.5984 25.2874 18.6815 25.4353 18.8295C25.5833 18.9775 25.6664 19.1781 25.6664 19.3874C25.6664 19.5966 25.5833 19.7973 25.4353 19.9452C25.2874 20.0932 25.0867 20.1763 24.8774 20.1763Z" fill="white"/>
<path d="M14.456 5.75201C15.0213 5.75201 15.5147 5.85601 15.936 6.06401C16.3573 6.27201 16.6827 6.56268 16.912 6.93601C17.1413 7.30935 17.256 7.73601 17.256 8.21601V8.36001H16.032V8.24001C16.032 7.92001 15.9573 7.65068 15.808 7.43201C15.664 7.21335 15.472 7.05068 15.232 6.94401C14.9973 6.83201 14.7387 6.77601 14.456 6.77601C14.0347 6.77601 13.6747 6.88535 13.376 7.10401C13.0827 7.32268 12.9227 7.64801 12.896 8.08001H13.688V9.12801H12.912V14H11.648V9.12801H10.864V8.08001H11.648C11.6693 7.61068 11.7947 7.20001 12.024 6.84801C12.2587 6.49601 12.584 6.22668 13 6.04001C13.416 5.84801 13.9013 5.75201 14.456 5.75201Z" fill="white"/>
<path d="M15.9547 10.576C15.8107 10.576 15.6907 10.608 15.5947 10.672C15.504 10.7307 15.4587 10.8267 15.4587 10.96C15.4587 11.1147 15.5307 11.2293 15.6747 11.304C15.7867 11.288 15.904 11.28 16.0267 11.28C16.592 11.28 17.0294 11.416 17.3387 11.688C17.6534 11.96 17.8374 12.32 17.8907 12.768H16.6907C16.6587 12.6347 16.5814 12.52 16.4587 12.424C16.336 12.3227 16.1814 12.272 15.9947 12.272C15.7814 12.272 15.6054 12.344 15.4667 12.488C15.328 12.632 15.2587 12.824 15.2587 13.064C15.2587 13.3093 15.3254 13.504 15.4587 13.648C15.5974 13.7867 15.776 13.856 15.9947 13.856C16.176 13.856 16.328 13.8107 16.4507 13.72C16.5734 13.6293 16.6534 13.5173 16.6907 13.384H17.8907C17.848 13.8427 17.6534 14.208 17.3067 14.48C16.9654 14.7573 16.528 14.896 15.9947 14.896C15.6 14.896 15.2534 14.8187 14.9547 14.664C14.656 14.5147 14.4267 14.2987 14.2667 14.016C14.1067 13.7333 14.0267 13.408 14.0267 13.04C14.0267 12.7307 14.088 12.456 14.2107 12.216C14.3387 11.976 14.52 11.7813 14.7547 11.632C14.392 11.4133 14.2107 11.104 14.2107 10.704C14.2107 10.3947 14.3254 10.1467 14.5547 9.96001C14.7894 9.77335 15.1067 9.68001 15.5067 9.68001H16.1467V9.12801H13.4187V8.08001H18.3707V9.12801H17.3467V10.576H15.9547Z" fill="white"/>
<path d="M18.3218 7.49601C18.1192 7.49601 17.9458 7.42668 17.8018 7.28801C17.6632 7.14401 17.5938 6.97068 17.5938 6.76801C17.5938 6.56535 17.6632 6.39468 17.8018 6.25601C17.9458 6.11201 18.1192 6.04001 18.3218 6.04001C18.5245 6.04001 18.6978 6.11201 18.8418 6.25601C18.9858 6.39468 19.0578 6.56535 19.0578 6.76801C19.0578 6.97068 18.9858 7.14401 18.8418 7.28801C18.6978 7.42668 18.5245 7.49601 18.3218 7.49601Z" fill="white"/>
<path d="M20.9224 10.84C20.6291 10.84 20.3917 10.9173 20.2104 11.072C20.0344 11.2213 19.9464 11.4293 19.9464 11.696C19.9464 11.936 20.0157 12.128 20.1544 12.272C20.2984 12.416 20.4904 12.488 20.7304 12.488C20.9331 12.488 21.1037 12.424 21.2424 12.296C21.3811 12.1627 21.4504 11.9813 21.4504 11.752H22.6184V14.264H21.3864V13.08C21.2744 13.208 21.1304 13.3067 20.9544 13.376C20.7784 13.4453 20.5811 13.48 20.3624 13.48C20.0531 13.48 19.7677 13.4133 19.5064 13.28C19.2504 13.1413 19.0451 12.936 18.8904 12.664C18.7357 12.3867 18.6584 12.0533 18.6584 11.664C18.6584 11.264 18.7491 10.92 18.9304 10.632C19.1117 10.344 19.3624 10.128 19.6824 9.98401C20.0077 9.83468 20.3757 9.76001 20.7864 9.76001H21.0904V9.12801H18.0984V8.08001H23.2664L23.2584 9.12801H22.3544V10.84H20.9224Z" fill="white"/>
<path d="M25.8208 8.08001V9.12801H25.0448V14H23.7808V9.12801H22.9968V8.08001H23.8208V7.77601C23.8208 7.13068 23.5968 6.80801 23.1488 6.80801C22.6795 6.80801 22.4448 7.13068 22.4448 7.77601V8.35201H21.2208V7.84001C21.2208 7.19468 21.3755 6.68535 21.6848 6.31201C21.9888 5.93868 22.4768 5.75201 23.1488 5.75201C23.8208 5.75201 24.3035 5.94135 24.5968 6.32001C24.8955 6.69335 25.0448 7.20001 25.0448 7.84001V8.08001H25.8208Z" fill="white"/>
</g>
<defs>
<clipPath id="clip0">
<rect width="30.7156" height="40" fill="white"/>
</clipPath>
</defs>
</svg>
