<svg width="40" height="40" viewBox="0 0 40 40" fill="none" xmlns="http://www.w3.org/2000/svg">
<path d="M35.2344 5.85938C35.2344 2.62852 32.6059 0 29.375 0H10.625C7.39414 0 4.76562 2.62852 4.76562 5.85938C4.76562 8.68898 6.78187 11.0564 9.45312 11.6009V12.8906C9.45312 14.4184 10.4329 15.7209 11.7969 16.2047V37.6562H10.625C9.97781 37.6562 9.45312 38.1809 9.45312 38.8281C9.45312 39.4753 9.97781 40 10.625 40H29.375C30.0222 40 30.5469 39.4753 30.5469 38.8281C30.5469 38.1809 30.0222 37.6562 29.375 37.6562H28.2031V16.2047C29.5671 15.7209 30.5469 14.4184 30.5469 12.8906V11.6009C33.2181 11.0564 35.2344 8.68898 35.2344 5.85938ZM14.1406 37.6562V16.4062H25.8594V37.6562H14.1406ZM28.2031 12.8906C28.2031 13.5368 27.6774 14.0625 27.0312 14.0625H12.9688C12.3226 14.0625 11.7969 13.5368 11.7969 12.8906V11.7188H28.2031V12.8906ZM29.375 9.375C28.7288 9.375 28.2031 8.8493 28.2031 8.20312C28.2031 7.55695 28.7288 7.03125 29.375 7.03125C30.0222 7.03125 30.5469 6.50656 30.5469 5.85938C30.5469 5.21219 30.0222 4.6875 29.375 4.6875C27.4365 4.6875 25.8594 6.26461 25.8594 8.20312C25.8594 8.61391 25.9309 9.0082 26.0609 9.375H13.9391C14.0691 9.0082 14.1406 8.61391 14.1406 8.20312C14.1406 6.26461 12.5635 4.6875 10.625 4.6875C9.97781 4.6875 9.45312 5.21219 9.45312 5.85938C9.45312 6.50656 9.97781 7.03125 10.625 7.03125C11.2712 7.03125 11.7969 7.55695 11.7969 8.20312C11.7969 8.8493 11.2712 9.375 10.625 9.375C8.68648 9.375 7.10938 7.79789 7.10938 5.85938C7.10938 3.92086 8.68648 2.34375 10.625 2.34375H29.375C31.3135 2.34375 32.8906 3.92086 32.8906 5.85938C32.8906 7.79789 31.3135 9.375 29.375 9.375Z" fill="white"/>
<path d="M17.6562 18.75C17.0091 18.75 16.4844 19.2747 16.4844 19.9219V34.1406C16.4844 34.7878 17.0091 35.3125 17.6562 35.3125C18.3034 35.3125 18.8281 34.7878 18.8281 34.1406V19.9219C18.8281 19.2747 18.3034 18.75 17.6562 18.75Z" fill="white"/>
<path d="M22.3438 18.75C21.6966 18.75 21.1719 19.2747 21.1719 19.9219V34.1406C21.1719 34.7878 21.6966 35.3125 22.3438 35.3125C22.9909 35.3125 23.5156 34.7878 23.5156 34.1406V19.9219C23.5156 19.2747 22.9909 18.75 22.3438 18.75Z" fill="white"/>
</svg>
