<svg width="40" height="40" viewBox="0 0 40 40" fill="none" xmlns="http://www.w3.org/2000/svg">
<g clip-path="url(#clip0)">
<path d="M3.66707 40C3.4314 40.0013 3.20479 39.9093 3.03664 39.7442C2.86848 39.579 2.77242 39.3541 2.76938 39.1185V36.6254C2.76508 36.4174 2.82645 36.2134 2.94476 36.0423L5.00015 33.2154V28.6269C5.00015 28.3923 5.09335 28.1673 5.25924 28.0014C5.42514 27.8355 5.65015 27.7423 5.88476 27.7423C6.11938 27.7423 6.34438 27.8355 6.51028 28.0014C6.67618 28.1673 6.76938 28.3923 6.76938 28.6269V32.6154H15.6925V13.8869C15.6925 13.6523 15.7857 13.4273 15.9516 13.2614C16.1174 13.0955 16.3425 13.0023 16.5771 13.0023C16.8117 13.0023 17.0367 13.0955 17.2026 13.2614C17.3685 13.4273 17.4617 13.6523 17.4617 13.8869V33.2408L19.5078 36.0416C19.6291 36.2123 19.6936 36.4168 19.6925 36.6262V39.1185C19.6902 39.3537 19.5949 39.5785 19.4274 39.7437C19.2599 39.9089 19.0339 40.0011 18.7986 40H3.66707ZM17.9232 38.2308V37.4616H4.53861V38.2308H17.9232ZM17.0663 35.6923L16.154 34.3846H6.31245L5.39938 35.6923H17.0663Z" fill="white"/>
<path d="M11.2693 31.1538C11.1529 31.1536 11.0377 31.1305 10.9303 31.0858C10.8228 31.0411 10.7253 30.9756 10.6431 30.8932C10.561 30.8108 10.4959 30.713 10.4515 30.6054C10.4072 30.4978 10.3844 30.3825 10.3846 30.2661V7.64076C10.3846 7.40615 10.4778 7.18114 10.6437 7.01525C10.8096 6.84935 11.0346 6.75615 11.2693 6.75615C11.5039 6.75615 11.7289 6.84935 11.8948 7.01525C12.0607 7.18114 12.1539 7.40615 12.1539 7.64076V30.2661C12.1541 30.3825 12.1314 30.4978 12.087 30.6054C12.0427 30.713 11.9776 30.8108 11.8954 30.8932C11.8133 30.9756 11.7157 31.0411 11.6083 31.0858C11.5008 31.1305 11.3856 31.1536 11.2693 31.1538Z" fill="white"/>
<path d="M8.6539 31.1538C8.53753 31.1536 8.42234 31.1305 8.3149 31.0858C8.20747 31.0411 8.10989 30.9756 8.02775 30.8932C7.9456 30.8108 7.8805 30.713 7.83615 30.6054C7.79181 30.4978 7.76909 30.3825 7.76929 30.2661V7.64076C7.76929 7.40615 7.86249 7.18114 8.02839 7.01525C8.19428 6.84935 8.41929 6.75615 8.6539 6.75615C8.88852 6.75615 9.11352 6.84935 9.27942 7.01525C9.44532 7.18114 9.53852 7.40615 9.53852 7.64076V30.2661C9.53872 30.3825 9.516 30.4978 9.47165 30.6054C9.4273 30.713 9.3622 30.8108 9.28006 30.8932C9.19791 30.9756 9.10034 31.0411 8.9929 31.0858C8.88546 31.1305 8.77027 31.1536 8.6539 31.1538Z" fill="white"/>
<path d="M13.8077 31.1538C13.6913 31.1536 13.5761 31.1305 13.4687 31.0858C13.3613 31.0411 13.2637 30.9756 13.1816 30.8932C13.0994 30.8108 13.0343 30.713 12.99 30.6054C12.9456 30.4978 12.9229 30.3825 12.9231 30.2661V7.64076C12.9231 7.40615 13.0163 7.18114 13.1822 7.01525C13.3481 6.84935 13.5731 6.75615 13.8077 6.75615C14.0423 6.75615 14.2673 6.84935 14.4332 7.01525C14.5991 7.18114 14.6923 7.40615 14.6923 7.64076V30.2661C14.6925 30.3825 14.6698 30.4978 14.6255 30.6054C14.5811 30.713 14.516 30.8108 14.4339 30.8932C14.3517 30.9756 14.2542 31.0411 14.1467 31.0858C14.0393 31.1305 13.9241 31.1536 13.8077 31.1538Z" fill="white"/>
<path d="M23.8992 40C23.6634 40.0013 23.4366 39.9094 23.2682 39.7443C23.0998 39.5792 23.0034 39.3543 23 39.1185V36.6308C23.0001 36.4212 23.066 36.217 23.1885 36.047L25.2308 33.2531V24.5716C25.2308 24.3369 25.324 24.1119 25.4899 23.946C25.6558 23.7801 25.8808 23.6869 26.1154 23.6869C26.35 23.6869 26.575 23.7801 26.7409 23.946C26.9068 24.1119 27 24.3369 27 24.5716V32.6154H35.9231V16.2539L35.2115 16.5885C35.0912 16.6449 34.9599 16.6743 34.8269 16.6746C34.6429 16.6748 34.4633 16.6178 34.3131 16.5115L31.2585 14.3523L28.5538 14.9492C28.4909 14.9631 28.4267 14.9701 28.3623 14.97C28.2255 14.9695 28.0907 14.9363 27.9693 14.8733C27.8478 14.8103 27.7431 14.7193 27.6638 14.6077L27.0015 13.6846V22.2577C27.0015 22.4923 26.9083 22.7173 26.7424 22.8832C26.5765 23.0491 26.3515 23.1423 26.1169 23.1423C25.8823 23.1423 25.6573 23.0491 25.4914 22.8832C25.3255 22.7173 25.2323 22.4923 25.2323 22.2577V10.9769C25.2285 10.7916 25.2839 10.61 25.3906 10.4585C25.4973 10.3069 25.6496 10.1935 25.8254 10.1346C25.9114 10.1055 26.0015 10.0907 26.0923 10.0908C26.2309 10.091 26.3676 10.1239 26.4911 10.1868C26.6146 10.2498 26.7215 10.341 26.8031 10.4531L28.7385 13.0939L31.2577 12.5385C31.3782 12.5118 31.5029 12.5106 31.6238 12.535C31.7448 12.5593 31.8593 12.6087 31.96 12.68L34.91 14.7662L36.4108 14.0515C36.5298 13.995 36.6598 13.9656 36.7915 13.9654C36.9615 13.9651 37.128 14.0126 37.2723 14.1023C37.3999 14.1815 37.5054 14.2918 37.5789 14.4228C37.6523 14.5538 37.6913 14.7013 37.6923 14.8515V33.2493L39.6977 36.047C39.8192 36.2154 39.8462 36.4216 39.8462 36.6308V39.1193C39.8479 39.2344 39.8267 39.3487 39.7838 39.4555C39.7409 39.5623 39.6772 39.6596 39.5964 39.7416C39.5156 39.8235 39.4193 39.8886 39.313 39.933C39.2068 39.9774 39.0928 40.0001 38.9777 40H23.8992ZM38.0769 38.2308V37.4616H24.7692V38.2308H38.0769ZM37.2477 35.6923L36.3408 34.4616H26.5385L25.6308 35.6923H37.2477Z" fill="white"/>
<path d="M31.4231 31.1538C31.3067 31.1536 31.1915 31.1305 31.0841 31.0858C30.9766 31.0411 30.8791 30.9756 30.7969 30.8932C30.7148 30.8108 30.6497 30.713 30.6053 30.6054C30.561 30.4978 30.5383 30.3825 30.5385 30.2662V17.5992C30.5385 17.3646 30.6317 17.1396 30.7976 16.9737C30.9635 16.8078 31.1885 16.7146 31.4231 16.7146C31.6577 16.7146 31.8827 16.8078 32.0486 16.9737C32.2145 17.1396 32.3077 17.3646 32.3077 17.5992V30.2662C32.3079 30.3825 32.2852 30.4978 32.2408 30.6054C32.1965 30.713 32.1314 30.8108 32.0492 30.8932C31.9671 30.9756 31.8695 31.0411 31.7621 31.0858C31.6546 31.1305 31.5394 31.1536 31.4231 31.1538Z" fill="white"/>
<path d="M28.8846 31.1538C28.7682 31.1536 28.6531 31.1305 28.5456 31.0858C28.4382 31.0411 28.3406 30.9756 28.2585 30.8932C28.1763 30.8108 28.1112 30.713 28.0669 30.6054C28.0225 30.4978 27.9998 30.3825 28 30.2662V17.5992C28 17.3646 28.0932 17.1396 28.2591 16.9737C28.425 16.8078 28.65 16.7146 28.8846 16.7146C29.1192 16.7146 29.3442 16.8078 29.5101 16.9737C29.676 17.1396 29.7692 17.3646 29.7692 17.5992V30.2662C29.7694 30.3825 29.7467 30.4978 29.7024 30.6054C29.658 30.713 29.5929 30.8108 29.5108 30.8932C29.4286 30.9756 29.3311 31.0411 29.2236 31.0858C29.1162 31.1305 29.001 31.1536 28.8846 31.1538Z" fill="white"/>
<path d="M33.9615 31.1538C33.8452 31.1536 33.73 31.1305 33.6225 31.0858C33.5151 31.0411 33.4175 30.9756 33.3354 30.8932C33.2532 30.8108 33.1881 30.713 33.1438 30.6054C33.0994 30.4978 33.0767 30.3825 33.0769 30.2662V17.5992C33.0769 17.3646 33.1701 17.1396 33.336 16.9737C33.5019 16.8078 33.7269 16.7146 33.9615 16.7146C34.1961 16.7146 34.4211 16.8078 34.587 16.9737C34.7529 17.1396 34.8461 17.3646 34.8461 17.5992V30.2662C34.8463 30.3825 34.8236 30.4978 34.7793 30.6054C34.7349 30.713 34.6698 30.8108 34.5877 30.8932C34.5055 30.9756 34.408 31.0411 34.3005 31.0858C34.1931 31.1305 34.0779 31.1536 33.9615 31.1538Z" fill="white"/>
<path d="M5.88464 27.1985C5.64989 27.1981 5.42489 27.1045 5.25903 26.9384C5.09318 26.7722 5.00003 26.5471 5.00003 26.3123V7.65231C4.46157 7.92154 3.95234 8.06615 3.38464 8.06615C2.48629 8.06452 1.6253 7.70646 0.990713 7.07058C0.356128 6.43469 -0.000177419 5.57297 2.78614e-05 4.67461V0.890769C-0.00211096 0.77527 0.0186521 0.66049 0.061118 0.55306C0.103584 0.445629 0.166911 0.347675 0.247444 0.264854C0.327976 0.182033 0.424117 0.115986 0.530316 0.0705273C0.636515 0.0250683 0.750667 0.0010978 0.866182 0L21.6154 0C22.1039 0 22.5385 0.402308 22.5385 0.890769V4.67461C22.5385 6.54461 20.9839 8.06615 19.1139 8.06615C18.5383 8.06028 17.9722 7.91876 17.4616 7.65308V11.5762C17.4616 11.8108 17.3684 12.0358 17.2025 12.2017C17.0366 12.3676 16.8116 12.4608 16.577 12.4608C16.3423 12.4608 16.1173 12.3676 15.9514 12.2017C15.7855 12.0358 15.6923 11.8108 15.6923 11.5762V5.53846H6.76926V26.3123C6.76926 26.5471 6.67611 26.7722 6.51025 26.9384C6.3444 27.1045 6.1194 27.1981 5.88464 27.1985ZM17.4939 4.73077C17.5012 5.11675 17.6466 5.48732 17.9036 5.77538C18.1606 6.06343 18.5123 6.24992 18.895 6.30106C19.2776 6.3522 19.6659 6.26462 19.9896 6.05418C20.3132 5.84373 20.5508 5.52434 20.6593 5.15385C20.5213 5.44235 20.3053 5.68644 20.0357 5.85843C19.7661 6.03042 19.4536 6.12343 19.1339 6.12692C18.9686 6.12774 18.8044 6.10016 18.6485 6.04538C18.4431 5.97225 18.2719 5.82599 18.1676 5.63457C18.0633 5.44315 18.0333 5.22 18.0831 5.00779C18.133 4.79559 18.2594 4.60921 18.438 4.48431C18.6167 4.35941 18.8351 4.30475 19.0516 4.33077C19.0369 4.18412 18.9686 4.04806 18.8597 3.94879C18.7507 3.84952 18.6089 3.79406 18.4616 3.79308C18.2103 3.79392 17.9692 3.89206 17.7887 4.0669C17.6083 4.24174 17.5026 4.47968 17.4939 4.73077ZM1.85849 5.25231C1.98519 5.59375 2.22355 5.88237 2.5349 6.07131C2.84624 6.26026 3.2123 6.33845 3.57368 6.2932C3.93505 6.24796 4.27053 6.08192 4.52567 5.82204C4.78082 5.56216 4.94066 5.22368 4.97926 4.86154C4.97516 4.82785 4.9731 4.79394 4.9731 4.76C4.9729 4.50375 4.87107 4.25805 4.68995 4.07678C4.50882 3.89551 4.2632 3.79348 4.00695 3.79308C3.85953 3.79322 3.71737 3.84792 3.60787 3.94662C3.49836 4.04533 3.42926 4.18107 3.41387 4.32769C3.63031 4.30167 3.84874 4.35633 4.0274 4.48124C4.20606 4.60614 4.33242 4.79251 4.3823 5.00472C4.43219 5.21692 4.40211 5.44007 4.29781 5.63149C4.19351 5.82292 4.02231 5.96918 3.81695 6.04231C3.661 6.09702 3.49683 6.1246 3.33157 6.12385C3.03117 6.12049 2.73693 6.03821 2.47838 5.88523C2.21983 5.73226 2.00605 5.51399 1.85849 5.25231ZM15.8985 3.76923C16.2985 2.76923 17.3008 2.01077 18.4369 2.01077C19.51 2.01077 20.4585 2.73769 20.6893 3.71769V1.76923H1.76926V3.66231C1.9212 3.18505 2.22039 2.76817 2.62391 2.47147C3.02744 2.17477 3.51456 2.01349 4.01541 2.01077C5.15387 2.01077 6.16695 2.76923 6.56695 3.76923H15.8985Z" fill="white"/>
</g>
<defs>
<clipPath id="clip0">
<rect width="39.8462" height="40" fill="white"/>
</clipPath>
</defs>
</svg>
