<svg width="40" height="40" viewBox="0 0 40 40" fill="none" xmlns="http://www.w3.org/2000/svg">
<path d="M32.5649 38.5155C28.0483 36.3319 24.3076 32.6657 22.0321 28.1925C21.9278 27.9875 21.7384 27.8388 21.5145 27.7862C21.2908 27.7336 21.0549 27.7823 20.8702 27.9194C20.7452 28.0121 20.5908 28.1247 20.4321 28.2395C20.1977 28.4091 19.8019 28.4091 19.5674 28.2395C19.409 28.1248 19.2547 28.0123 19.1296 27.9195C18.9449 27.7824 18.7092 27.7338 18.4852 27.7863C18.2613 27.8389 18.072 27.9876 17.9677 28.1926C15.6921 32.6658 11.9515 36.3318 7.43493 38.5154C7.10697 38.6739 6.93212 39.0381 7.01345 39.3931C7.09478 39.7483 7.41072 40 7.77501 40H32.225C32.5894 40 32.9053 39.7483 32.9865 39.3932C33.0678 39.0381 32.8929 38.674 32.5649 38.5155ZM10.7524 38.4375C14.1418 36.2426 16.9787 33.2202 18.9443 29.6831C19.596 30.0114 20.4038 30.0113 21.0556 29.6831C23.0211 33.2202 25.858 36.2425 29.2475 38.4375H10.7524Z" fill="white"/>
<path d="M23.9729 15.3996H23.1893C22.7579 15.3996 22.4081 15.7494 22.4081 16.1809C22.4081 16.6123 22.7579 16.9621 23.1893 16.9621H23.9729C24.4044 16.9621 24.7542 16.6123 24.7542 16.1809C24.7542 15.7494 24.4043 15.3996 23.9729 15.3996Z" fill="white"/>
<path d="M16.8104 15.3996H16.0267C15.5952 15.3996 15.2455 15.7494 15.2455 16.1809C15.2455 16.6123 15.5952 16.9621 16.0267 16.9621H16.8104C17.2419 16.9621 17.5917 16.6123 17.5917 16.1809C17.5917 15.7494 17.242 15.3996 16.8104 15.3996Z" fill="white"/>
<path d="M20 5.49625C19.5685 5.49625 19.2188 5.84601 19.2188 6.2775V7.21781C19.2188 7.64929 19.5685 7.99906 20 7.99906C20.4314 7.99906 20.7812 7.64929 20.7812 7.21781V6.2775C20.7812 5.84601 20.4314 5.49625 20 5.49625Z" fill="white"/>
<path d="M13.0773 9.87391H13.0774C13.0769 9.87188 13.0764 9.86985 13.0773 9.87391Z" fill="white"/>
<path d="M31.0741 25.7816C31.0285 25.7734 30.9823 25.7692 30.9358 25.7692H26.631C27.8731 24.6593 28.5723 23.1558 28.6586 21.3979C28.6973 20.6102 28.6037 19.9248 28.5124 19.4697C28.8618 18.4966 29.0387 17.4775 29.0387 16.4369L29.0373 12.3084C29.0373 11.3659 28.8928 10.4393 28.6075 9.55062L29.6586 5.19547C29.7149 4.96234 29.6609 4.71625 29.5123 4.52805C29.3641 4.34039 29.1382 4.23094 28.8991 4.23094H28.8969L27.682 4.23438C27.1392 2.31391 25.3845 0.963672 23.3473 0.963672C22.719 0.963672 22.1171 1.08828 21.5531 1.33461C21.4535 1.21844 21.3514 1.10281 21.2466 0.988125L20.5765 0.254375C20.4286 0.0923438 20.2193 0 19.9997 0C19.7801 0 19.5708 0.0923438 19.4228 0.254375L18.7527 0.988203C18.6481 1.10281 18.5461 1.21836 18.4465 1.33461C17.8826 1.08836 17.2805 0.96375 16.6523 0.96375C14.6154 0.96375 12.861 2.31344 12.3178 4.23336L11.1016 4.23164H11.1005C10.8613 4.23164 10.6352 4.34125 10.487 4.52914C10.3387 4.71734 10.2848 4.9632 10.3411 5.19617L11.3921 9.55117C11.1069 10.4397 10.9624 11.366 10.9624 12.3085L10.961 16.437C10.961 17.4776 11.138 18.4966 11.4873 19.4696C11.3958 19.9248 11.3023 20.6101 11.341 21.3979C11.4273 23.1559 12.1264 24.6594 13.3685 25.7693H9.06397C9.01764 25.7693 8.97131 25.7734 8.92569 25.7816C6.35374 26.2441 4.48694 28.4763 4.48694 31.0896V39.2188C4.48694 39.6502 4.8367 40 5.26819 40H34.7317C35.1631 40 35.513 39.6502 35.513 39.2188V31.0895C35.5129 28.4763 33.6462 26.2439 31.0741 25.7816ZM30.863 27.3318C32.656 27.6858 33.9504 29.2556 33.9504 31.0895V33.5764C31.3447 32.0971 29.1598 29.9277 27.662 27.3318H30.863ZM23.3473 2.52617C24.568 2.52617 25.6333 3.26758 26.0749 4.35766C25.3986 4.46836 24.6539 4.67188 23.9678 5.03672C23.6314 4.35422 23.164 3.50961 22.5544 2.63305C22.8094 2.56203 23.0744 2.52617 23.3473 2.52617ZM16.6523 2.52617C16.9258 2.52617 17.1913 2.56211 17.4466 2.63344C16.8401 3.50758 16.3723 4.35289 16.0346 5.03687C15.3477 4.67031 14.6024 4.46617 13.9255 4.35547C14.3677 3.26664 15.4324 2.52617 16.6523 2.52617ZM12.404 5.79594C13.2531 5.79711 14.831 5.92781 15.8588 6.78953C16.0479 6.94805 16.3008 7.00812 16.5408 6.95102C16.7809 6.89414 16.9801 6.72719 17.078 6.50063C17.4948 5.5357 18.4166 3.67344 19.9065 2.0418L19.9998 1.93969L20.0929 2.04172C21.5955 3.68711 22.5105 5.54031 22.9223 6.49852C23.0198 6.72531 23.2187 6.89273 23.4587 6.95C23.6987 7.00719 23.9519 6.94781 24.1412 6.78937C25.1669 5.93172 26.7453 5.79953 27.5948 5.79711L27.9062 5.79625L26.922 9.87391H13.0775C13.0786 9.87789 13.078 9.87594 13.0775 9.87391L12.093 5.79539L12.404 5.79594ZM27.4748 12.3084V13.3467C25.7295 13.3552 23.3446 13.3663 21.2638 13.0484C19.2681 12.7434 17.9466 12.202 17.3258 11.4366H27.4244C27.458 11.7246 27.4748 12.0155 27.4748 12.3084ZM12.5249 12.3084C12.5249 12.0155 12.5418 11.7245 12.5753 11.4365H15.5395C14.6717 12.8102 13.3419 13.2041 12.525 13.3121L12.5249 12.3084ZM12.5235 16.437V14.8827C13.5298 14.7824 15.2283 14.3707 16.4769 12.8123C17.4107 13.6837 18.9137 14.2699 21.0277 14.593C23.2268 14.9291 25.6799 14.9181 27.4762 14.9093V16.437C27.4762 17.133 27.3805 17.8173 27.1909 18.4788C27.146 18.5088 27.1038 18.5436 27.0653 18.583C26.2096 19.459 25.1076 20.4601 24.6158 20.7673C24.3633 20.6366 23.9482 20.4248 23.516 20.2169C22.1333 19.5519 21.7219 19.4468 21.3148 19.6551L20.2815 20.1837C20.1157 20.2684 19.8841 20.2685 19.7183 20.1837L18.6849 19.6551C18.2778 19.4468 17.8664 19.5518 16.4837 20.2169C16.0515 20.4248 15.6365 20.6366 15.384 20.7673C14.8921 20.4601 13.79 19.459 12.9344 18.583C12.8958 18.5436 12.8537 18.5088 12.8087 18.4789C12.6194 17.8173 12.5235 17.133 12.5235 16.437ZM12.8955 20.7245C13.0147 20.8355 13.1387 20.9491 13.2644 21.0619C14.3316 22.0188 15.2097 22.7166 15.912 22.2539C16.7533 21.8106 17.7717 21.3193 18.2034 21.1637L19.0068 21.5747C19.6194 21.8881 20.3805 21.888 20.9932 21.5747L21.7965 21.1637C22.2281 21.3193 23.2465 21.8105 24.0878 22.2539C24.7898 22.7166 25.6681 22.0188 26.7354 21.0619C26.859 20.9509 26.9812 20.8391 27.0985 20.7298C27.1524 21.8865 26.9093 23.5498 25.3988 24.7663C25.0962 24.984 25.0642 25.3266 25.0463 25.5181C25.0293 25.7008 25.0055 25.9565 24.8949 26.2247C24.889 26.2377 24.8833 26.2509 24.878 26.2642C24.6033 26.8843 23.8471 27.5549 21.6306 27.5373C21.4226 27.5334 21.2219 27.617 21.074 27.7638C21.0726 27.7652 21.0712 27.7666 21.0697 27.768C21.0436 27.7887 20.9893 27.8308 20.8797 27.9122C20.8733 27.9168 20.867 27.9215 20.8608 27.9263C20.7633 27.9984 20.6258 28.0992 20.432 28.2395C20.1976 28.4091 19.8017 28.4091 19.5673 28.2395C19.3738 28.0995 19.2365 27.9988 19.1391 27.9266C19.1327 27.9217 19.1262 27.9169 19.1197 27.9122C19.0101 27.8308 18.9558 27.7887 18.9298 27.768L18.9255 27.7638C18.7776 27.6171 18.5796 27.5336 18.3688 27.5373C15.1471 27.5634 15.0103 26.1304 14.9532 25.5181C14.9353 25.3266 14.9033 24.984 14.6007 24.7662C13.0783 23.5403 12.8374 21.879 12.8955 20.7245ZM6.04944 31.0895C6.04944 29.2556 7.34381 27.6858 9.13686 27.3317H12.3378C10.84 29.9276 8.65514 32.097 6.04944 33.5763V31.0895ZM6.04944 38.4375V35.3488C9.44866 33.6298 12.2625 30.8591 14.0354 27.4881C14.0978 27.5729 14.1666 27.6572 14.2424 27.7404C14.9431 28.51 16.0353 28.9558 17.4965 29.0703C15.2223 33.0934 11.7417 36.3922 7.59436 38.4375H6.04944ZM10.7523 38.4376C11.3196 38.0701 11.8715 37.6795 12.4063 37.2673C12.4355 37.2705 12.4651 37.2723 12.4951 37.2723H21.2433C21.6747 37.2723 22.0246 36.9226 22.0246 36.4911C22.0246 36.0596 21.6747 35.7098 21.2433 35.7098H14.2368C16.1019 33.961 17.6981 31.9256 18.9442 29.6832C19.2701 29.8473 19.6349 29.9295 19.9998 29.9295C20.3648 29.9295 20.7298 29.8473 21.0556 29.6831C23.0212 33.2205 25.8579 36.2425 29.2476 38.4376H10.7523ZM33.9505 38.4375H32.4055C28.258 36.3921 24.7775 33.0934 22.5034 29.0703C23.9644 28.9557 25.0568 28.5098 25.7574 27.7403C25.8332 27.657 25.902 27.5727 25.9644 27.488C27.7373 30.859 30.5512 33.6298 33.9505 35.3488V38.4375Z" fill="white"/>
</svg>
