<svg width="40" height="40" viewBox="0 0 40 40" fill="none" xmlns="http://www.w3.org/2000/svg">
<g clip-path="url(#clip0)">
<path d="M35.8333 40H24.1667C21.8683 40 20 38.13 20 35.8333V24.1667C20 21.87 21.8683 20 24.1667 20H35.8333C38.1317 20 40 21.87 40 24.1667V35.8333C40 38.13 38.1317 40 35.8333 40ZM24.1667 21.6667C22.7883 21.6667 21.6667 22.7883 21.6667 24.1667V35.8333C21.6667 37.2117 22.7883 38.3333 24.1667 38.3333H35.8333C37.2117 38.3333 38.3333 37.2117 38.3333 35.8333V24.1667C38.3333 22.7883 37.2117 21.6667 35.8333 21.6667H24.1667Z" fill="white"/>
<path d="M15.8333 40H4.16667C1.86833 40 0 38.13 0 35.8333V24.1667C0 21.87 1.86833 20 4.16667 20H15.8333C18.1317 20 20 21.87 20 24.1667V35.8333C20 38.13 18.1317 40 15.8333 40ZM4.16667 21.6667C2.78833 21.6667 1.66667 22.7883 1.66667 24.1667V35.8333C1.66667 37.2117 2.78833 38.3333 4.16667 38.3333H15.8333C17.2117 38.3333 18.3333 37.2117 18.3333 35.8333V24.1667C18.3333 22.7883 17.2117 21.6667 15.8333 21.6667H4.16667Z" fill="white"/>
<path d="M25.8333 21.6667H14.1667C11.8683 21.6667 10 19.7967 10 17.5V5.83333C10 3.53666 11.8683 1.66666 14.1667 1.66666H25.8333C28.1317 1.66666 30 3.53666 30 5.83333V17.5C30 19.7967 28.1317 21.6667 25.8333 21.6667ZM14.1667 3.33332C12.7883 3.33332 11.6667 4.45499 11.6667 5.83333V17.5C11.6667 18.8783 12.7883 20 14.1667 20H25.8333C27.2117 20 28.3333 18.8783 28.3333 17.5V5.83333C28.3333 4.45499 27.2117 3.33332 25.8333 3.33332H14.1667Z" fill="white"/>
<path d="M19.9998 16.6667C19.5398 16.6667 19.1665 16.2933 19.1665 15.8333V7.49999C19.1665 7.03999 19.5398 6.66666 19.9998 6.66666C20.4598 6.66666 20.8332 7.03999 20.8332 7.49999V15.8333C20.8332 16.2933 20.4598 16.6667 19.9998 16.6667Z" fill="white"/>
<path d="M12.4998 35H7.49984C7.03984 35 6.6665 34.6267 6.6665 34.1667V31.6667C6.6665 30.2883 7.78817 29.1667 9.1665 29.1667H10.8332C11.2915 29.1667 11.6665 28.7933 11.6665 28.3333V27.5C11.6665 27.04 11.2915 26.6667 10.8332 26.6667H7.49984C7.03984 26.6667 6.6665 26.2933 6.6665 25.8333C6.6665 25.3733 7.03984 25 7.49984 25H10.8332C12.2115 25 13.3332 26.1217 13.3332 27.5V28.3333C13.3332 29.7117 12.2115 30.8333 10.8332 30.8333H9.1665C8.70817 30.8333 8.33317 31.2067 8.33317 31.6667V33.3333H12.4998C12.9598 33.3333 13.3332 33.7067 13.3332 34.1667C13.3332 34.6267 12.9598 35 12.4998 35Z" fill="white"/>
<path d="M30.8332 35H27.4998C27.0398 35 26.6665 34.6267 26.6665 34.1667C26.6665 33.7067 27.0398 33.3333 27.4998 33.3333H30.8332C31.2915 33.3333 31.6665 32.96 31.6665 32.5V31.6667C31.6665 31.2067 31.2915 30.8333 30.8332 30.8333H27.4998C27.0398 30.8333 26.6665 30.46 26.6665 30C26.6665 29.54 27.0398 29.1667 27.4998 29.1667H30.8332C32.2115 29.1667 33.3332 30.2883 33.3332 31.6667V32.5C33.3332 33.8783 32.2115 35 30.8332 35Z" fill="white"/>
<path d="M30.8332 30.8333H27.4998C27.0398 30.8333 26.6665 30.46 26.6665 30C26.6665 29.54 27.0398 29.1667 27.4998 29.1667H30.8332C31.2915 29.1667 31.6665 28.7933 31.6665 28.3333V27.5C31.6665 27.04 31.2915 26.6667 30.8332 26.6667H27.4998C27.0398 26.6667 26.6665 26.2933 26.6665 25.8333C26.6665 25.3733 27.0398 25 27.4998 25H30.8332C32.2115 25 33.3332 26.1217 33.3332 27.5V28.3333C33.3332 29.7117 32.2115 30.8333 30.8332 30.8333Z" fill="white"/>
</g>
<defs>
<clipPath id="clip0">
<rect width="40" height="40" fill="white"/>
</clipPath>
</defs>
</svg>
