<svg width="40" height="40" viewBox="0 0 40 40" fill="none" xmlns="http://www.w3.org/2000/svg">
<g clip-path="url(#clip0)">
<path d="M27.7844 18.3539C28.0899 18.049 28.0899 17.5537 27.7844 17.2492C27.4796 16.9437 26.9852 16.9437 26.6797 17.2492C26.3748 17.5537 26.3748 18.049 26.6797 18.3539C26.9852 18.6594 27.4796 18.6594 27.7844 18.3539Z" fill="white"/>
<path d="M0.781251 40.0388H39.2188C39.5347 40.0388 39.8197 39.8487 39.9405 39.5566C40.0614 39.2646 39.9946 38.9286 39.7712 38.7052L1.33362 0.267947C1.11023 0.0442526 0.774232 -0.0222758 0.482178 0.098574C0.19043 0.219424 0 0.504153 0 0.820316V39.2576C0 39.6891 0.349732 40.0388 0.781251 40.0388ZM1.5625 2.7063L7.84669 8.99049L6.18897 10.6473C5.8838 10.9525 5.8838 11.4472 6.18897 11.7523C6.49354 12.0572 6.98853 12.0578 7.29371 11.7523L8.95143 10.0952L12.2659 13.4101L10.6085 15.0669C10.3034 15.372 10.3034 15.8667 10.6082 16.1719C10.9131 16.4768 11.4081 16.4774 11.7133 16.1719L13.371 14.5148L16.6852 17.8293L15.0281 19.4867C14.7229 19.7916 14.7229 20.2863 15.0281 20.5915C15.3333 20.8966 15.8277 20.8966 16.1328 20.5915L17.7902 18.934L21.1048 22.2489L19.4477 23.9063C19.1425 24.2112 19.1425 24.7058 19.4477 25.011C19.7528 25.3162 20.2472 25.3162 20.5524 25.011L22.2098 23.3539L25.5243 26.6681L23.8672 28.3258C23.562 28.631 23.562 29.1257 23.8672 29.4309C24.1724 29.7358 24.6671 29.7358 24.9723 29.4306L26.6291 27.7732L29.9436 31.0877L28.2865 32.7454C27.9816 33.0506 27.9816 33.5453 28.2868 33.8501C28.5917 34.1553 29.0866 34.1553 29.3918 33.8501L31.0486 32.1924L37.3325 38.4763H1.5625V2.7063Z" fill="white"/>
<path d="M8.05237 16.2827C7.82898 16.0593 7.49298 15.9925 7.20093 16.1133C6.90918 16.2342 6.71875 16.5192 6.71875 16.835V32.5388C6.71875 32.9703 7.06848 33.3201 7.5 33.3201H23.2037C23.5199 33.3201 23.8046 33.1299 23.9258 32.8379C24.0466 32.5461 23.9795 32.2098 23.7564 31.9864L8.05237 16.2827ZM8.28125 31.7579V18.7213L21.3178 31.7579H8.28125Z" fill="white"/>
<path d="M24.4702 16.1444C24.7754 16.4496 25.2698 16.4496 25.5753 16.1444C25.8801 15.8395 25.8801 15.3449 25.5753 15.0397L22.2601 11.7249C21.9553 11.4197 21.4606 11.4197 21.1554 11.7249C20.8502 12.0297 20.8502 12.5244 21.1554 12.8296L24.4702 16.1444Z" fill="white"/>
<path d="M11.8592 8.00141L33.7892 29.9311C34.7047 30.8472 36.1879 30.8472 37.104 29.9311L39.3135 27.7219C40.2269 26.8085 40.2269 25.3214 39.3135 24.4068L17.3838 2.47712C17.2981 2.39136 17.1934 2.32667 17.0784 2.28852L10.4493 0.0790441C10.1689 -0.0143398 9.8591 0.0585973 9.65006 0.267948C9.44071 0.476994 9.36777 0.786442 9.46115 1.0672L11.6706 7.69624C11.7091 7.81129 11.7735 7.91566 11.8592 8.00141ZM38.2081 25.5115C38.513 25.8164 38.513 26.3126 38.2084 26.6168L35.9993 28.8263C35.6941 29.1315 35.1994 29.1318 34.8939 28.8263L33.2011 27.1335L36.5156 23.8187L38.2081 25.5115ZM35.4109 22.714L32.0961 26.0288L30.9913 24.9237L34.3062 21.6095L35.4109 22.714ZM17.3484 4.6515L33.2011 20.5042L29.8866 23.819L14.0336 7.96601L17.3484 4.6515ZM16.1604 3.62946L13.0116 6.77796L11.4375 2.05536L16.1604 3.62946Z" fill="white"/>
</g>
<defs>
<clipPath id="clip0">
<rect width="40" height="39.9219" fill="white"/>
</clipPath>
</defs>
</svg>
