<svg width="42" height="40" viewBox="0 0 42 40" fill="none" xmlns="http://www.w3.org/2000/svg">
<g clip-path="url(#clip0)">
<path d="M32.3989 40C28.2164 40 25.5241 37.0536 25.0132 31.9157L25.0076 31.8612L24.9993 31.8076C24.4339 28.2653 24.0042 21.2103 25.1656 7.65279L25.3615 5.35871H14.0213L14.0611 7.23241C14.0759 7.94845 14.4306 24.8201 14.6468 29.4618V29.4729C14.851 33.3792 13.9567 36.7811 12.2539 38.5753C11.7864 39.0678 11.0352 39.6545 10.1123 39.6545C9.63475 39.6431 9.16824 39.5088 8.7578 39.2646C7.15942 38.3037 6.55426 37.1765 6.73534 35.5015C6.92937 33.7128 7.94567 31.6349 8.93703 29.6254C9.2253 29.0377 9.52372 28.4307 9.79258 27.8468L9.80274 27.8237L9.81291 27.8006C12.0987 22.4511 11.8391 9.65861 11.2394 6.78893L11.0676 5.9648L10.3331 5.55366C10.0263 5.38181 9.31676 5.0917 7.97154 5.0917C5.91953 5.0917 3.24294 5.74398 0 7.03192C1.1937 5.33561 2.42435 3.89061 3.61251 2.78191C5.59246 0.931307 7.44953 0 9.13106 0H38.9643C39.0761 0 39.6591 0.00739132 40.1404 0.33261C40.7206 0.725274 41.0154 1.51984 41.0154 2.7043C41.0154 4.26202 40.3086 4.748 40.0758 4.90414C39.6704 5.16857 39.2041 5.32504 38.7213 5.35871H29.1689L28.8502 6.79725C28.0615 10.6031 27.5455 14.4604 27.3063 18.3397C26.8194 26.8786 28.2164 32.4904 31.4593 35.0256L31.4898 35.0478L31.5212 35.0691C32.5486 35.8136 33.7845 36.2154 35.0534 36.2175C37.4703 36.2175 39.7367 34.7706 40.9184 33.0937C40.8694 33.6757 40.7528 34.2499 40.571 34.8048C39.4918 37.7697 35.9847 40 32.3989 40Z" fill="white"/>
</g>
<defs>
<clipPath id="clip0">
<rect width="41.0154" height="40" fill="white"/>
</clipPath>
</defs>
</svg>
