<svg width="40" height="40" viewBox="0 0 40 40" fill="none" xmlns="http://www.w3.org/2000/svg">
<g clip-path="url(#clip0)">
<path d="M39.1668 19.1667C39.6335 19.1667 40.0002 19.5333 40.0002 20C40.0002 20.4667 39.6335 20.8333 39.1668 20.8333H38.3335V19.1667H39.1668Z" fill="white"/>
<path d="M20.8335 19.1667H38.3335V20.8333H20.8335V19.1667Z" fill="white"/>
<path d="M35.8333 40H20C20.4667 40 20.8333 39.6333 20.8333 39.1667V38.3333H35.8333C37.2167 38.3333 38.3333 37.2167 38.3333 35.8333V20.8333H39.1667C39.6333 20.8333 40 20.4667 40 20V35.8333C40 38.1333 38.1333 40 35.8333 40Z" fill="white"/>
<path d="M40 4.16667V20C40 19.5333 39.6333 19.1667 39.1667 19.1667H38.3333V4.16667C38.3333 2.78333 37.2167 1.66667 35.8333 1.66667H20.8333V0.833333C20.8333 0.366667 20.4667 0 20 0H35.8333C38.1333 0 40 1.86667 40 4.16667Z" fill="white"/>
<path d="M33.3335 10C33.8002 10 34.1668 10.3667 34.1668 10.8333C34.1668 11.3 33.8002 11.6667 33.3335 11.6667H26.6668C26.2002 11.6667 25.8335 11.3 25.8335 10.8333C25.8335 10.3667 26.2002 10 26.6668 10H33.3335Z" fill="white"/>
<path d="M33.3335 26.6667C33.8002 26.6667 34.1668 27.0333 34.1668 27.5C34.1668 27.9667 33.8002 28.3333 33.3335 28.3333H26.6668C26.2002 28.3333 25.8335 27.9667 25.8335 27.5C25.8335 27.0333 26.2002 26.6667 26.6668 26.6667H33.3335Z" fill="white"/>
<path d="M33.3335 31.6667C33.8002 31.6667 34.1668 32.0333 34.1668 32.5C34.1668 32.9667 33.8002 33.3333 33.3335 33.3333H26.6668C26.2002 33.3333 25.8335 32.9667 25.8335 32.5C25.8335 32.0333 26.2002 31.6667 26.6668 31.6667H33.3335Z" fill="white"/>
<path d="M20.8332 38.3333V39.1667C20.8332 39.6334 20.4665 40 19.9998 40C19.5332 40 19.1665 39.6334 19.1665 39.1667V38.3333H20.8332Z" fill="white"/>
<path d="M19.1665 20.8333H20.8332V38.3333H19.1665V20.8333Z" fill="white"/>
<path d="M19.1665 19.1667H20.8332V20.8333H19.1665V19.1667Z" fill="white"/>
<path d="M19.1665 1.66666H20.8332V19.1667H19.1665V1.66666Z" fill="white"/>
<path d="M20.8332 0.833333V1.66667H19.1665V0.833333C19.1665 0.366667 19.5332 0 19.9998 0C20.4665 0 20.8332 0.366667 20.8332 0.833333Z" fill="white"/>
<path d="M1.6665 19.1667H19.1665V20.8333H1.6665V19.1667Z" fill="white"/>
<path d="M13.3335 10C13.8002 10 14.1668 10.3667 14.1668 10.8333C14.1668 11.3 13.8002 11.6667 13.3335 11.6667H10.8335V10H13.3335Z" fill="white"/>
<path d="M13.0833 31.9167C13.4167 32.2333 13.4167 32.7667 13.0833 33.0833C12.9333 33.25 12.7167 33.3333 12.5 33.3333C12.2833 33.3333 12.0667 33.25 11.9167 33.0833L10 31.1667L11.1667 30L13.0833 31.9167Z" fill="white"/>
<path d="M11.9167 26.9167C12.2333 26.5833 12.7667 26.5833 13.0833 26.9167C13.4167 27.2333 13.4167 27.7667 13.0833 28.0833L11.1667 30L10 28.8333L11.9167 26.9167Z" fill="white"/>
<path d="M8.82861 29.9983L9.99534 28.8316L11.1621 29.9983L9.99534 31.1651L8.82861 29.9983Z" fill="white"/>
<path d="M10.8332 11.6667V14.1667C10.8332 14.6333 10.4665 15 9.99984 15C9.53317 15 9.1665 14.6333 9.1665 14.1667V11.6667H10.8332Z" fill="white"/>
<path d="M9.1665 10H10.8332V11.6667H9.1665V10Z" fill="white"/>
<path d="M10.8332 7.49999V9.99999H9.1665V7.49999C9.1665 7.03332 9.53317 6.66666 9.99984 6.66666C10.4665 6.66666 10.8332 7.03332 10.8332 7.49999Z" fill="white"/>
<path d="M9.99984 28.8333L8.83317 30L6.9165 28.0833C6.58317 27.7667 6.58317 27.2333 6.9165 26.9167C7.23317 26.5833 7.76651 26.5833 8.08317 26.9167L9.99984 28.8333Z" fill="white"/>
<path d="M9.16683 10V11.6667H6.66683C6.20016 11.6667 5.8335 11.3 5.8335 10.8333C5.8335 10.3667 6.20016 10 6.66683 10H9.16683Z" fill="white"/>
<path d="M8.08317 33.0833C7.93317 33.25 7.71651 33.3333 7.49984 33.3333C7.28317 33.3333 7.0665 33.25 6.9165 33.0833C6.58317 32.7667 6.58317 32.2333 6.9165 31.9167L8.83317 30L9.99984 31.1667L8.08317 33.0833Z" fill="white"/>
<path d="M1.66667 19.1667V20.8333H0.833333C0.366667 20.8333 0 20.4667 0 20C0 19.5333 0.366667 19.1667 0.833333 19.1667H1.66667Z" fill="white"/>
<path d="M0 4.16667C0 1.86667 1.86667 0 4.16667 0H20C19.5333 0 19.1667 0.366667 19.1667 0.833333V1.66667H4.16667C2.78333 1.66667 1.66667 2.78333 1.66667 4.16667V19.1667H0.833333C0.366667 19.1667 0 19.5333 0 20V4.16667Z" fill="white"/>
<path d="M1.66667 35.8333C1.66667 37.2167 2.78333 38.3333 4.16667 38.3333H19.1667V39.1667C19.1667 39.6333 19.5333 40 20 40H4.16667C1.86667 40 0 38.1333 0 35.8333V20C0 20.4667 0.366667 20.8333 0.833333 20.8333H1.66667V35.8333Z" fill="white"/>
</g>
<defs>
<clipPath id="clip0">
<rect width="40" height="40" fill="white"/>
</clipPath>
</defs>
</svg>
