<svg width="40" height="40" viewBox="0 0 40 40" fill="none" xmlns="http://www.w3.org/2000/svg">
<path d="M18.9256 40V36.5289H0V34.4628H18.9256V29.6099L18.3876 29.5124C15.857 29.057 13.6826 27.4628 11.924 24.7719C10.4694 22.5446 9.29339 19.5653 8.43058 15.9215C7.21736 10.7934 6.95703 5.66529 6.90165 3.69835L6.89421 3.4438H9.0124L9.01735 3.68678C9.10826 7.90826 9.74132 12.6529 10.7116 16.3802C12.3223 22.5686 14.7992 26.2256 18.0736 27.2504L18.9256 27.5207V0H21.0744V27.5207L21.9273 27.2496C25.1876 26.2198 27.6587 22.5612 29.2727 16.376C30.2438 12.657 30.8826 7.91074 30.981 3.6876L30.9868 3.44463L33.1033 3.44959L33.0959 3.70413C33.0364 5.66942 32.7653 10.7942 31.5471 15.9223C30.681 19.5603 29.5041 22.5372 28.0496 24.7678C26.2942 27.4587 24.1281 29.0545 21.6107 29.5107L21.0744 29.6091V34.4628H40V36.5289H21.0744V40H18.9256Z" fill="white"/>
</svg>
