<svg width="40" height="40" viewBox="0 0 40 40" fill="none" xmlns="http://www.w3.org/2000/svg">
<g clip-path="url(#clip0)">
<path d="M0.695642 11.4264H4.89338V25.3757C2.81465 25.799 1.40528 27.7422 1.64831 29.8493C1.89134 31.9567 3.70622 33.5278 5.8266 33.4667C7.94697 33.4053 9.66833 31.7321 9.78916 29.6144C9.91033 27.4964 8.39105 25.6379 6.29149 25.3354V11.4264H14.7675V25.3733C12.6885 25.7904 11.274 27.7289 11.5112 29.836C11.7481 31.943 13.5578 33.519 15.6775 33.4637C17.7972 33.4087 19.5223 31.7409 19.6497 29.6243C19.7766 27.5077 18.2635 25.6457 16.1656 25.3372V11.4264H22.4073L32.5719 21.6098C31.38 23.3526 31.7193 25.7174 33.3529 27.0551C34.9865 28.3924 37.3718 28.2586 38.845 26.7465C40.3185 25.2344 40.3909 22.8464 39.0116 21.248C37.6319 19.6495 35.2593 19.3716 33.5478 20.6083L24.3847 11.4264H29.6211C30.0071 11.4264 30.3215 11.1516 30.3215 10.7655V7.21565C30.3205 7.03167 30.2457 6.85588 30.114 6.72754C29.9826 6.5992 29.8047 6.52923 29.6211 6.53298H0.695642C0.512344 6.52923 0.335191 6.59988 0.20446 6.72822C0.0733871 6.85657 0 7.03235 0 7.21565V10.7655C0 11.1516 0.309591 11.4264 0.695642 11.4264ZM8.39787 29.3782C8.39787 30.862 7.19535 32.0649 5.71157 32.0649C4.22778 32.0652 3.02491 30.8623 3.02457 29.3786C3.02457 27.8948 4.22744 26.6919 5.71122 26.6919C7.19433 26.6936 8.39583 27.8951 8.39787 29.3782ZM18.2587 29.3782C18.2591 30.862 17.0562 32.0649 15.5724 32.0649C14.0886 32.0652 12.8858 30.8623 12.8858 29.3786C12.8858 27.8948 14.0883 26.6919 15.5724 26.6919C17.0552 26.6936 18.257 27.8951 18.2587 29.3782ZM35.9402 21.2534C37.2213 21.2544 38.3231 22.16 38.5723 23.4165C38.8214 24.6729 38.1483 25.9307 36.9646 26.4202C35.7808 26.9097 34.4158 26.495 33.7048 25.4293C32.9938 24.3637 33.1341 22.9444 34.0404 22.0392C34.5442 21.535 35.2275 21.252 35.9402 21.2534ZM1.39811 7.93109H28.9234V10.0283H1.39811V7.93109Z" fill="white" stroke="white"/>
</g>
<defs>
<clipPath id="clip0">
<rect width="40" height="40" fill="white"/>
</clipPath>
</defs>
</svg>
