<svg width="40" height="40" viewBox="0 0 40 40" fill="none" xmlns="http://www.w3.org/2000/svg">
<path d="M6.08937 38.4126H33.1705C33.347 38.4126 33.5162 38.3424 33.6411 38.2176C33.7659 38.0928 33.836 37.9235 33.836 37.747C33.836 37.5705 33.7659 37.4012 33.6411 37.2764C33.5162 37.1516 33.347 37.0815 33.1705 37.0815H6.08937C5.91286 37.0815 5.74357 37.1516 5.61876 37.2764C5.49395 37.4012 5.42383 37.5705 5.42383 37.747C5.42383 37.9235 5.49395 38.0928 5.61876 38.2176C5.74357 38.3424 5.91286 38.4126 6.08937 38.4126Z" fill="white" stroke="white" stroke-width="0.25"/>
<path d="M19.1274 26.1945L19.1276 26.1946C19.1913 26.1088 19.2743 26.0392 19.3698 25.9912C19.4653 25.9432 19.5707 25.9182 19.6776 25.9182C19.7844 25.9182 19.8898 25.9432 19.9853 25.9912L19.9293 26.1027L19.9853 25.9912C20.0808 26.0392 20.1638 26.1088 20.2276 26.1946L20.2314 26.1998L20.2313 26.1999L27.6837 37.3777C27.7506 37.4779 27.789 37.5944 27.7948 37.7148C27.8007 37.8351 27.7738 37.9548 27.7169 38.061C27.6601 38.1673 27.5754 38.2561 27.4721 38.318C27.3687 38.3799 27.2505 38.4126 27.13 38.4126L19.1274 26.1945ZM19.1274 26.1945L19.1238 26.1999L11.672 37.3777L19.1274 26.1945ZM11.9478 38.2108L11.8836 38.318C11.7802 38.2561 11.6956 38.1673 11.6388 38.061C11.5819 37.9548 11.555 37.8351 11.5608 37.7148C11.5667 37.5944 11.6051 37.4779 11.6719 37.3777L11.9478 38.2108ZM11.9478 38.2108L11.8836 38.318C11.987 38.3799 12.1052 38.4126 12.2257 38.4126C12.2257 38.4126 12.2257 38.4126 12.2257 38.4126M11.9478 38.2108L12.2257 38.4126M12.2257 38.4126H27.13H12.2257ZM13.4716 37.0815L19.6755 27.7686L25.8861 37.0815H13.4716Z" fill="white" stroke="white" stroke-width="0.25"/>
<path d="M36.7788 29.1823L36.7784 29.1823C36.6443 29.1825 36.5103 29.1706 36.3783 29.1469C36.3781 29.1469 36.378 29.1468 36.3778 29.1468L13.0423 25.0886L13.0423 25.0886C12.8683 25.0583 12.7135 24.9602 12.6119 24.8158C12.5104 24.6714 12.4703 24.4925 12.5006 24.3186C12.5308 24.1446 12.629 23.9898 12.7734 23.8883C12.9178 23.7867 13.0966 23.7466 13.2705 23.7769M36.7788 29.1823L38.9188 26.9135C38.9199 26.4088 38.7423 25.92 38.4175 25.5336C38.0927 25.1473 37.6417 24.8884 37.1442 24.8027L37.1657 24.6796L37.1656 24.6795C37.1655 24.6795 37.1655 24.6795 37.1655 24.6795L3.61867 18.8363L3.61819 18.8362C3.02524 18.7353 2.41642 18.8724 1.92393 19.2177C1.43143 19.563 1.09502 20.0886 0.987739 20.6804L0.987737 20.6804L0.987619 20.6811C0.935922 20.9754 0.942807 21.277 1.00788 21.5687C1.07295 21.8603 1.19493 22.1363 1.36683 22.3807C1.53873 22.6252 1.75717 22.8333 2.00964 22.9931C2.26211 23.153 2.54364 23.2615 2.8381 23.3124L2.83837 23.3124L3.99512 23.5097L3.99512 23.5097L3.99642 23.5099C4.0917 23.5252 4.18913 23.5197 4.28214 23.494C4.37514 23.4683 4.46153 23.423 4.53548 23.361C4.60942 23.299 4.66918 23.2218 4.71072 23.1347C4.75226 23.0477 4.77461 22.9527 4.77626 22.8562L4.77628 22.8562L4.77627 22.8539C4.77612 22.6946 4.7188 22.5406 4.61475 22.42C4.51102 22.2997 4.36771 22.2205 4.21071 22.1966L3.06446 21.9985L3.06421 21.9984C2.94249 21.9776 2.8261 21.9329 2.72176 21.8669C2.61743 21.8008 2.52721 21.7148 2.45634 21.6137L2.45615 21.6134C2.34891 21.4613 2.28929 21.2807 2.28486 21.0946C2.28043 20.9085 2.33138 20.7253 2.43126 20.5682C2.53114 20.4111 2.67544 20.2873 2.84583 20.2124C3.01623 20.1374 3.20505 20.1148 3.38832 20.1474L3.38874 20.1475L36.934 25.9916C36.9342 25.9916 36.9344 25.9917 36.9346 25.9917C37.1782 26.0369 37.3946 26.1753 37.5378 26.3775C37.6809 26.5795 37.7396 26.8293 37.7015 27.0739C37.6571 27.3189 37.5178 27.5364 37.3138 27.6793C37.1095 27.8223 36.8569 27.8788 36.6111 27.8363L36.5896 27.9595L36.6109 27.8363L13.2705 23.7769M36.7788 29.1823C37.3117 29.1801 37.8269 28.9911 38.2349 28.6482C38.6428 28.3054 38.9177 27.8304 39.0116 27.3058L39.0117 27.3051C39.0341 27.1756 39.0448 27.0445 39.0438 26.9132L36.7788 29.1823ZM13.2705 23.7769L13.2491 23.9L13.2705 23.7769L13.2705 23.7769Z" fill="white" stroke="white" stroke-width="0.25"/>
<path d="M9.30721 24.4339L9.30736 24.434C9.34524 24.4405 9.38362 24.4439 9.42207 24.4439L9.42242 24.4439C9.58887 24.4437 9.74918 24.381 9.87173 24.2684C9.99429 24.1558 10.0702 24.0013 10.0845 23.8355C10.0988 23.6697 10.0504 23.5045 9.94891 23.3726C9.84742 23.2406 9.70018 23.1515 9.53623 23.1228L9.53617 23.1228L7.95859 22.8473C7.87223 22.8311 7.78352 22.8322 7.69757 22.8504C7.61132 22.8688 7.52957 22.904 7.45708 22.9542C7.38459 23.0044 7.32279 23.0685 7.27528 23.1428C7.22777 23.2171 7.1955 23.3001 7.18033 23.3869C7.16516 23.4738 7.16741 23.5628 7.18693 23.6488C7.20646 23.7348 7.24287 23.816 7.29406 23.8878C7.34525 23.9596 7.4102 24.0205 7.48513 24.067C7.5598 24.1133 7.6429 24.1444 7.72963 24.1584L9.30721 24.4339Z" fill="white" stroke="white" stroke-width="0.25"/>
<path d="M29.1326 22.4473C29.9195 22.7931 30.7697 22.9716 31.6292 22.9715C33.1819 22.9712 34.6781 22.3886 35.8221 21.3387C36.9661 20.2888 37.6748 18.848 37.8081 17.301C37.9413 15.754 37.4895 14.2133 36.5419 12.9832C35.5943 11.7531 34.2199 10.9232 32.69 10.6574C31.8432 10.5102 30.975 10.5407 30.1406 10.7468C29.3061 10.9529 28.5236 11.3303 27.8427 11.8548C27.1618 12.3794 26.5973 13.0397 26.1851 13.7939C25.7729 14.5482 25.522 15.3799 25.4482 16.2362C25.3744 17.0926 25.4794 17.9549 25.7566 18.7686C26.0337 19.5822 26.4769 20.3294 27.0581 20.9626C27.6392 21.5959 28.3457 22.1015 29.1326 22.4473ZM28.25 13.2495C29.1574 12.3807 30.3653 11.8957 31.6216 11.8958H31.6216C31.9027 11.8958 32.1832 11.9202 32.4601 11.9685C33.6977 12.1847 34.804 12.8704 35.5482 13.8826C36.2925 14.8947 36.6172 16.1551 36.4547 17.4009C36.2921 18.6467 35.6549 19.7816 34.6759 20.5689C33.6968 21.3561 32.4516 21.735 31.2 21.6265C29.9484 21.5179 28.787 20.9303 27.9581 19.9862C27.1293 19.0421 26.6969 17.8144 26.7513 16.5592C26.8057 15.3041 27.3426 14.1184 28.25 13.2495Z" fill="white" stroke="white" stroke-width="0.25"/>
<path d="M6.90474 13.5469C7.31917 13.1495 7.86167 12.9155 8.43228 12.8851V12.8857L8.55794 12.885C8.69699 12.8843 8.83586 12.8952 8.97307 12.9178C9.57954 13.0244 10.1215 13.3609 10.4861 13.8571C10.8508 14.3536 11.0097 14.9717 10.9298 15.5824C10.85 16.1932 10.5374 16.7496 10.0573 17.1356C9.57725 17.5216 8.96671 17.7074 8.35301 17.6542C7.73931 17.601 7.16982 17.313 6.76328 16.8502C6.35673 16.3874 6.14451 15.7856 6.17087 15.1702C6.19722 14.5547 6.46012 13.9732 6.90474 13.5469ZM6.43133 18.3178C7.05652 18.7553 7.80117 18.99 8.56426 18.9899H8.56432C9.43925 18.9902 10.2862 18.6818 10.9562 18.1191C11.6262 17.5564 12.0761 16.7753 12.2269 15.9134C12.3587 15.1618 12.2562 14.3878 11.9332 13.6965C11.6102 13.0051 11.0823 12.4299 10.4211 12.0488C9.76 11.6677 8.99763 11.4991 8.23747 11.5661C7.4773 11.6331 6.75613 11.9322 6.1718 12.423C5.58746 12.9139 5.16826 13.5725 4.97106 14.3097C4.77385 15.0469 4.80819 15.8269 5.06942 16.5439C5.33065 17.2609 5.80613 17.8802 6.43133 18.3178Z" fill="white" stroke="white" stroke-width="0.25"/>
<path d="M36.2635 7.99923C36.3884 8.12404 36.5576 8.19416 36.7341 8.19416C36.9107 8.19416 37.0799 8.12404 37.2048 7.99923C37.3296 7.87441 37.3997 7.70513 37.3997 7.52862V3.25294C37.3997 3.07643 37.3296 2.90715 37.2048 2.78233C37.0799 2.65752 36.9107 2.5874 36.7341 2.5874C36.5576 2.5874 36.3884 2.65752 36.2635 2.78233C36.1387 2.90715 36.0686 3.07643 36.0686 3.25294V7.52862C36.0686 7.70513 36.1387 7.87441 36.2635 7.99923Z" fill="white" stroke="white" stroke-width="0.25"/>
<path d="M31.9869 7.42463L32.0753 7.33624L31.9869 7.42463C32.1117 7.54945 32.281 7.61956 32.4575 7.61956C32.634 7.61956 32.8033 7.54945 32.9281 7.42463C33.053 7.29982 33.1231 7.13054 33.1231 6.95402V1.25294C33.1231 1.07643 33.053 0.907147 32.9281 0.782334C32.8033 0.657521 32.634 0.587402 32.4575 0.587402C32.281 0.587402 32.1117 0.657521 31.9869 0.782334C31.8621 0.907147 31.792 1.07643 31.792 1.25294V6.95402C31.792 7.13054 31.8621 7.29982 31.9869 7.42463Z" fill="white" stroke="white" stroke-width="0.25"/>
<path d="M27.7114 7.99923C27.8362 8.12404 28.0055 8.19416 28.182 8.19416C28.3585 8.19416 28.5278 8.12404 28.6526 7.99923C28.7774 7.87441 28.8476 7.70513 28.8476 7.52862V3.25294C28.8476 3.07643 28.7774 2.90715 28.6526 2.78233C28.5278 2.65752 28.3585 2.5874 28.182 2.5874C28.0055 2.5874 27.8362 2.65752 27.7114 2.78233C27.5866 2.90715 27.5165 3.07643 27.5165 3.25294V7.52862C27.5165 7.70513 27.5866 7.87441 27.7114 7.99923Z" fill="white" stroke="white" stroke-width="0.25"/>
</svg>
