<svg width="40" height="40" viewBox="0 0 40 40" fill="none" xmlns="http://www.w3.org/2000/svg">
<g clip-path="url(#clip0)">
<path d="M25.0723 32.5241C24.866 32.5241 24.6655 32.6077 24.5199 32.753C24.374 32.8986 24.291 33.1 24.291 33.3054C24.291 33.511 24.374 33.7125 24.5199 33.8577C24.6655 34.003 24.866 34.0866 25.0723 34.0866C25.278 34.0866 25.4794 34.003 25.6246 33.8577C25.7699 33.7125 25.8535 33.511 25.8535 33.3054C25.8535 33.1 25.7699 32.8986 25.6246 32.753C25.4794 32.6077 25.278 32.5241 25.0723 32.5241Z" fill="white"/>
<path d="M28.0789 21.1456C27.774 20.8408 27.2791 20.8408 26.9742 21.1456L17.821 30.2985C15.6024 32.5174 11.9919 32.5174 9.77325 30.2985C7.55432 28.0798 7.55432 24.4696 9.77325 22.2507L18.9261 13.0975C19.231 12.7927 19.231 12.298 18.9261 11.9928L14.3497 7.41638C14.0445 7.11121 13.5498 7.11121 13.2446 7.41638L9.02252 11.6385C9.02222 11.6385 9.02222 11.6388 9.02222 11.6388H9.02191L4.0918 16.5692C-1.25977 21.9208 -1.25977 30.6284 4.0918 35.9799C6.68427 38.5724 10.1309 40 13.797 40C17.4634 40 20.91 38.5724 23.5025 35.9799C23.8077 35.6747 23.8077 35.1801 23.5025 34.8749C23.1976 34.57 22.7026 34.57 22.3978 34.8749C20.1004 37.1722 17.0459 38.4375 13.797 38.4375C10.8102 38.4375 7.98798 37.3672 5.76691 35.4095L9.25079 31.9257C12.0966 34.2184 16.2845 34.0448 18.9261 31.4035L23.3041 27.0255L26.7755 30.4968L26.4728 30.7999C26.1676 31.105 26.1676 31.5997 26.4728 31.9049C26.778 32.2098 27.2726 32.2098 27.5775 31.9049L32.6553 26.8271C32.9605 26.5219 32.9605 26.0272 32.6553 25.722L28.0789 21.1456ZM13.797 9.07349L17.2687 12.5452L14.1513 15.6628L10.6796 12.1912L13.797 9.07349ZM5.19684 17.6743L9.57458 13.2962L13.0463 16.7676L8.66821 21.1456C6.02692 23.7869 5.85327 27.9752 8.14606 30.8209L4.66248 34.3042C0.462646 29.5328 0.639954 22.2308 5.19684 17.6743ZM27.8806 29.3921L24.4089 25.9204L27.5266 22.803L30.9982 26.2747L27.8806 29.3921Z" fill="white"/>
<path d="M20.3873 17.7032C20.2411 17.8485 20.1584 18.0493 20.1584 18.2556C20.1584 18.461 20.2411 18.6624 20.3873 18.8077C20.5326 18.9532 20.7334 19.0369 20.9397 19.0369C21.1451 19.0369 21.3468 18.9532 21.4921 18.8077C21.6373 18.6624 21.7209 18.461 21.7209 18.2556C21.7209 18.0493 21.6373 17.8485 21.4921 17.7032C21.3468 17.5571 21.1451 17.4744 20.9397 17.4744C20.7334 17.4744 20.5326 17.5571 20.3873 17.7032Z" fill="white"/>
<path d="M23.6044 12.0071C23.5501 12.2653 23.6298 12.5339 23.8165 12.7203L25.9216 14.8254L23.0292 16.3071C22.6453 16.5036 22.4933 16.9745 22.6901 17.3584C22.8284 17.6285 23.1021 17.7838 23.3862 17.7838C23.5059 17.7838 23.6276 17.756 23.7415 17.6977L27.5891 15.7272C27.8113 15.6131 27.9657 15.3998 28.0048 15.1532C28.0435 14.9063 27.9621 14.6561 27.7854 14.4794L25.7685 12.4624L30.322 10.6946C30.7242 10.5383 30.9235 10.0857 30.7672 9.68352C30.6113 9.28129 30.1587 9.08171 29.7565 9.23796L24.0863 11.4398C23.84 11.5353 23.6588 11.7486 23.6044 12.0071Z" fill="white"/>
<path d="M20.9393 9.92188C23.6749 9.92188 25.9003 7.69653 25.9003 4.96094C25.9003 2.22534 23.6749 0 20.9393 0C18.2037 0 15.9784 2.22534 15.9784 4.96094C15.9784 7.69653 18.204 9.92188 20.9393 9.92188ZM20.9393 1.5625C22.8134 1.5625 24.3378 3.08716 24.3378 4.96094C24.3378 6.83472 22.8134 8.35938 20.9393 8.35938C19.0656 8.35938 17.5409 6.83472 17.5409 4.96094C17.5409 3.08716 19.0656 1.5625 20.9393 1.5625Z" fill="white"/>
<path d="M21.2573 6.38368C21.4099 6.53627 21.6098 6.61256 21.8097 6.61256C22.0096 6.61256 22.2095 6.53627 22.3621 6.38368C22.6673 6.07851 22.6673 5.58382 22.3621 5.27864L20.6217 3.53822C20.3165 3.23335 19.8218 3.23335 19.5166 3.53822C19.2117 3.8434 19.2117 4.33809 19.5166 4.64326L21.2573 6.38368Z" fill="white"/>
<path d="M35.1101 14.1708C32.3745 14.1708 30.1492 16.3962 30.1492 19.1318C30.1492 21.8671 32.3745 24.0927 35.1101 24.0927C37.8457 24.0927 40.071 21.8671 40.071 19.1318C40.071 16.3962 37.8457 14.1708 35.1101 14.1708ZM35.1101 22.5302C33.2363 22.5302 31.7117 21.0056 31.7117 19.1318C31.7117 17.2577 33.2363 15.7333 35.1101 15.7333C36.9839 15.7333 38.5085 17.2577 38.5085 19.1318C38.5085 21.0056 36.9839 22.5302 35.1101 22.5302Z" fill="white"/>
<path d="M36.7569 17.4848C36.452 17.1799 35.9574 17.1799 35.6522 17.4848L35.1102 18.0267L34.5682 17.4848C34.263 17.1799 33.7683 17.1799 33.4632 17.4848C33.1583 17.7899 33.1583 18.2846 33.4632 18.5898L34.0051 19.1318L33.4632 19.6738C33.1583 19.9787 33.1583 20.4733 33.4632 20.7785C33.6157 20.9311 33.8156 21.0074 34.0155 21.0074C34.2157 21.0074 34.4156 20.9311 34.5682 20.7785L35.1099 20.2365L35.6519 20.7785C35.8045 20.9311 36.0043 21.0074 36.2042 21.0074C36.4044 21.0074 36.6043 20.9311 36.7569 20.7785C37.0618 20.4736 37.0618 19.979 36.7569 19.6738L36.2149 19.1318L36.7569 18.5898C37.0621 18.2846 37.0621 17.7899 36.7569 17.4848Z" fill="white"/>
</g>
<defs>
<clipPath id="clip0">
<rect width="40" height="40" fill="white"/>
</clipPath>
</defs>
</svg>
