<svg width="40" height="40" viewBox="0 0 40 40" fill="none" xmlns="http://www.w3.org/2000/svg">
<g clip-path="url(#clip0)">
<path d="M27.491 37.3412C27.5837 37.3415 27.6754 37.3224 27.7603 37.2852C27.8452 37.2479 27.9214 37.1933 27.984 37.1249L27.9846 37.1243C28.3676 36.7003 28.7161 36.2463 29.0268 35.7667C29.1236 35.6191 29.158 35.4391 29.1223 35.2663C29.0865 35.0933 28.9835 34.9415 28.8359 34.8445C28.6883 34.7474 28.5081 34.713 28.3351 34.7487C28.1621 34.7845 28.0104 34.8875 27.9133 35.0351L27.9133 35.0351L27.9128 35.0359C27.6409 35.4566 27.3358 35.8548 27.0003 36.2268C26.9134 36.322 26.856 36.4403 26.835 36.5675C26.814 36.6949 26.8306 36.8256 26.8825 36.9437C26.9345 37.0619 27.0197 37.1623 27.1278 37.2329C27.2358 37.3035 27.362 37.3411 27.491 37.3412ZM27.491 37.3412C27.491 37.3412 27.4909 37.3412 27.4909 37.3412L27.4913 37.2162L27.4912 37.3412C27.4911 37.3412 27.4911 37.3412 27.491 37.3412Z" fill="white" stroke="white" stroke-width="0.25"/>
<path d="M9.49981 34.079L9.4998 34.0789C8.1379 31.0959 7.18311 27.3826 7.18311 25.0378V25.0377C7.18572 22.8177 8.06876 20.6894 9.63853 19.1196C11.2083 17.5498 13.3366 16.6668 15.5566 16.6642L15.5567 16.6642C17.1303 16.6632 18.6712 17.1097 20 17.9505C21.3288 17.1097 22.8697 16.6632 24.4433 16.6642L24.4434 16.6642C26.6634 16.6668 28.7917 17.5498 30.3615 19.1196C31.9312 20.6894 32.8143 22.8177 32.8169 25.0377L32.8169 25.0387C32.8134 25.5426 32.7793 26.0457 32.7145 26.5454C32.7058 26.6332 32.6798 26.7184 32.6379 26.7961C32.5956 26.8744 32.5381 26.9435 32.4687 26.9992C32.3993 27.0549 32.3194 27.0961 32.2338 27.1204C32.1482 27.1447 32.0586 27.1515 31.9703 27.1406C31.882 27.1296 31.7967 27.1011 31.7196 27.0566C31.6426 27.0122 31.5752 26.9527 31.5215 26.8817C31.4678 26.8108 31.4288 26.7298 31.407 26.6435L31.5282 26.6128L31.407 26.6435C31.3853 26.5577 31.3809 26.4684 31.3941 26.3809C31.4517 25.9353 31.4823 25.4866 31.4858 25.0373C31.488 23.7464 31.1346 22.4799 30.4645 21.3765C29.7943 20.2731 28.8333 19.3755 27.6866 18.7823C26.54 18.189 25.2522 17.9229 23.9644 18.0133C22.6765 18.1036 21.4385 18.5468 20.3859 19.2943L20.3858 19.2944C20.2733 19.3741 20.1389 19.4169 20.0011 19.4169C19.8633 19.4169 19.7289 19.3741 19.6164 19.2944L19.6162 19.2943C18.5637 18.5462 17.3254 18.1025 16.0372 18.0118C14.749 17.9212 13.4608 18.1871 12.3138 18.7805C11.1669 19.3738 10.2055 20.2716 9.53525 21.3754C8.86498 22.4792 8.5117 23.7463 8.51419 25.0376L8.51419 25.0378C8.51419 27.1697 9.3739 30.6015 10.6984 33.5025C11.3601 34.9519 12.1343 36.2607 12.9686 37.205C13.806 38.1527 14.6852 38.7128 15.5567 38.7128L9.49981 34.079ZM9.49981 34.079C10.0045 35.1838 10.7882 36.6684 11.8051 37.8788C12.8191 39.0858 14.0854 40.0439 15.5568 40.0439C17.1298 40.0442 18.6702 39.5992 20.0001 38.7611L9.49981 34.079ZM19.6163 37.4181L19.6166 37.4178C19.7288 37.3388 19.8627 37.2963 20 37.2963C20.1373 37.2963 20.2711 37.3388 20.3833 37.4178L20.3836 37.418C21.4471 38.1709 22.6986 38.614 23.9989 38.698C24.175 38.7091 24.3394 38.7898 24.4561 38.9222C24.5726 39.0544 24.6319 39.2275 24.621 39.4034C24.6164 39.4909 24.5945 39.5766 24.5564 39.6555C24.5182 39.7347 24.4645 39.8054 24.3986 39.8635C24.3326 39.9217 24.2557 39.966 24.1724 39.9939C24.0893 40.0218 24.0014 40.0328 23.914 40.0263C23.9138 40.0263 23.9135 40.0263 23.9133 40.0263L23.9227 39.9016L19.6163 37.4181ZM19.6163 37.4181C18.4299 38.2598 17.0114 38.7122 15.5568 38.7128L19.6163 37.4181Z" fill="white" stroke="white" stroke-width="0.25"/>
<path d="M30.0904 32.379L30.0909 32.3792L30.3402 32.3027L30.3399 32.4277C30.3399 32.4277 30.3399 32.4277 30.3399 32.4277C30.4723 32.428 30.6018 32.3889 30.7118 32.3153C30.8218 32.2417 30.9073 32.1369 30.9575 32.0144L30.9577 32.0139C31.1917 31.4356 31.41 30.8383 31.6055 30.241L31.6055 30.241L31.6058 30.2401C31.6276 30.1718 31.6387 30.1005 31.6387 30.0287L31.6387 30.0276C31.6374 29.8681 31.5788 29.7143 31.4736 29.5944C31.3685 29.4744 31.2237 29.3962 31.0657 29.374C30.9077 29.3519 30.747 29.3872 30.6129 29.4735C30.4793 29.5596 30.3809 29.6905 30.3355 29.8428C30.1506 30.4081 29.9447 30.9697 29.7239 31.5135L29.7237 31.5138C29.6579 31.6772 29.6596 31.86 29.7283 32.0222C29.797 32.1844 29.9273 32.3127 30.0904 32.379Z" fill="white" stroke="white" stroke-width="0.25"/>
<path d="M12.3647 31.4081C12.2571 31.4081 12.152 31.3761 12.0627 31.316C11.9734 31.2559 11.9041 31.1705 11.8637 31.0708C11.2642 29.5931 10.8005 28.0639 10.4782 26.5022C10.45 26.3616 10.4788 26.2156 10.5582 26.0962C10.6376 25.9768 10.7612 25.8939 10.9018 25.8657C11.0423 25.8374 11.1883 25.8662 11.3077 25.9456C11.4271 26.025 11.51 26.1486 11.5382 26.2892C11.8468 27.7848 12.2908 29.2492 12.8647 30.6643C12.9182 30.7969 12.917 30.9454 12.8612 31.0771C12.8055 31.2088 12.6999 31.313 12.5674 31.367C12.5032 31.3938 12.4343 31.4078 12.3647 31.4081Z" fill="white"/>
<path d="M10.7342 24.4065H10.7158C10.5726 24.4017 10.4372 24.3402 10.3393 24.2356C10.2414 24.131 10.189 23.9918 10.1936 23.8486C10.2032 23.5035 10.243 23.1598 10.3126 22.8216C10.3423 22.6813 10.4266 22.5586 10.5468 22.4805C10.667 22.4023 10.8134 22.3751 10.9536 22.4049C11.0939 22.4346 11.2166 22.5189 11.2948 22.6391C11.373 22.7593 11.4002 22.9057 11.3704 23.0459C11.3137 23.3216 11.2815 23.6018 11.2742 23.8832C11.2697 24.0235 11.2108 24.1565 11.1101 24.2541C11.0093 24.3518 10.8745 24.4064 10.7342 24.4065Z" fill="white"/>
<path d="M19.335 17.6892C19.3269 17.7765 19.3361 17.8646 19.3622 17.9484C19.3883 18.0322 19.4307 18.11 19.487 18.1774C19.5433 18.2448 19.6123 18.3003 19.6902 18.3409L19.748 18.23L19.6902 18.3409C19.7681 18.3815 19.8532 18.4062 19.9407 18.4137L19.9406 18.4142H19.9514H19.9515H19.9516H19.9517H19.9518H19.9518H19.9519H19.952H19.9521H19.9522H19.9523H19.9524H19.9525H19.9526H19.9527H19.9528H19.9529H19.953H19.9531H19.9532H19.9533H19.9534H19.9535H19.9536H19.9537H19.9537H19.9538H19.9539H19.954H19.9541H19.9542H19.9543H19.9544H19.9545H19.9546H19.9547H19.9548H19.9549H19.955H19.9551H19.9552H19.9553H19.9554H19.9555H19.9556H19.9556H19.9557H19.9558H19.9559H19.956H19.9561H19.9562H19.9563H19.9564H19.9565H19.9566H19.9567H19.9568H19.9569H19.957H19.9571H19.9572H19.9573H19.9574H19.9575H19.9575H19.9576H19.9577H19.9578H19.9579H19.958H19.9581H19.9582H19.9583H19.9584H19.9585H19.9586H19.9587H19.9588H19.9589H19.959H19.9591H19.9592H19.9593H19.9594H19.9594H19.9595H19.9596H19.9597H19.9598H19.9599H19.96H19.9601H19.9602H19.9603H19.9604H19.9605H19.9606H19.9607H19.9608H19.9609H19.961H19.9611H19.9612H19.9613H19.9613H19.9614H19.9615H19.9616H19.9617H19.9618H19.9619H19.962H19.9621H19.9622H19.9623H19.9624H19.9625H19.9626H19.9627H19.9628H19.9629H19.963H19.9631H19.9632H19.9632H19.9633H19.9634H19.9635H19.9636H19.9637H19.9638H19.9639H19.964H19.9641H19.9642H19.9643H19.9644H19.9645H19.9646H19.9647H19.9648H19.9649H19.965H19.9651H19.9651H19.9652H19.9653H19.9654H19.9655H19.9656H19.9657H19.9658H19.9659H19.966H19.9661H19.9662H19.9663H19.9664H19.9665H19.9666H19.9667H19.9668H19.9669H19.967H19.967H19.9671H19.9672H19.9673H19.9674H19.9675H19.9676H19.9677H19.9678H19.9679H19.968H19.9681H19.9682H19.9683H19.9684H19.9685H19.9686H19.9687H19.9688H19.9689H19.9689H19.969H19.9691H19.9692H19.9693H19.9694H19.9695H19.9696H19.9697H19.9698H19.9699H19.97H19.9701H19.9702H19.9703H19.9704H19.9705H19.9706H19.9707H19.9708H19.9708H19.9709H19.971H19.9711H19.9712H19.9713H19.9714H19.9715H19.9716H19.9717H19.9718H19.9719H19.972H19.9721H19.9722H19.9723H19.9724H19.9725H19.9726H19.9727H19.9727H19.9728H19.9729H19.973H19.9731H19.9732H19.9733H19.9734H19.9735H19.9736H19.9737H19.9738H19.9739H19.974H19.9741H19.9742H19.9743H19.9744H19.9745H19.9746H19.9746H19.9747H19.9748H19.9749H19.975H19.9751H19.9752H19.9753H19.9754H19.9755H19.9756H19.9757H19.9758H19.9759H19.976H19.9761H19.9762H19.9763H19.9764H19.9765H19.9765H19.9766H19.9767H19.9768H19.9769H19.977H19.9771H19.9772H19.9773H19.9774H19.9775H19.9776H19.9777H19.9778H19.9779H19.978H19.9781H19.9782H19.9783H19.9784H19.9785H19.9785H19.9786H19.9787H19.9788H19.9789H19.979H19.9791H19.9792H19.9793H19.9794H19.9795H19.9796H19.9797H19.9798H19.9799H19.98H19.9801H19.9802H19.9803H19.9804H19.9804H19.9805H19.9806H19.9807H19.9808H19.9809H19.981H19.9811H19.9812H19.9813H19.9814H19.9815H19.9816H19.9817H19.9818H19.9819H19.982H19.9821H19.9822H19.9823H19.9823H19.9824H19.9825H19.9826H19.9827H19.9828H19.9829H19.983H19.9831H19.9832H19.9833H19.9834H19.9835H19.9836H19.9837H19.9838H19.9839H19.984H19.9841H19.9842H19.9842H19.9843H19.9844H19.9845H19.9846H19.9847H19.9848H19.9849H19.985H19.9851H19.9852H19.9853H19.9854H19.9855H19.9856H19.9857H19.9858H19.9859H19.986H19.9861H19.9861H19.9862H19.9863H19.9864H19.9865H19.9866H19.9867H19.9868H19.9869H19.987H19.9871H19.9872H19.9873H19.9874H19.9875H19.9876H19.9877H19.9878H19.9879H19.988H19.988H19.9881H19.9882H19.9883H19.9884H19.9885H19.9886H19.9887H19.9888H19.9889H19.989H19.9891H19.9892H19.9893H19.9894H19.9895H19.9896H19.9897H19.9898H19.9899H19.9899H19.99H19.9901H19.9902H19.9903H19.9904H19.9905H19.9906H19.9907H19.9908H19.9909H19.991H19.9911H19.9912H19.9913H19.9914H19.9915H19.9916H19.9917H19.9918H19.9918H19.9919H19.992H19.9921H19.9922H19.9923H19.9924H19.9925H19.9926H19.9927H19.9928H19.9929H19.993H19.9931H19.9932H19.9933H19.9934H19.9935H19.9936H19.9937H19.9937H19.9938H19.9939H19.994H19.9941H19.9942H19.9943H19.9944H19.9945H19.9946H19.9947H19.9948H19.9949H19.995H19.9951H19.9952H19.9953H19.9954H19.9955H19.9956H19.9956H19.9957H19.9958H19.9959H19.996H19.9961H19.9962H19.9963H19.9964H19.9965H19.9966H19.9967H19.9968H19.9969H19.997H19.9971H19.9972H19.9973H19.9974H19.9975H19.9975H19.9976H19.9977H19.9978H19.9979H19.998H19.9981H19.9982H19.9983H19.9984H19.9985H19.9986H19.9987H19.9988H19.9989H19.999H19.9991H19.9992H19.9993H19.9994H19.9994H19.9995H19.9996H19.9997H19.9998M19.335 17.6892C19.335 17.6891 19.335 17.689 19.335 17.689L19.4595 17.7005L19.335 17.6894C19.335 17.6893 19.335 17.6892 19.335 17.6892ZM19.335 17.6892C19.4276 16.6564 19.8212 15.1842 20.6812 14.0068C21.5454 12.8237 22.8832 11.937 24.8455 12.1019C24.933 12.1084 25.0183 12.1321 25.0966 12.1717C25.1751 12.2114 25.2449 12.2663 25.3021 12.3331L25.2079 12.4137L25.3021 12.3331C25.3592 12.4 25.4026 12.4775 25.4296 12.5612C25.4566 12.6449 25.4667 12.7332 25.4594 12.8208C25.4521 12.9085 25.4275 12.9938 25.387 13.0719C25.3465 13.15 25.291 13.2193 25.2236 13.2758C25.1561 13.3322 25.0782 13.3748 24.9942 13.401C24.9105 13.4271 24.8224 13.4364 24.735 13.4283C23.9826 13.3662 23.3288 13.5038 22.7717 13.8334C22.214 14.1634 21.7443 14.6911 21.3702 15.4241C21.0019 16.174 20.7635 16.9808 20.6649 17.8104C20.6495 17.9756 20.5729 18.1292 20.4501 18.2409C20.327 18.353 20.1663 18.4148 19.9998 18.4142M19.9998 18.4142C19.9997 18.4142 19.9996 18.4142 19.9995 18.4142L20 18.2892M19.9998 18.4142H19.9998H19.9999H20V18.2892M20 18.2892H19.9514L21.2584 15.3681C20.8834 16.1314 20.6407 16.9528 20.5406 17.7973C20.5284 17.9321 20.4661 18.0574 20.366 18.1484C20.2659 18.2395 20.1353 18.2897 20 18.2892Z" fill="white" stroke="white" stroke-width="0.25"/>
<path d="M20.0889 17.8015L20.0888 17.8023L20.1029 17.8023C20.2654 17.802 20.4221 17.7423 20.5436 17.6344C20.6647 17.5269 20.7424 17.379 20.7622 17.2183C20.8737 16.4628 20.8184 15.692 20.6002 14.96C20.3818 14.2276 20.0055 13.552 19.4979 12.9806C18.9903 12.4093 18.3636 11.9561 17.662 11.653C16.9609 11.3502 16.2019 11.2045 15.4385 11.2263C15.2767 11.2272 15.1208 11.287 14.9998 11.3944C14.8789 11.5019 14.8013 11.6498 14.7815 11.8103C14.6702 12.5645 14.7252 13.3338 14.9425 14.0645C15.16 14.7957 15.5349 15.4705 16.0409 16.0414C16.5468 16.6124 17.1715 17.0657 17.8713 17.3696C18.5684 17.6724 19.323 17.8195 20.0827 17.8008L20.0889 17.8015ZM17.042 15.1638C16.4123 14.4549 16.0667 13.5402 16.0683 12.5951C17.007 12.7049 17.8746 13.1559 18.5044 13.8648C19.1341 14.5737 19.4797 15.4884 19.4781 16.4336C18.5394 16.3237 17.6718 15.8727 17.042 15.1638Z" fill="white" stroke="white" stroke-width="0.25"/>
<path d="M16.9078 5.41653C17.0326 5.54134 17.2019 5.61146 17.3784 5.61146C17.5549 5.61146 17.7242 5.54134 17.849 5.41653C17.9738 5.29171 18.044 5.12243 18.044 4.94592V0.621595C18.044 0.445083 17.9738 0.275801 17.849 0.150987C17.7242 0.026174 17.5549 -0.0439453 17.3784 -0.0439453C17.2019 -0.0439453 17.0326 0.026174 16.9078 0.150987C16.783 0.275801 16.7129 0.445083 16.7129 0.621595V4.94592C16.7129 5.12243 16.783 5.29171 16.9078 5.41653Z" fill="white" stroke="white" stroke-width="0.25"/>
<path d="M23.0699 5.41653C23.1947 5.54134 23.364 5.61146 23.5405 5.61146C23.717 5.61146 23.8863 5.54134 24.0111 5.41653C24.136 5.29171 24.2061 5.12243 24.2061 4.94592V0.621595C24.2061 0.445083 24.136 0.275801 24.0111 0.150987C23.8863 0.026174 23.717 -0.0439453 23.5405 -0.0439453C23.364 -0.0439453 23.1947 0.026174 23.0699 0.150987C22.9451 0.275801 22.875 0.445083 22.875 0.621595V4.94592C22.875 5.12243 22.9451 5.29171 23.0699 5.41653Z" fill="white" stroke="white" stroke-width="0.25"/>
<path d="M16.9078 8.86249C17.0326 8.98731 17.2019 9.05743 17.3784 9.05743C17.5549 9.05743 17.7242 8.98731 17.849 8.86249C17.9738 8.73768 18.044 8.5684 18.044 8.39189V7.3108C18.044 7.13429 17.9738 6.96501 17.849 6.8402C17.7242 6.71538 17.5549 6.64526 17.3784 6.64526C17.2019 6.64526 17.0326 6.71538 16.9078 6.8402C16.783 6.96501 16.7129 7.13429 16.7129 7.3108V8.39189C16.7129 8.5684 16.783 8.73768 16.9078 8.86249Z" fill="white" stroke="white" stroke-width="0.25"/>
<path d="M23.0699 8.86249C23.1947 8.98731 23.364 9.05743 23.5405 9.05743C23.717 9.05743 23.8863 8.98731 24.0111 8.86249C24.136 8.73768 24.2061 8.5684 24.2061 8.39189V7.3108C24.2061 7.13429 24.136 6.96501 24.0111 6.8402C23.8863 6.71538 23.717 6.64526 23.5405 6.64526C23.364 6.64526 23.1947 6.71538 23.0699 6.8402C22.9451 6.96501 22.875 7.13429 22.875 7.3108V8.39189C22.875 8.5684 22.9451 8.73768 23.0699 8.86249Z" fill="white" stroke="white" stroke-width="0.25"/>
<path d="M9.06993 10.9571C9.19475 11.0819 9.36403 11.152 9.54054 11.152C9.71705 11.152 9.88634 11.0819 10.0111 10.9571C10.136 10.8323 10.2061 10.663 10.2061 10.4865V4.54054C10.2061 4.36403 10.136 4.19475 10.0111 4.06993C9.88634 3.94512 9.71705 3.875 9.54054 3.875C9.36403 3.875 9.19475 3.94512 9.06993 4.06993C8.94512 4.19475 8.875 4.36403 8.875 4.54054V10.4865C8.875 10.663 8.94512 10.8323 9.06993 10.9571Z" fill="white" stroke="white" stroke-width="0.25"/>
<path d="M9.06993 14.4036C9.19475 14.5284 9.36403 14.5985 9.54054 14.5985C9.71705 14.5985 9.88634 14.5284 10.0111 14.4036C10.136 14.2787 10.2061 14.1095 10.2061 13.933V12.8519C10.2061 12.6754 10.136 12.5061 10.0111 12.3813C9.88634 12.2565 9.71705 12.1863 9.54054 12.1863C9.36403 12.1863 9.19475 12.2565 9.06993 12.3813C8.94512 12.5061 8.875 12.6754 8.875 12.8519V13.933C8.875 14.1095 8.94512 14.2787 9.06993 14.4036Z" fill="white" stroke="white" stroke-width="0.25"/>
<path d="M30.0699 10.9571L30.1583 10.8687L30.0699 10.9571C30.1947 11.0819 30.364 11.152 30.5405 11.152C30.7171 11.152 30.8863 11.0819 31.0112 10.9571C31.136 10.8323 31.2061 10.663 31.2061 10.4865V4.54054C31.2061 4.36403 31.136 4.19475 31.0112 4.06993C30.8863 3.94512 30.7171 3.875 30.5405 3.875C30.364 3.875 30.1947 3.94512 30.0699 4.06993C29.9451 4.19475 29.875 4.36403 29.875 4.54054V10.4865C29.875 10.663 29.9451 10.8323 30.0699 10.9571Z" fill="white" stroke="white" stroke-width="0.25"/>
<path d="M30.0699 14.4036C30.1947 14.5284 30.364 14.5985 30.5405 14.5985C30.7171 14.5985 30.8863 14.5284 31.0112 14.4036C31.136 14.2787 31.2061 14.1095 31.2061 13.933V12.8519C31.2061 12.6754 31.136 12.5061 31.0112 12.3813C30.8863 12.2565 30.7171 12.1863 30.5405 12.1863C30.364 12.1863 30.1947 12.2565 30.0699 12.3813C29.9451 12.5061 29.875 12.6754 29.875 12.8519V13.933C29.875 14.1095 29.9451 14.2787 30.0699 14.4036Z" fill="white" stroke="white" stroke-width="0.25"/>
</g>
<defs>
<clipPath id="clip0">
<rect width="40" height="40" fill="white"/>
</clipPath>
</defs>
</svg>
