<svg width="40" height="40" viewBox="0 0 40 40" fill="none" xmlns="http://www.w3.org/2000/svg">
<g clip-path="url(#clip0)">
<path d="M29.4289 8.9087C28.4521 8.69436 28.4521 8.6946 28.452 8.6949L28.4518 8.69587L28.4511 8.69905L28.4487 8.71039L28.4396 8.75268C28.4317 8.78947 28.4203 8.84328 28.4058 8.91312C28.3769 9.0528 28.3355 9.25667 28.2851 9.51682C28.1842 10.037 28.0471 10.7829 27.9008 11.6912C27.6085 13.5054 27.2779 15.9782 27.1283 18.5997C26.9793 21.2129 27.0074 24.0174 27.4529 26.4789C27.892 28.9057 28.7715 31.1963 30.4945 32.5435L30.5108 32.5563L30.5277 32.5684C32.2644 33.8136 34.191 33.5786 35.6282 32.8618C36.3454 32.5041 36.9746 32.0141 37.4533 31.4811C37.9172 30.9648 38.3063 30.3326 38.4216 29.6716C38.454 29.4896 38.484 29.2941 38.5061 29.0881C38.543 29.1644 38.5798 29.2467 38.6162 29.3356L38.6174 29.3385C38.9633 30.1755 39.1123 31.3598 38.583 33.0216C37.5352 35.9194 34.1342 37.9862 30.7959 37.925C29.1618 37.895 27.6057 37.3516 26.3923 36.1938C25.18 35.0372 24.2248 33.1857 23.9463 30.3861L23.9434 30.3567L23.9387 30.3275C22.8558 23.5403 23.8321 12.128 24.0792 9.24004C24.087 9.14903 24.094 9.06648 24.1003 8.99281L24.1923 7.90827H23.1038H16.6599H15.6388L15.6602 8.92921L16.6599 8.90827C15.6602 8.92921 15.6602 8.92927 15.6602 8.92939L15.6602 8.92992L15.6602 8.932L15.6604 8.94027L15.6611 8.97296L15.6638 9.10077L15.6742 9.58934C15.6832 10.0122 15.6964 10.6207 15.7127 11.3635C15.7455 12.8491 15.7911 14.8722 15.8426 17.0218C15.9454 21.3147 16.0721 26.1312 16.1668 28.1676L16.1671 28.1734C16.3585 31.8339 15.4752 34.5998 14.2301 36.157C13.6123 36.9296 12.9325 37.3752 12.2728 37.5432C11.631 37.7065 10.9221 37.6302 10.167 37.2048C9.09754 36.5633 8.55777 35.8635 8.30094 35.1695C8.0374 34.4574 8.02901 33.6354 8.23042 32.6894C8.43276 31.739 8.8328 30.7274 9.31762 29.6741C9.55866 29.1505 9.8147 28.6289 10.0722 28.1051L10.0881 28.0727C10.3382 27.5638 10.5903 27.0509 10.8197 26.5522L10.8254 26.5399L10.8307 26.5273C11.8117 24.2316 12.2187 20.3394 12.3404 16.8584C12.4626 13.3616 12.3037 10.0007 12.0303 8.69221L11.9372 8.24642L11.5397 8.02405L11.0514 8.89673C11.5397 8.02405 11.5386 8.0234 11.5374 8.02275L11.535 8.02144L11.5301 8.01876L11.5198 8.01317L11.4967 8.00121C11.4803 7.9929 11.4617 7.98395 11.441 7.97453C11.3994 7.95567 11.3493 7.93498 11.2898 7.9137C11.1708 7.87111 11.0155 7.8265 10.8189 7.78937C10.4258 7.71512 9.87022 7.67122 9.10967 7.7308C7.5943 7.84951 5.23671 8.38125 1.66783 9.94395C1.53685 10.0009 1.41573 10.0498 1.30436 10.0911C1.33957 10.0309 1.3781 9.96747 1.42014 9.90079C2.49238 8.20606 3.93881 6.21374 5.60374 4.65624C7.28894 3.07977 9.05982 2.07741 10.7923 2.07741H10.831H10.8699H10.9092H10.9487H10.9885H11.0285H11.0689H11.1095H11.1504H11.1916H11.2331H11.2748H11.3168H11.359H11.4016H11.4444H11.4874H11.5308H11.5744H11.6182H11.6623H11.7067H11.7513H11.7962H11.8413H11.8867H11.9324H11.9783H12.0244H12.0708H12.1174H12.1643H12.2114H12.2587H12.3063H12.3542H12.4022H12.4505H12.4991H12.5478H12.5968H12.6461H12.6955H12.7452H12.7951H12.8453H12.8956H12.9462H12.997H13.048H13.0992H13.1507H13.2024H13.2542H13.3063H13.3586H13.4111H13.4638H13.5167H13.5699H13.6232H13.6767H13.7304H13.7844H13.8385H13.8928H13.9473H14.002H14.0569H14.112H14.1673H14.2227H14.2784H14.3342H14.3902H14.4464H14.5028H14.5593H14.616H14.6729H14.73H14.7873H14.8447H14.9023H14.96H15.018H15.0761H15.1343H15.1928H15.2513H15.3101H15.369H15.428H15.4873H15.5466H15.6061H15.6658H15.7256H15.7856H15.8457H15.906H15.9664H16.027H16.0877H16.1485H16.2095H16.2706H16.3318H16.3932H16.4547H16.5164H16.5782H16.6401H16.7021H16.7643H16.8266H16.889H16.9515H17.0141H17.0769H17.1398H17.2028H17.2659H17.3292H17.3925H17.456H17.5195H17.5832H17.647H17.7108H17.7748H17.8389H17.9031H17.9674H18.0318H18.0963H18.1608H18.2255H18.2903H18.3551H18.4201H18.4851H18.5502H18.6154H18.6807H18.7461H18.8115H18.877H18.9426H19.0083H19.0741H19.1399H19.2058H19.2718H19.3378H19.4039H19.4701H19.5364H19.6027H19.669H19.7355H19.8019H19.8685H19.9351H20.0017H20.0685H20.1352H20.202H20.2689H20.3358H20.4028H20.4698H20.5368H20.6039H20.6711H20.7382H20.8054H20.8727H20.94H21.0073H21.0746H21.142H21.2094H21.2769H21.3443H21.4118H21.4793H21.5469H21.6144H21.682H21.7496H21.8172H21.8848H21.9525H22.0201H22.0878H22.1555H22.2232H22.2908H22.3585H22.4262H22.4939H22.5617H22.6294H22.6971H22.7648H22.8325H22.9002H22.9678H23.0355H23.1032H23.1708H23.2385H23.3061H23.3737H23.4413H23.5089H23.5764H23.644H23.7115H23.779H23.8464H23.9139H23.9813H24.0486H24.116H24.1833H24.2506H24.3178H24.385H24.4522H24.5193H24.5864H24.6535H24.7204H24.7874H24.8543H24.9212H24.988H25.0547H25.1214H25.1881H25.2547H25.3212H25.3877H25.4541H25.5205H25.5868H25.653H25.7192H25.7853H25.8513H25.9173H25.9832H26.049H26.1148H26.1804H26.246H26.3115H26.377H26.4423H26.5076H26.5728H26.6379H26.7029H26.7679H26.8327H26.8975H26.9621H27.0267H27.0912H27.1555H27.2198H27.284H27.3481H27.412H27.4759H27.5397H27.6033H27.6669H27.7303H27.7936H27.8569H27.92H27.983H28.0458H28.1086H28.1712H28.2337H28.2961H28.3584H28.4206H28.4826H28.5445H28.6062H28.6679H28.7294H28.7907H28.852H28.9131H28.974H29.0349H29.0955H29.1561H29.2165H29.2767H29.3368H29.3968H29.4566H29.5162H29.5757H29.6351H29.6943H29.7533H29.8122H29.8709H29.9295H29.9879H30.0462H30.1042H30.1621H30.2199H30.2775H30.3349H30.3921H30.4491H30.506H30.5627H30.6193H30.6756H30.7318H30.7878H30.8436H30.8992H30.9547H31.0099H31.065H31.1198H31.1745H31.229H31.2833H31.3374H31.3913H31.445H31.4985H31.5518H31.6049H31.6578H31.7105H31.763H31.8152H31.8673H31.9191H31.9708H32.0222H32.0734H32.1244H32.1752H32.2257H32.2761H32.3262H32.3761H32.4257H32.4751H32.5244H32.5733H32.6221H32.6706H32.7189H32.7669H32.8147H32.8623H32.9096H32.9567H33.0035H33.0501H33.0965H33.1426H33.1884H33.2341H33.2794H33.3245H33.3694H33.414H33.4583H33.5024H33.5462H33.5898H33.6331H33.6761H33.7189H33.7614H33.8036H33.8456H33.8873H33.9287H33.9699H34.0107H34.0513H34.0916H34.1317H34.1714H34.2109H34.2501H34.289H34.3276H34.366H34.404H34.4418H34.4792H34.5164H34.5533H34.5899H34.6261H34.6621H34.6978H34.7332H34.7683H34.803H34.8375H34.8716H34.9055H34.939H34.9723H35.0052H35.0378H35.07H35.102H35.1336H35.165H35.196H35.2266H35.257H35.287H35.3167H35.3461H35.3751H35.4038H35.4322H35.4602H35.488H35.5153H35.5423H35.569H35.5954H35.6214H35.647H35.6723H35.6973H35.7219H35.7462H35.7701H35.7937H35.8169H35.8397H35.8622H35.8843H35.9061H35.9275H35.9486H35.9693H35.9896H36.0095H36.0291H36.0483H36.0672H36.0856H36.1037H36.1214H36.1388H36.1558H36.1723H36.1885H36.2043H36.2198H36.2348H36.2495H36.2638H36.2776H36.2911H36.3042H36.3169H36.3292H36.3412H36.3527H36.3638H36.3745H36.3848H36.3947H36.4042H36.4133H36.422H36.4303H36.4381H36.4456H36.4526H36.4592H36.4654H36.4712H36.4766H36.4815H36.4861H36.4902H36.4938H36.4971H36.4999H36.5023H36.5042H36.5058H36.5069H36.5075C36.5077 2.07741 36.5077 2.07741 36.5077 1.07741V2.07741H36.5447L36.5745 2.0752C36.576 2.07514 36.5781 2.07505 36.5808 2.07496C36.5922 2.07457 36.6143 2.07407 36.6457 2.07444C36.709 2.0752 36.8069 2.07952 36.9275 2.09482C37.1733 2.12599 37.4855 2.19925 37.7864 2.35834C38.0787 2.51284 38.3665 2.75062 38.588 3.13464C38.8114 3.52216 38.9999 4.11546 38.9999 5.02833C38.9999 6.40596 38.4515 7.06539 37.9214 7.42226C37.3258 7.82332 36.6406 7.9087 36.4132 7.9087H36.4089H36.4044H36.3999H36.3951H36.3903H36.3854H36.3803H36.3751H36.3697H36.3643H36.3587H36.353H36.3472H36.3413H36.3352H36.3291H36.3228H36.3164H36.3099H36.3032H36.2965H36.2896H36.2826H36.2755H36.2683H36.261H36.2535H36.246H36.2383H36.2305H36.2227H36.2147H36.2066H36.1984H36.19H36.1816H36.1731H36.1644H36.1557H36.1468H36.1379H36.1288H36.1196H36.1103H36.101H36.0915H36.0819H36.0722H36.0624H36.0525H36.0425H36.0325H36.0223H36.012H36.0016H35.9911H35.9806H35.9699H35.9591H35.9482H35.9373H35.9262H35.9151H35.9038H35.8925H35.8811H35.8696H35.858H35.8462H35.8345H35.8226H35.8106H35.7986H35.7864H35.7742H35.7619H35.7494H35.737H35.7244H35.7117H35.699H35.6861H35.6732H35.6602H35.6471H35.634H35.6207H35.6074H35.594H35.5805H35.567H35.5533H35.5396H35.5258H35.5119H35.498H35.484H35.4699H35.4557H35.4414H35.4271H35.4127H35.3983H35.3837H35.3691H35.3544H35.3397H35.3248H35.3099H35.295H35.2799H35.2648H35.2497H35.2344H35.2191H35.2038H35.1883H35.1728H35.1573H35.1416H35.126H35.1102H35.0944H35.0785H35.0626H35.0466H35.0305H35.0144H34.9982H34.982H34.9657H34.9493H34.9329H34.9165H34.9H34.8834H34.8668H34.8501H34.8333H34.8165H34.7997H34.7828H34.7658H34.7488H34.7318H34.7147H34.6975H34.6803H34.6631H34.6458H34.6285H34.6111H34.5936H34.5762H34.5586H34.5411H34.5234H34.5058H34.4881H34.4703H34.4525H34.4347H34.4168H34.3989H34.381H34.363H34.3449H34.3269H34.3088H34.2906H34.2724H34.2542H34.236H34.2177H34.1993H34.181H34.1626H34.1442H34.1257H34.1072H34.0887H34.0701H34.0516H34.0329H34.0143H33.9956H33.9769H33.9582H33.9394H33.9207H33.9018H33.883H33.8641H33.8453H33.8263H33.8074H33.7885H33.7695H33.7505H33.7314H33.7124H33.6933H33.6742H33.6551H33.636H33.6169H33.5977H33.5785H33.5593H33.5401H33.5209H33.5017H33.4824H33.4631H33.4438H33.4245H33.4052H33.3859H33.3666H33.3472H33.3279H33.3085H33.2891H33.2697H33.2503H33.2309H33.2115H33.1921H33.1727H33.1532H33.1338H33.1144H33.0949H33.0755H33.056H33.0366H33.0171H32.9976H32.9782H32.9587H32.9393H32.9198H32.9003H32.8809H32.8614H32.842H32.8225H32.8031H32.7836H32.7642H32.7448H32.7253H32.7059H32.6865H32.6671H32.6477H32.6283H32.6089H32.5896H32.5702H32.5509H32.5315H32.5122H32.4929H32.4736H32.4543H32.435H32.4157H32.3965H32.3773H32.358H32.3388H32.3196H32.3005H32.2813H32.2622H32.2431H32.224H32.2049H32.1859H32.1668H32.1478H32.1288H32.1099H32.0909H32.072H32.0531H32.0342H32.0154H31.9966H31.9778H31.959H31.9403H31.9216H31.9029H31.8842H31.8656H31.847H31.8285H31.8099H31.7914H31.773H31.7545H31.7361H31.7177H31.6994H31.6811H31.6628H31.6446H31.6264H31.6083H31.5901H31.5721H31.554H31.536H31.518H31.5001H31.4822H31.4644H31.4466H31.4288H31.4111H31.3934H31.3758H31.3582H31.3407H31.3232H31.3057H31.2883H31.271H31.2537H31.2364H31.2192H31.202H31.1849H31.1678H31.1508H31.1338H31.1169H31.1001H31.0833H31.0665H31.0498H31.0332H31.0166H31H30.9835H30.9671H30.9507H30.9344H30.9182H30.902H30.8858H30.8698H30.8538H30.8378H30.8219H30.8061H30.7903H30.7746H30.7589H30.7434H30.7278H30.7124H30.697H30.6817H30.6664H30.6512H30.6361H30.621H30.6061H30.5911H30.5763H30.5615H30.5468H30.5322H30.5176H30.5031H30.4887H30.4743H30.4601H30.4459H30.4317H30.4177H30.4037H30.3898H30.376H30.3623H30.3486H30.335H30.3215H30.3081H30.2947H30.2815H30.2683H30.2552H30.2421H30.2292H30.2163H30.2036H30.1909H30.1783H30.1658H30.1533H30.141H30.1287H30.1165H30.1045H30.0925H30.0805H30.0687H30.057H30.0454H30.0338H30.0224H30.011H29.9997H29.9885H29.9775H29.9665H29.9556H29.9448H29.9341H29.9235H29.9129H29.9025H29.8922H29.882H29.8719H29.8619H29.8519H29.8421H29.8324H29.8228H29.8133H29.8039H29.7946H29.7853H29.7762H29.7673H29.7584H29.7496H29.7409H29.7323H29.7239H29.7155H29.7073H29.6991H29.6911H29.6832H29.6754H29.6677H29.6601H29.6526H29.6452H29.638H29.6309H29.6238H29.6169H29.6101H29.6035H29.5969H29.5905H29.5841H29.5779H29.5718H29.5659H29.56H29.5543H29.5487H29.5432H29.5378H29.5326H29.5275H29.5225H29.5176H29.5128H29.5082H29.5037H29.4993H29.4951H29.491H29.487H29.4831H29.4794H29.4758H29.4723H29.4689H29.4657H29.4626H29.4597H29.4568H29.4541H29.4516H29.4492H29.4469H29.4447H29.4427H29.4408H29.4391H29.4375H29.436H29.4346H29.4334H29.4324H29.4315H29.4307H29.43H29.4296H29.4292H29.429L29.4289 8.9087ZM29.4289 8.9087L28.4521 8.69436L28.6246 7.9087H29.4289V8.9087ZM39.5416 28.9566C38.7181 26.9463 37.3423 26.8407 37.4958 27.7808L22.1002 8.90827C22.1027 8.87878 22.1051 8.85059 22.1074 8.82374L23.1038 8.90827V9.90827H23.0188C22.7051 13.6623 21.9259 24.059 22.9512 30.485C24.1385 42.4199 37.108 40.1035 39.53 33.3432C40.1294 31.4735 39.9888 30.0387 39.5416 28.9566Z" stroke="white" stroke-width="2"/>
</g>
<defs>
<clipPath id="clip0">
<rect width="40" height="40" fill="white"/>
</clipPath>
</defs>
</svg>
