<svg width="40" height="40" viewBox="0 0 40 40" fill="none" xmlns="http://www.w3.org/2000/svg">
<g clip-path="url(#clip0)">
<path d="M39.2188 38.4375H27.007L32.146 9.29207C32.1821 9.08809 32.1355 8.87801 32.0167 8.70832C31.8978 8.53856 31.7164 8.42301 31.5124 8.38708L30.0336 8.12637L30.8061 2.62968C30.8662 2.20241 30.5685 1.80742 30.1412 1.74734L27.4334 1.36679C27.0068 1.30656 26.6111 1.60437 26.5511 2.03171C26.491 2.45898 26.7887 2.85397 27.216 2.91405L29.1501 3.18585L28.494 7.85489L25.3995 7.30927L25.5614 6.39091C25.7859 5.11834 24.9331 3.9003 23.6603 3.67577C22.3876 3.45171 21.1696 4.3042 20.9452 5.57685L20.7833 6.49529L17.7163 5.95451L18.3192 1.66374L20.253 1.93554C20.6797 1.99546 21.0752 1.69796 21.1353 1.27062C21.1954 0.843358 20.8977 0.44836 20.4704 0.388282L17.7631 0.00781455C17.5578 -0.0213259 17.3496 0.0327363 17.1842 0.157501C17.0187 0.282188 16.9095 0.467578 16.8807 0.672734L16.1767 5.6831L14.5861 5.40264C14.1613 5.32764 13.756 5.61146 13.6811 6.03638L7.96794 38.4376H0.781247C0.349842 38.4376 0 38.7874 0 39.2188C0 39.6502 0.349842 40.0001 0.781247 40.0001H39.2188C39.6502 40.0001 40 39.6502 40 39.2188C40 38.7874 39.6502 38.4375 39.2188 38.4375ZM24.2605 29.7182C23.8355 29.6434 23.4303 29.9271 23.3554 30.352L23.0162 32.2755L21.1698 31.9499L21.509 30.0264C21.5838 29.6015 21.3002 29.1962 20.8752 29.1213C20.4507 29.0463 20.0451 29.3301 19.9702 29.755L19.631 31.6786L17.7846 31.3531L18.1238 29.4296C18.1986 29.0047 17.9149 28.5994 17.49 28.5245C17.0652 28.45 16.6599 28.7334 16.5849 29.1582L16.2458 31.0817L14.3993 30.7561L14.7385 28.8326C14.8135 28.4078 14.5298 28.0025 14.1049 27.9276C13.6809 27.8522 13.2748 28.1364 13.1999 28.5613L12.8607 30.4848L11.0141 30.1592L11.8281 25.5427L27.2156 28.2559L26.4016 32.8724L24.5551 32.5468L24.8942 30.6232C24.9691 30.1984 24.6855 29.7932 24.2605 29.7182ZM12.9134 19.3874L28.3009 22.1006L27.4869 26.7172L25.6404 26.3917L25.9796 24.4681C26.0544 24.0433 25.7708 23.6379 25.3458 23.563C24.921 23.4886 24.5157 23.7718 24.4408 24.1968L24.1016 26.1204L22.2552 25.7948L22.5944 23.8712C22.6692 23.4464 22.3855 23.0411 21.9606 22.9662C21.5362 22.8915 21.1305 23.175 21.0555 23.5999L20.7164 25.5235L18.87 25.1979L19.2091 23.2743C19.284 22.8494 19.0003 22.4441 18.5754 22.3692C18.1507 22.2945 17.7453 22.578 17.6703 23.0029L17.3312 24.9265L15.4847 24.601L15.8238 22.6773C15.8987 22.2525 15.615 21.8472 15.1901 21.7723C14.7653 21.6974 14.3599 21.9811 14.285 22.406L13.9459 24.3296L12.0994 24.004L12.9134 19.3874ZM13.9987 13.2322L29.3863 15.9454L28.5723 20.5619L26.7258 20.2364L27.065 18.3129C27.1398 17.8881 26.8561 17.4827 26.4312 17.4078C26.0064 17.3331 25.6011 17.6166 25.5261 18.0416L25.187 19.9651L23.3405 19.6395L23.6797 17.716C23.7545 17.2912 23.4708 16.8859 23.0459 16.8109C22.621 16.736 22.2158 17.0198 22.1409 17.4447L21.8017 19.3682L19.9552 19.0427L20.2945 17.1191C20.3695 16.6943 20.0857 16.2891 19.6608 16.2142C19.2369 16.139 18.8308 16.4229 18.7558 16.8478L18.4166 18.7713L16.5699 18.4457L16.9092 16.5222C16.9842 16.0974 16.7004 15.6921 16.2755 15.6172C15.8514 15.542 15.4455 15.826 15.3705 16.2509L15.0313 18.1744L13.1848 17.8488L13.9987 13.2322ZM22.4838 5.84826C22.5586 5.42396 22.9642 5.1399 23.3888 5.21451C23.5926 5.25053 23.7713 5.36498 23.8917 5.53693C24.012 5.70881 24.0586 5.91576 24.0226 6.11959L23.8606 7.03794L22.3219 6.76661L22.4838 5.84826ZM15.084 7.077L30.4716 9.79019L29.6576 14.4067L27.8111 14.0812L28.1503 12.1577C28.2251 11.7328 27.9415 11.3275 27.5165 11.2526C27.0918 11.1782 26.6865 11.4614 26.6115 11.8864L26.2723 13.8099L24.4258 13.4843L24.765 11.5608C24.8398 11.136 24.5562 10.7307 24.1312 10.6557C23.7064 10.5812 23.3011 10.8646 23.2262 11.2895L22.887 13.213L21.0406 12.8874L21.3798 10.9639C21.4546 10.5391 21.1709 10.1338 20.746 10.0589C20.3216 9.98418 19.9159 10.2677 19.8409 10.6926L19.5018 12.6161L17.6553 12.2905L17.9945 10.367C18.0695 9.94215 17.7858 9.53691 17.3609 9.46199C16.9369 9.38637 16.5309 9.67074 16.4559 10.0957L16.1167 12.0192L14.2701 11.6936L15.084 7.077ZM15.0352 36.1472L14.6313 38.4375H13.0448L13.4965 35.8758C13.5714 35.4516 13.9774 35.168 14.4016 35.2421C14.6053 35.2781 14.784 35.3926 14.9044 35.5645C15.0247 35.7364 15.0712 35.9433 15.0352 36.1472ZM22.1136 37.3952L21.9298 38.4375H20.3433L20.5748 37.1239C20.6497 36.6998 21.0559 36.416 21.4799 36.4902C21.6837 36.5262 21.8623 36.6407 21.9827 36.8127C22.103 36.9845 22.1496 37.1915 22.1136 37.3952ZM23.5165 38.4375L23.6523 37.6666C23.8768 36.3939 23.0239 35.1759 21.7512 34.9515C20.4781 34.7272 19.2605 35.5798 19.036 36.8526L18.7566 38.4375H16.218L16.5739 36.4185C16.6824 35.8037 16.544 35.1821 16.1842 34.6682C15.8245 34.1545 15.2876 33.8117 14.6728 33.7034C14.0581 33.5949 13.4364 33.7334 12.9227 34.0931C12.4089 34.4528 12.0661 34.9896 11.9578 35.6045L11.4582 38.4375H9.55434L10.7427 31.6979L26.1302 34.4111L25.4203 38.4375H23.5165Z" fill="white"/>
<path d="M23.8432 2.43242C24.2746 2.43242 24.6245 2.08258 24.6245 1.65117C24.6245 1.21976 24.2746 0.869919 23.8432 0.869919H23.8426C23.4112 0.869919 23.0616 1.21976 23.0616 1.65117C23.0616 2.08258 23.4118 2.43242 23.8432 2.43242Z" fill="white"/>
</g>
<defs>
<clipPath id="clip0">
<rect width="40" height="40" fill="white"/>
</clipPath>
</defs>
</svg>
