<svg width="58" height="58" viewBox="0 0 58 58" fill="none" xmlns="http://www.w3.org/2000/svg">
<path d="M56.0142 18.2101H51.3087C51.1783 15.6229 50.2253 13.1449 48.5885 11.137L51.8791 7.84713C51.9963 7.72993 52.0893 7.5908 52.1527 7.43768C52.2162 7.28456 52.2488 7.12044 52.2488 6.9547C52.2488 6.78896 52.2162 6.62485 52.1527 6.47172C52.0893 6.3186 51.9963 6.17947 51.8791 6.06227C51.7619 5.94508 51.6228 5.85211 51.4697 5.78869C51.3166 5.72526 51.1525 5.69262 50.9867 5.69262C50.821 5.69262 50.6569 5.72526 50.5037 5.78869C50.3506 5.85211 50.2115 5.94508 50.0943 6.06227L46.8044 9.3529C44.8119 7.72886 42.3563 6.77761 39.7897 6.63559V1.98559C39.7897 1.65088 39.6568 1.32988 39.4201 1.09321C39.1834 0.856533 38.8624 0.723572 38.5277 0.723572C38.193 0.723572 37.872 0.856533 37.6353 1.09321C37.3986 1.32988 37.2657 1.65088 37.2657 1.98559V6.74521C34.6537 7.11912 32.2338 8.3311 30.37 10.1988L29.9489 10.62L26.7037 7.37477C26.4657 7.14484 26.1469 7.01757 25.816 7.02038C25.4851 7.02319 25.1686 7.15585 24.9345 7.38979C24.7005 7.62373 24.5677 7.94023 24.5648 8.27113C24.5618 8.60203 24.689 8.92084 24.9188 9.15891L28.164 12.4041L21.1782 19.3899L17.933 16.1447C17.8158 16.0276 17.6768 15.9347 17.5237 15.8713C17.3706 15.8079 17.2066 15.7752 17.0409 15.7752C16.7063 15.7752 16.3854 15.9081 16.1489 16.1447C15.9123 16.3813 15.7793 16.7022 15.7793 17.0368C15.7793 17.3714 15.9123 17.6923 16.1489 17.9289L19.394 21.1741L12.4082 28.1599L9.16304 24.9147C8.92497 24.6848 8.60615 24.5577 8.27526 24.5606C7.94436 24.5636 7.62786 24.6964 7.39392 24.9304C7.15998 25.1644 7.02731 25.481 7.0245 25.8119C7.0217 26.1428 7.14897 26.4616 7.3789 26.6995L10.6241 29.9447L10.2037 30.3659C8.33447 32.2303 7.12166 34.6517 6.74789 37.2652H1.98828C1.65357 37.2652 1.33257 37.3981 1.09589 37.6348C0.859219 37.8715 0.726257 38.1925 0.726257 38.5272C0.726257 38.8619 0.859219 39.1829 1.09589 39.4196C1.33257 39.6562 1.65357 39.7892 1.98828 39.7892H6.63828C6.78029 42.3558 7.73155 44.8114 9.35558 46.8039L6.06496 50.0938C5.94776 50.211 5.8548 50.3501 5.79137 50.5032C5.72795 50.6563 5.6953 50.8205 5.6953 50.9862C5.6953 51.1519 5.72795 51.316 5.79137 51.4692C5.8548 51.6223 5.94776 51.7614 6.06496 51.8786C6.18215 51.9958 6.32129 52.0888 6.47441 52.1522C6.62753 52.2156 6.79165 52.2483 6.95739 52.2483C7.12313 52.2483 7.28724 52.2156 7.44036 52.1522C7.59349 52.0888 7.73262 51.9958 7.84982 51.8786L11.1397 48.588C13.1476 50.2248 15.6256 51.1778 18.2128 51.3082V56.0137C18.2128 56.3484 18.3458 56.6694 18.5824 56.9061C18.8191 57.1428 19.1401 57.2757 19.4748 57.2757C19.8095 57.2757 20.1305 57.1428 20.3672 56.9061C20.6039 56.6694 20.7368 56.3484 20.7368 56.0137V51.1899C23.3283 50.806 25.7272 49.5972 27.5777 47.7428L27.9989 47.3217L31.301 50.6238C31.539 50.8538 31.8578 50.981 32.1887 50.9782C32.5196 50.9754 32.8361 50.8427 33.0701 50.6088C33.3042 50.3749 33.437 50.0584 33.4399 49.7275C33.4429 49.3966 33.3157 49.0777 33.0859 48.8397L29.7837 45.5375L36.7695 38.5517L40.0717 41.8531C40.1888 41.9703 40.3279 42.0632 40.481 42.1266C40.634 42.19 40.7981 42.2226 40.9638 42.2226C41.1294 42.2226 41.2935 42.19 41.4465 42.1266C41.5996 42.0632 41.7387 41.9703 41.8558 41.8531C41.973 41.736 42.0659 41.5969 42.1293 41.4439C42.1927 41.2908 42.2253 41.1267 42.2253 40.9611C42.2253 40.7954 42.1927 40.6314 42.1293 40.4783C42.0659 40.3252 41.973 40.1862 41.8558 40.069L38.5515 36.7668L45.5373 29.781L48.8395 33.0832C49.0775 33.313 49.3964 33.4402 49.7273 33.4372C50.0582 33.4343 50.3747 33.3015 50.6086 33.0675C50.8425 32.8334 50.9752 32.5169 50.978 32.186C50.9808 31.8551 50.8535 31.5363 50.6236 31.2983L47.3214 27.9962L47.7426 27.575C49.597 25.7245 50.8058 23.3257 51.1897 20.7341H56.0142C56.3489 20.7341 56.6699 20.6012 56.9066 20.3645C57.1433 20.1278 57.2763 19.8068 57.2763 19.4721C57.2763 19.1374 57.1433 18.8164 56.9066 18.5797C56.6699 18.3431 56.3489 18.2101 56.0142 18.2101ZM45.9585 25.7909L25.7907 45.9587C23.9596 47.79 21.4761 48.819 18.8864 48.8192C16.2967 48.8194 13.813 47.7908 11.9817 45.9598C10.1503 44.1287 9.12139 41.6452 9.12119 39.0555C9.12098 36.4658 10.1495 33.9821 11.9806 32.1507L32.1513 11.9808C33.9826 10.1498 36.4663 9.12137 39.0559 9.12164C41.6455 9.12191 44.129 10.1509 45.9599 11.9822C47.7909 13.8136 48.8193 16.2972 48.8191 18.8869C48.8188 21.4765 47.7898 23.9599 45.9585 25.7909Z" fill="white" stroke="white"/>
</svg>
